<?xml version="1.0" encoding="UTF-8"?>
<svg id="Layer_2" data-name="Layer 2" xmlns="http://www.w3.org/2000/svg" viewBox="0 0 34.58 38.2">
  <defs>
    <style>
      .cls-1 {
        fill: #c7ada8;
      }

      .cls-2 {
        fill: #010101;
      }
    </style>
  </defs>
  <g id="Layer_1-2" data-name="Layer 1">
    <g>
      <g>
        <path class="cls-2" d="M34.47,7.2c.11.07.11.12.11.15,0,.22-.33.61-.76.82-.24.12-.42.12-.48.07-.04-.04-.18-.13.04-.47.25-.36.68-.6.94-.6.05,0,.11,0,.14.04h0Z"/>
        <path class="cls-2" d="M32.94,4.43c.06.32-.23.9-.64,1.24-.23.2-.47.29-.6.24-.21-.08-.26-.3-.14-.66.2-.56.7-1.05,1.07-1.05.04,0,.07,0,.1.02.17.05.2.13.22.2Z"/>
        <path class="cls-2" d="M30.42,8.08c2.58,2.27,2.56,4.67,1.93,7.52-.37-.11-.76-.16-1.16-.16-2.31,0-4.19,1.88-4.19,4.19,0,2.14,1.62,3.91,3.69,4.16,0,.28-.02.57-.02.85v.29c.03,3.6.04,5.97-2.89,6.74-1.2.32-2.36.08-3.28-.68-1.06-.88-1.64-2.36-1.53-3.86.09-1.23.59-1.98,1.1-2.77.76-1.16,1.63-2.49,1.27-5.37-.34-2.7-1.57-4.41-2.66-5.91-.04-.06-.09-.12-.13-.18.99-.61,1.59-1.69,1.59-2.87,0-1.62-1.11-2.96-2.63-3.3.38-.7.92-1.16,1.62-1.38.33-.11.68-.15,1.06-.15,2.17,0,4.81,1.61,6.24,2.87h0ZM30.96,11.11c0-1.14-.92-2.06-2.06-2.06s-2.06.92-2.06,2.06.92,2.06,2.06,2.06,2.06-.92,2.06-2.06ZM28.31,27.96c0-.99-.81-1.81-1.81-1.81s-1.81.81-1.81,1.81.81,1.81,1.81,1.81,1.81-.82,1.81-1.81Z"/>
        <path class="cls-2" d="M31.18,16.34c.33,0,.65.04.95.14-.1.41-.21.83-.33,1.25-.42,1.57-.87,3.3-1.06,5.15-1.61-.21-2.85-1.6-2.85-3.26,0-1.81,1.47-3.29,3.29-3.29h0Z"/>
        <path class="cls-2" d="M30.03,2.27c.19.37.02,1.15-.36,1.7-.22.33-.49.52-.69.5-.32-.03-.47-.3-.44-.79.05-.81.6-1.62,1.08-1.62h.02c.25.02.34.12.38.21h0Z"/>
        <circle class="cls-2" cx="28.91" cy="11.12" r="1.15"/>
        <circle class="cls-2" cx="26.51" cy="27.96" r=".91"/>
        <path class="cls-2" d="M26.72.69c.23.47.04,1.41-.43,2.1-.28.42-.62.66-.9.63-.54-.05-.62-.59-.59-1.03.06-.91.7-1.99,1.36-1.99h.03c.34,0,.46.16.52.29h0Z"/>
        <path class="cls-2" d="M23.25,10.04c0,.89-.46,1.69-1.21,2.13-.65-.96-1.11-1.87-1.11-3.04,0-.39.05-.8.17-1.25.03-.1.05-.2.08-.29,1.18.2,2.07,1.22,2.07,2.45h0Z"/>
        <path class="cls-2" d="M21.8.15c.53.36.86,1.35.77,2.28-.04.32-.17,1.07-.73,1.32-.85.36-1.32-.33-1.54-.78-.46-.99-.36-2.43.48-2.83.39-.2.72-.19,1.01,0Z"/>
        <path class="cls-2" d="M13.8,6.54c.84.41.94,1.83.48,2.83-.2.45-.68,1.15-1.54.78-.57-.25-.7-1-.73-1.32-.09-.93.24-1.92.77-2.28.14-.1.3-.15.48-.15.15,0,.34.04.53.14h0Z"/>
        <path class="cls-2" d="M13.49,14.27c.57,2.22-.39,3.54-1.6,5.21-1.09,1.5-2.32,3.2-2.66,5.91-.3,2.4.25,3.71.88,4.76-.75.6-1.18,1.51-1.18,2.49,0,1.47.97,2.71,2.33,3.09-.27.66-.68,1.23-1.19,1.66-.92.76-2.08,1-3.28.68-2.93-.77-2.91-3.15-2.89-6.74v-.7c1.71-.38,2.97-1.91,2.97-3.71,0-2.1-1.71-3.8-3.8-3.8-.19,0-.37,0-.56.04-.86-3.37-1.28-6.11,1.64-8.69,1.43-1.26,4.07-2.86,6.22-2.86.36,0,.72.04,1.06.15,1.03.31,1.71,1.16,2.06,2.51h0ZM12.02,14.45c0-.99-.81-1.81-1.81-1.81s-1.81.81-1.81,1.81.81,1.81,1.81,1.81,1.81-.81,1.81-1.81ZM8.4,34.47c0-.99-.81-1.81-1.81-1.81s-1.81.81-1.81,1.81.81,1.81,1.81,1.81,1.81-.81,1.81-1.81ZM7.58,19.13c0-1.14-.92-2.06-2.06-2.06s-2.06.92-2.06,2.06.92,2.06,2.06,2.06,2.06-.92,2.06-2.06Z"/>
        <path class="cls-2" d="M11.6,33.52c.04.45,0,.9-.08,1.33-.99-.28-1.68-1.17-1.68-2.22,0-.67.28-1.29.76-1.71.48.73.91,1.47.99,2.6h0Z"/>
        <circle class="cls-2" cx="10.21" cy="14.45" r=".91"/>
        <path class="cls-2" d="M9.76,8.77c.04.44-.04.98-.59,1.03-.28.03-.61-.2-.9-.63-.47-.68-.67-1.63-.43-2.1.06-.13.19-.28.53-.29h.03c.66,0,1.29,1.08,1.35,1.99Z"/>
        <circle class="cls-2" cx="6.59" cy="34.47" r=".91"/>
        <circle class="cls-2" cx="5.52" cy="19.13" r="1.16"/>
        <path class="cls-2" d="M6.03,10.07c.04.5-.12.76-.44.79-.2.02-.47-.17-.69-.5-.38-.55-.54-1.33-.36-1.7.03-.05.06-.1.12-.14.06-.04.14-.07.28-.07h.02c.48,0,1.02.8,1.07,1.62Z"/>
        <path class="cls-2" d="M5.97,26.91c0,1.31-.88,2.44-2.11,2.79-.15-2.02-.65-3.89-1.09-5.58,0-.03-.02-.06-.03-.09.11,0,.22-.02.33-.02,1.6,0,2.9,1.3,2.9,2.9Z"/>
        <path class="cls-2" d="M3.02,11.66c.12.36.07.58-.14.66-.13.05-.37-.04-.6-.24-.41-.35-.7-.92-.64-1.24.02-.08.05-.15.22-.2.36-.12.95.42,1.16,1.03Z"/>
        <path class="cls-2" d="M1.19,14.17c.23.34.09.44.04.47-.06.04-.24.04-.48-.07-.43-.2-.75-.6-.76-.82v-.02s0-.08.11-.14c.04-.03.09-.04.14-.04.26,0,.69.24.94.61Z"/>
      </g>
      <g>
        <path class="cls-1" d="M34.47,7.2c.11.07.11.12.11.15,0,.22-.33.61-.76.82-.24.12-.42.12-.48.07-.04-.04-.18-.13.04-.47.25-.36.68-.6.94-.6.05,0,.11,0,.14.04h0Z"/>
        <path class="cls-1" d="M32.94,4.43c.06.32-.23.9-.64,1.24-.23.2-.47.29-.6.24-.21-.08-.26-.3-.14-.66.2-.56.7-1.05,1.07-1.05.04,0,.07,0,.1.02.17.05.2.13.22.2Z"/>
        <path class="cls-1" d="M30.42,8.08c2.58,2.27,2.56,4.67,1.93,7.52-.37-.11-.76-.16-1.16-.16-2.31,0-4.19,1.88-4.19,4.19,0,2.14,1.62,3.91,3.69,4.16,0,.28-.02.57-.02.85v.29c.03,3.6.04,5.97-2.89,6.74-1.2.32-2.36.08-3.28-.68-1.06-.88-1.64-2.36-1.53-3.86.09-1.23.59-1.98,1.1-2.77.76-1.16,1.63-2.49,1.27-5.37-.34-2.7-1.57-4.41-2.66-5.91-.04-.06-.09-.12-.13-.18.99-.61,1.59-1.69,1.59-2.87,0-1.62-1.11-2.96-2.63-3.3.38-.7.92-1.16,1.62-1.38.33-.11.68-.15,1.06-.15,2.17,0,4.81,1.61,6.24,2.87h0ZM30.96,11.11c0-1.14-.92-2.06-2.06-2.06s-2.06.92-2.06,2.06.92,2.06,2.06,2.06,2.06-.92,2.06-2.06ZM28.31,27.96c0-.99-.81-1.81-1.81-1.81s-1.81.81-1.81,1.81.81,1.81,1.81,1.81,1.81-.82,1.81-1.81Z"/>
        <path class="cls-1" d="M31.18,16.34c.33,0,.65.04.95.14-.1.41-.21.83-.33,1.25-.42,1.57-.87,3.3-1.06,5.15-1.61-.21-2.85-1.6-2.85-3.26,0-1.81,1.47-3.29,3.29-3.29h0Z"/>
        <path class="cls-1" d="M30.03,2.27c.19.37.02,1.15-.36,1.7-.22.33-.49.52-.69.5-.32-.03-.47-.3-.44-.79.05-.81.6-1.62,1.08-1.62h.02c.25.02.34.12.38.21h0Z"/>
        <circle class="cls-1" cx="28.91" cy="11.12" r="1.15"/>
        <circle class="cls-1" cx="26.51" cy="27.96" r=".91"/>
        <path class="cls-1" d="M26.72.69c.23.47.04,1.41-.43,2.1-.28.42-.62.66-.9.63-.54-.05-.62-.59-.59-1.03.06-.91.7-1.99,1.36-1.99h.03c.34,0,.46.16.52.29h0Z"/>
        <path class="cls-1" d="M23.25,10.04c0,.89-.46,1.69-1.21,2.13-.65-.96-1.11-1.87-1.11-3.04,0-.39.05-.8.17-1.25.03-.1.05-.2.08-.29,1.18.2,2.07,1.22,2.07,2.45h0Z"/>
        <path class="cls-1" d="M21.8.15c.53.36.86,1.35.77,2.28-.04.32-.17,1.07-.73,1.32-.85.36-1.32-.33-1.54-.78-.46-.99-.36-2.43.48-2.83.39-.2.72-.19,1.01,0Z"/>
        <path class="cls-1" d="M13.8,6.54c.84.41.94,1.83.48,2.83-.2.45-.68,1.15-1.54.78-.57-.25-.7-1-.73-1.32-.09-.93.24-1.92.77-2.28.14-.1.3-.15.48-.15.15,0,.34.04.53.14h0Z"/>
        <path class="cls-1" d="M13.49,14.27c.57,2.22-.39,3.54-1.6,5.21-1.09,1.5-2.32,3.2-2.66,5.91-.3,2.4.25,3.71.88,4.76-.75.6-1.18,1.51-1.18,2.49,0,1.47.97,2.71,2.33,3.09-.27.66-.68,1.23-1.19,1.66-.92.76-2.08,1-3.28.68-2.93-.77-2.91-3.15-2.89-6.74v-.7c1.71-.38,2.97-1.91,2.97-3.71,0-2.1-1.71-3.8-3.8-3.8-.19,0-.37,0-.56.04-.86-3.37-1.28-6.11,1.64-8.69,1.43-1.26,4.07-2.86,6.22-2.86.36,0,.72.04,1.06.15,1.03.31,1.71,1.16,2.06,2.51h0ZM12.02,14.45c0-.99-.81-1.81-1.81-1.81s-1.81.81-1.81,1.81.81,1.81,1.81,1.81,1.81-.81,1.81-1.81ZM8.4,34.47c0-.99-.81-1.81-1.81-1.81s-1.81.81-1.81,1.81.81,1.81,1.81,1.81,1.81-.81,1.81-1.81ZM7.58,19.13c0-1.14-.92-2.06-2.06-2.06s-2.06.92-2.06,2.06.92,2.06,2.06,2.06,2.06-.92,2.06-2.06Z"/>
        <path class="cls-1" d="M11.6,33.52c.04.45,0,.9-.08,1.33-.99-.28-1.68-1.17-1.68-2.22,0-.67.28-1.29.76-1.71.48.73.91,1.47.99,2.6h0Z"/>
        <circle class="cls-1" cx="10.21" cy="14.45" r=".91"/>
        <path class="cls-1" d="M9.76,8.77c.04.44-.04.98-.59,1.03-.28.03-.61-.2-.9-.63-.47-.68-.67-1.63-.43-2.1.06-.13.19-.28.53-.29h.03c.66,0,1.29,1.08,1.35,1.99Z"/>
        <circle class="cls-1" cx="6.59" cy="34.47" r=".91"/>
        <circle class="cls-1" cx="5.52" cy="19.13" r="1.16"/>
        <path class="cls-1" d="M6.03,10.07c.04.5-.12.76-.44.79-.2.02-.47-.17-.69-.5-.38-.55-.54-1.33-.36-1.7.03-.05.06-.1.12-.14.06-.04.14-.07.28-.07h.02c.48,0,1.02.8,1.07,1.62Z"/>
        <path class="cls-1" d="M5.97,26.91c0,1.31-.88,2.44-2.11,2.79-.15-2.02-.65-3.89-1.09-5.58,0-.03-.02-.06-.03-.09.11,0,.22-.02.33-.02,1.6,0,2.9,1.3,2.9,2.9Z"/>
        <path class="cls-1" d="M3.02,11.66c.12.36.07.58-.14.66-.13.05-.37-.04-.6-.24-.41-.35-.7-.92-.64-1.24.02-.08.05-.15.22-.2.36-.12.95.42,1.16,1.03Z"/>
        <path class="cls-1" d="M1.19,14.17c.23.34.09.44.04.47-.06.04-.24.04-.48-.07-.43-.2-.75-.6-.76-.82v-.02s0-.08.11-.14c.04-.03.09-.04.14-.04.26,0,.69.24.94.61Z"/>
      </g>
    </g>
  </g>
</svg>