<?xml version="1.0" encoding="UTF-8"?>
<svg id="Layer_2" data-name="Layer 2" xmlns="http://www.w3.org/2000/svg" viewBox="0 0 31.24 42.14">
  <defs>
    <style>
      .cls-1 {
        fill: #c7ada8;
      }
    </style>
  </defs>
  <g id="Layer_1-2" data-name="Layer 1">
    <g>
      <path class="cls-1" d="M26.57,42.14H.92c-.51,0-.92-.41-.92-.92s.41-.92.92-.92h25.65c.51,0,.92.41.92.92s-.41.92-.92.92Z"/>
      <path class="cls-1" d="M2.75,24.73v3.66c0,6.07,4.92,10.99,10.99,10.99s10.99-4.92,10.99-10.99v-3.66H2.75ZM21.57,31c-.91,2.72-3.16,4.77-5.95,5.43-.07.02-.14.02-.21.02-.51,0-.92-.41-.92-.92,0-.43.29-.8.71-.89,2.17-.52,3.92-2.11,4.63-4.22.16-.48.68-.74,1.16-.58.48.16.74.68.58,1.16h0Z"/>
      <path class="cls-1" d="M31.13,28.22c-.5-2.5-3.32-2.94-5.48-2.77v1.86c1.19-.09,3.41-.08,3.68,1.28.17.63.04,1.31-.37,1.82-.8.97-2.54,1.4-3.86,1.57-.21.66-.48,1.3-.8,1.92,1.27-.06,4.51-.41,6.08-2.32.75-.94,1.03-2.17.75-3.34Z"/>
      <circle class="cls-1" cx="13.74" cy="17.41" r="2.75"/>
      <path class="cls-1" d="M17.63,12.6c-.24,0-.48-.1-.65-.27-1.79-1.79-4.69-1.79-6.48,0-.36.35-.94.34-1.3-.02-.34-.36-.34-.92,0-1.27,2.5-2.5,6.56-2.5,9.07,0,0,0,0,0,0,0,.36.36.36.94,0,1.3-.17.17-.4.27-.65.27h0Z"/>
      <path class="cls-1" d="M20.87,9.36c-.24,0-.48-.1-.65-.27-3.58-3.57-9.38-3.57-12.96,0-.36.35-.94.34-1.3-.02-.34-.36-.34-.92,0-1.27,4.3-4.29,11.25-4.29,15.55,0,.36.36.36.94,0,1.3-.17.17-.4.27-.65.27Z"/>
      <path class="cls-1" d="M24.11,6.13c-.24,0-.48-.1-.65-.27C18.09.49,9.39.49,4.03,5.86c-.36.36-.94.36-1.3,0-.36-.36-.36-.94,0-1.3h0c6.08-6.08,15.94-6.08,22.02,0,0,0,0,0,0,0,.36.36.36.94,0,1.3-.17.17-.41.27-.65.27Z"/>
    </g>
  </g>
</svg>