<?xml version="1.0" encoding="UTF-8"?>
<svg id="Layer_2" data-name="Layer 2" xmlns="http://www.w3.org/2000/svg" viewBox="0 0 45.47 43.16">
  <defs>
    <style>
      .cls-1 {
        fill: #c7ada8;
      }
    </style>
  </defs>
  <g id="Layer_1-2" data-name="Layer 1">
    <g>
      <path class="cls-1" d="M35.11,35.54c-.75.37-1.64.37-2.39,0-.38-.19-.84-.04-1.03.34s-.04.84.34,1.03c.59.3,1.24.44,1.89.44s1.3-.15,1.89-.44c.38-.19.54-.65.34-1.03s-.65-.53-1.03-.34h0Z"/>
      <path class="cls-1" d="M41.62,31.6v-.77c0-4.01-3.09-7.32-7.01-7.67-.35-1.77-1.91-3.12-3.78-3.12-2.13,0-3.85,1.73-3.85,3.85,0,.85.27,1.65.77,2.32-.97,1.29-1.54,2.89-1.54,4.62v.77s0,0,0,0h0c-1.28,0-2.31,1.04-2.31,2.31s1.04,2.31,2.31,2.31h.04c.39,3.89,3.68,6.94,7.67,6.94s7.28-3.05,7.67-6.94h.04c1.28,0,2.31-1.04,2.31-2.31s-1.04-2.31-2.31-2.31ZM40.06,30.32c-1.39-1.34-3.07-2.36-4.93-2.98l-3.28-1.09c-.31-.11-.66,0-.86.27l-.64.86c-.74.99-1.59,1.87-2.54,2.65.4-3.02,2.98-5.36,6.11-5.36s5.88,2.49,6.14,5.65h0ZM30.83,21.58c1.02,0,1.89.67,2.2,1.59-1.6.18-3.05.86-4.2,1.87-.2-.35-.31-.74-.31-1.15,0-1.27,1.04-2.31,2.31-2.31h0ZM25.44,33.91c0-.42.35-.77.77-.77v1.54c-.42,0-.77-.35-.77-.77ZM33.91,41.62c-3.4,0-6.17-2.77-6.17-6.17v-3.45c1.46-1.03,2.75-2.27,3.83-3.71l.31-.42,2.75.92c2.16.72,4.04,2.05,5.44,3.84v2.82c0,3.4-2.77,6.17-6.17,6.17h0ZM41.62,34.68v-1.54c.42,0,.77.35.77.77s-.35.77-.77.77Z"/>
      <path class="cls-1" d="M11.99,34.77c-.75.37-1.64.37-2.39,0-.38-.19-.84-.04-1.03.34s-.04.84.34,1.03c.59.3,1.24.44,1.89.44s1.3-.15,1.89-.44c.38-.19.54-.65.34-1.03-.19-.38-.65-.53-1.03-.34h0Z"/>
      <path class="cls-1" d="M21.58,30.79c0-.65-.21-1.27-.59-1.78-.29-.4-.48-.84-.57-1.31v-.03c-.27-1.33-1.54-2.28-2.89-2.16-.33.03-.64.12-.93.25-1.46-1.67-3.58-2.64-5.81-2.64s-4.34.97-5.8,2.63c-.17-.06-.34-.11-.52-.14-1.34-.23-2.68.61-3.05,1.92v.03c-.13.46-.36.88-.68,1.26-.42.49-.67,1.09-.73,1.73-.09.94.28,1.86.93,2.49-.11.27-.17.57-.17.87,0,1.27,1.04,2.31,2.31,2.31h.04c.39,3.89,3.68,6.94,7.67,6.94s7.28-3.05,7.67-6.94h.04c1.27,0,2.31-1.04,2.31-2.31,0-.31-.06-.6-.17-.88.59-.58.95-1.38.94-2.25h0ZM17.67,27.04s.07,0,.1,0c.54,0,1.03.39,1.13.93v.02c.13.7.42,1.35.84,1.93.19.26.29.57.3.9,0,.71-.48,1.34-1.17,1.51-.44.11-.88.03-1.25-.22-.36-.25-.6-.64-.66-1.07-.01-.1-.02-.2-.01-.3.04-.67-.06-1.39-.3-2.2-.02-.06-.03-.12-.04-.18h0c-.04-.32.05-.62.24-.87.2-.25.48-.4.8-.43h0ZM10.79,24.66c1.8,0,3.5.79,4.67,2.14-.32.52-.45,1.13-.37,1.74.02.14.05.29.09.42.13.44.21.84.23,1.2-.48-.48-1.15-.78-1.88-.78-.5,0-.97.14-1.38.39.11-.13.17-.3.17-.48,0-.43-.35-.77-.77-.77h-1.54c-.43,0-.77.35-.77.77,0,.18.06.35.17.48-.4-.24-.87-.39-1.38-.39-.68,0-1.3.26-1.77.68.06-.26.15-.53.26-.82.05-.13.09-.27.12-.42.16-.75,0-1.52-.45-2.13,1.16-1.28,2.83-2.04,4.58-2.04h0ZM14.64,32.04c0,.61-.5,1.11-1.11,1.11s-1.11-.5-1.11-1.11.5-1.11,1.11-1.11,1.11.5,1.11,1.11ZM11,31.26h-.42c-.15-.5-.44-.93-.83-1.25.08.03.18.05.27.05h1.54c.1,0,.19-.02.27-.05-.39.33-.68.76-.83,1.25ZM9.15,32.04c0,.61-.5,1.11-1.11,1.11s-1.11-.5-1.11-1.11.5-1.11,1.11-1.11,1.11.5,1.11,1.11ZM1.55,30.7c.03-.33.16-.63.37-.87.47-.55.81-1.17.99-1.86v-.02c.15-.5.62-.84,1.12-.84.06,0,.13,0,.19.02.24.04.46.16.63.33.27.28.39.67.31,1.05-.01.06-.03.12-.05.18-.31.79-.46,1.5-.47,2.17,0,.1-.01.2-.03.29-.09.43-.36.8-.74,1.02-.39.22-.83.27-1.26.12-.67-.22-1.11-.89-1.04-1.59h0ZM2.31,33.91s0-.07,0-.1c.25.06.51.1.76.1v.77c-.42,0-.77-.35-.77-.77ZM10.79,41.62c-3.4,0-6.17-2.77-6.17-6.17v-1.95c.34-.19.63-.45.87-.75.31,1.11,1.34,1.93,2.55,1.93s2.2-.79,2.53-1.88h.42c.33,1.09,1.34,1.88,2.53,1.88s2.24-.82,2.55-1.94c.19.24.41.45.67.62.07.05.13.09.2.13v1.96c0,3.4-2.77,6.17-6.17,6.17ZM19.27,33.91c0,.42-.35.77-.77.77v-.78h0c.25,0,.49-.03.74-.09,0,0,.02,0,.02,0,0,.03,0,.07,0,.11Z"/>
      <path class="cls-1" d="M9.25,27.75h3.08c.43,0,.77-.35.77-.77s-.35-.77-.77-.77h-3.08c-.43,0-.77.35-.77.77s.35.77.77.77Z"/>
      <path class="cls-1" d="M37.77,0h-10.79c-3.45,0-6.37,2.28-7.36,5.4-.12,0-.23,0-.35,0h-10.79c-4.25,0-7.71,3.46-7.71,7.71s3.46,7.71,7.71,7.71h3.53l1.32,1.32c.15.15.35.23.54.23s.39-.08.54-.23l1.32-1.32h3.53c3.38,0,6.36-2.21,7.36-5.4.12,0,.23,0,.35,0h3.53l1.32,1.32c.15.15.35.23.54.23s.39-.08.54-.23l1.32-1.32h3.53c4.25,0,7.71-3.46,7.71-7.71s-3.46-7.71-7.71-7.71h0ZM20.81,13.1c0,.42-.35.77-.77.77s-.77-.35-.77-.77.35-.77.77-.77.77.35.77.77ZM19.27,19.27h-3.85c-.2,0-.4.08-.54.23l-1,1-1-1c-.14-.14-.34-.23-.54-.23h-3.85c-3.4,0-6.17-2.77-6.17-6.17s2.77-6.17,6.17-6.17h10.79s.03,0,.04,0c-.03.25-.04.51-.04.77,0,1.1.23,2.14.65,3.09-1.22.06-2.19,1.08-2.19,2.31s1.04,2.31,2.31,2.31c1.04,0,1.92-.69,2.21-1.63.83.64,1.78,1.12,2.83,1.39-.87,2.43-3.19,4.09-5.81,4.09h0ZM37.77,13.87h-3.85c-.2,0-.4.08-.54.23l-1,1-1-1c-.14-.14-.34-.23-.54-.23h-3.85c-3.4,0-6.17-2.77-6.17-6.17s2.77-6.17,6.17-6.17h10.79c3.4,0,6.17,2.77,6.17,6.17s-2.77,6.17-6.17,6.17Z"/>
      <path class="cls-1" d="M13.87,10.79c-1.28,0-2.31,1.04-2.31,2.31s1.04,2.31,2.31,2.31,2.31-1.04,2.31-2.31-1.04-2.31-2.31-2.31ZM13.87,13.87c-.42,0-.77-.35-.77-.77s.35-.77.77-.77.77.35.77.77-.35.77-.77.77Z"/>
      <path class="cls-1" d="M7.71,10.79c-1.28,0-2.31,1.04-2.31,2.31s1.04,2.31,2.31,2.31,2.31-1.04,2.31-2.31-1.04-2.31-2.31-2.31ZM7.71,13.87c-.42,0-.77-.35-.77-.77s.35-.77.77-.77.77.35.77.77-.35.77-.77.77Z"/>
      <path class="cls-1" d="M32.37,5.4c-1.28,0-2.31,1.04-2.31,2.31s1.04,2.31,2.31,2.31,2.31-1.04,2.31-2.31-1.04-2.31-2.31-2.31ZM32.37,8.48c-.42,0-.77-.35-.77-.77s.35-.77.77-.77.77.35.77.77-.35.77-.77.77Z"/>
      <path class="cls-1" d="M26.21,5.4c-1.28,0-2.31,1.04-2.31,2.31s1.04,2.31,2.31,2.31,2.31-1.04,2.31-2.31-1.04-2.31-2.31-2.31ZM26.21,8.48c-.42,0-.77-.35-.77-.77s.35-.77.77-.77.77.35.77.77-.35.77-.77.77Z"/>
      <path class="cls-1" d="M38.54,5.4c-1.28,0-2.31,1.04-2.31,2.31s1.04,2.31,2.31,2.31,2.31-1.04,2.31-2.31-1.04-2.31-2.31-2.31ZM38.54,8.48c-.42,0-.77-.35-.77-.77s.35-.77.77-.77.77.35.77.77-.35.77-.77.77Z"/>
      <circle class="cls-1" cx="31.17" cy="32.81" r="1.11"/>
      <circle class="cls-1" cx="36.48" cy="32.81" r="1.11"/>
      <path class="cls-1" d="M31.22,34.44c-.35-.24-.83-.14-1.07.21-.37.56-.57,1.21-.57,1.89v.45c0,.43.35.77.77.77s.77-.35.77-.77v-.45c0-.37.11-.73.31-1.03.24-.35.14-.83-.21-1.07h0Z"/>
      <path class="cls-1" d="M36.48,34.35c-.34.26-.41.74-.15,1.08.24.32.38.72.38,1.12v.45c0,.43.35.77.77.77s.77-.35.77-.77v-.45c0-.73-.24-1.46-.69-2.05-.26-.34-.74-.41-1.08-.15h0Z"/>
    </g>
  </g>
</svg>