<?xml version="1.0" encoding="UTF-8"?>
<svg id="Layer_2" data-name="Layer 2" xmlns="http://www.w3.org/2000/svg" viewBox="0 0 42.08 41.42">
  <defs>
    <style>
      .cls-1 {
        fill: #c7ada8;
      }

      .cls-2 {
        fill: #010101;
      }
    </style>
  </defs>
  <g id="Layer_1-2" data-name="Layer 1">
    <g>
      <g>
        <path class="cls-2" d="M38.28,33.84h-2.31s0,0,0,0l1.43-3.84c.02-.06.04-.11.06-.17.17-.44.36-.95.14-1.43-.13-.28-.37-.49-.73-.62l-2.25-.83s0,0,0,0c0,0,0,0,0,0l-3.68-1.23c-.06-.02-.09-.03-.11-.04,0,0,0,0,0,0-.02-.06-.04-.18-.06-.27l-.9-4.65h0s.67-3.39.67-3.39c0,0,0,0,0,0l.53.18s0,0,0,0v2.51c0,1.22.99,2.22,2.2,2.22h.01c.58,0,1.16-.24,1.58-.65.42-.42.65-.97.65-1.55v-4.18s0-.02,0-.02c-.04-.91-.64-1.71-1.5-2.01l-4.12-1.4s0,0,0,0l-1.01-1.46s0,0,0,0c.77-.52,1.37-1.28,1.79-2.27,0-.01.01-.03.02-.04,0,0,0,0,0,0,0,0,0,0,0,0,0,0,0,0,0,0,.58-1.77.67-3.39.25-4.69-.45-1.4-1.46-2.42-2.93-2.93-.7-.25-1.38-.24-2.1-.24-1.02,0-2.18.02-3.71-.74-.3-.15-.66-.03-.82.26-.72,1.33-.56,2.58.42,3.51,0,0,0,0,0,0-.59.85-.92,1.86-.92,2.91,0,1.7.99,3.36,2.53,4.31,0,0,0,0,0,0l-1.58,2.47s0,0,0,0h-1.32s0,0,0,0l-1.49-2.17c-.69-1-2.07-1.26-3.08-.57-.49.34-.82.85-.93,1.44-.1.58.02,1.17.36,1.64l2.33,3.29s0,0,0,0c.64.88,1.21.88,1.99.89h1.87s0,0,0,0v2.42s0,0,0,0l-2.64,2.58s0,0,0,0c-.64.63-.97,1.39-.97,2.26v5.28s0,0,0,0c-.6.16-1.31.52-1.89,1.13-.56.59-.9,1.3-1,2.09,0,0,0,0,0,0h-2.6s0,0,0,0v-.25c0-2.26-1.71-4.13-3.91-4.39,0,0,0,0,0,0v-11.17s0,0,0,0l1.14.65c.35.2.75.3,1.14.3.78,0,1.55-.38,1.99-1.07.33-.51.43-1.11.29-1.69-.14-.58-.51-1.07-1.04-1.36L3.48,9.97c-1.06-.6-2.47-.26-3.13.77-.33.51-.43,1.11-.29,1.69.14.58.51,1.06,1.04,1.36l2.8,1.59s0,0,0,0v6.06c0,.34.26.64.6.64.35,0,.63-.27.63-.62v-5.38s0,0,0,0l2.18,1.23s0,0,0,0v11.84s0,0,0,0h-2.18s0,0,0,0v-4.64c0-.34-.26-.64-.6-.64-.35,0-.63.27-.63.62v4.66s0,0,0,0H1.78c-.78,0-1.41.63-1.41,1.41v9.44c0,.78.63,1.41,1.41,1.41h36.51c2.09,0,3.79-1.7,3.79-3.79s-1.7-3.79-3.79-3.79h0ZM19.69,16.84c-.7,0-.72,0-.99-.38l-2.32-3.29c-.15-.21-.2-.46-.16-.72.05-.26.19-.49.41-.64.45-.31,1.06-.19,1.37.25l1.62,2.36c.21.31.45.35.68.35h1.25s0,0,0,0v2.07s0,0,0,0h-1.87ZM1.26,12.14c-.06-.25-.02-.51.13-.73.21-.32.58-.5.96-.5.18,0,.37.04.53.14l8.59,4.87h0c.23.13.39.34.45.59.06.25.02.51-.13.73-.31.48-.99.65-1.49.37L1.71,12.72c-.23-.13-.39-.34-.45-.58ZM36.46,28.95c-.03.12-.1.31-.15.44-.02.06-.05.12-.07.18l-1.59,4.27s0,0,0,0h-.37c-.06,0-.19,0-.35-.23-.43-.62-.45-1.95-.32-2.28l.03-.07s0,0,0,0l1.13-2.93s0,0,0,0l1.68.62s0,0,0,.01h0ZM30.54,26.89l3.06,1.02s0,0,0,0l-.25.65-.65,1.68s0,0,0,0l-5.44-1.87c-.37-.13-.46-.26-.59-.52l-1.05-2.17s0,0,0,0c.97-.53,2.46-1.36,3.4-2.75,0,0,0,0,0,0l.52,2.7c.1.51.19.98.99,1.25h0ZM29.09,13.55c.08,0,.17.01.25.03,0,0,.01,0,.01,0,0,0,0,0,0,0,0,0,0,0,0,0,0,0,.02,0,.03,0,0,0,0,0,0,0l4.21,1.43c.38.13.65.48.67.88v4.16c0,.25-.1.49-.29.68-.19.19-.45.3-.71.3h0c-.53,0-.97-.45-.97-.99v-2.68s0-.04,0-.06c.03-.57-.31-.77-.52-.84l-3.02-1.03s0,0,0,0c-.25-.08-.45-.26-.56-.5-.12-.24-.13-.5-.05-.75.14-.41.52-.67.93-.67h0ZM22.23,1.44s0,0,0,0c1.51.62,2.7.61,3.68.6.64,0,1.18,0,1.68.16,2.16.76,2.49,2.63,2.34,4.2,0,0,0,0,0,0-.16-.18-.35-.34-.58-.49,0,0,0,0,0,0-.69-.84-1.65-1.6-2.93-1.7-1.04-.08-2.48-.38-3.4-1,0,0,0,0,0,0-.74-.49-.99-1.05-.77-1.78h0ZM22.11,6.74c0-.79.24-1.56.7-2.21,0,0,0,0,0,0,1.35.7,2.99.88,3.5.91,1.76.13,2.81,2.31,3.11,3.02,0,0,0,0,0,0-.4.84-.98,1.44-1.7,1.78-.5.23-1.09.35-1.75.35-.47,0-.96-.11-1.43-.33-1.21-.55-2.43-1.86-2.43-3.53ZM24.53,11.59s0,0,0,0c.48.16.97.24,1.44.24.65,0,1.24-.09,1.78-.27,0,0,0,0,0,0l.61.87s0,0,0,0c-.63.22-1.15.71-1.38,1.38-.19.56-.15,1.16.11,1.69.26.53.71.93,1.27,1.12l.98.33s0,0,0,0l-.63,3.17s0,0,0,0h-5.92s0,0,0,0v-5.81s-.01,0-.01,0l1.74-2.73ZM19.19,25.33c0-.53.2-.98.6-1.37l2.65-2.59s0,0,0,0h6s0,0,0,0c-.62,1.72-2.4,2.68-3.51,3.28-.16.08-.3.16-.43.23l-2,1.12c-.84.47-.99.71-.96,1.54,0,.1,0,.22,0,.36v2.62s.01,0,0,0h-2.36s0,0,0,0v-5.19h0ZM16.95,32.6c.55-.57,1.29-.84,1.62-.84h2.99s0,0,0,0v2.07s0,0,0,0h-5.25s0,0,0,0c.09-.46.3-.88.64-1.23h0ZM1.6,40.01v-9.43c0-.1.08-.18.18-.18h6.26c1.76,0,3.19,1.43,3.19,3.19v6.6s0,0,0,0H1.78c-.1,0-.18-.08-.18-.18ZM38.28,40.19H12.46s0,0,0,0v-1.94s0,0,0,0h25.87c.34,0,.64-.26.64-.6,0-.35-.27-.63-.62-.63H12.46s0,0,0,0v-1.94s0,0,0,0h14.06c.34,0,.64-.26.64-.6,0-.35-.27-.63-.62-.63h-3.75s0,0,0,0v-2.63s0-.06,0-.06c0,0,0,0,0,0,0,0,0,0,0,0v-3.24c-.01-.15-.02-.28-.02-.39,0-.04,0-.07,0-.11,0-.08.04-.15.1-.19.08-.05.18-.11.23-.13l1.43-.8s0,0,0,0l1.02,2.11c.21.44.52.88,1.3,1.15l5.48,1.88s0,0,0,0c-.07.66,0,1.63.32,2.4,0,0,0,0,0,0h-3.16c-.34,0-.64.26-.64.6,0,.35.27.63.62.63h8.81c1.41,0,2.56,1.15,2.56,2.56,0,1.41-1.15,2.56-2.56,2.56h0Z"/>
        <path class="cls-2" d="M6.31,36.23h-1.23c-.34,0-.64.26-.64.6,0,.35.27.63.62.63h1.23c.34,0,.64-.26.64-.6,0-.35-.27-.63-.62-.63Z"/>
        <path class="cls-2" d="M6.32,33.32h-1.23c-.34,0-.64.26-.64.6,0,.35.27.63.62.63h1.23c.34,0,.64-.26.64-.6,0-.35-.27-.63-.62-.63Z"/>
      </g>
      <g>
        <path class="cls-1" d="M38.28,33.84h-2.31s0,0,0,0l1.43-3.84c.02-.06.04-.11.06-.17.17-.44.36-.95.14-1.43-.13-.28-.37-.49-.73-.62l-2.25-.83s0,0,0,0c0,0,0,0,0,0l-3.68-1.23c-.06-.02-.09-.03-.11-.04,0,0,0,0,0,0-.02-.06-.04-.18-.06-.27l-.9-4.65h0s.67-3.39.67-3.39c0,0,0,0,0,0l.53.18s0,0,0,0v2.51c0,1.22.99,2.22,2.2,2.22h.01c.58,0,1.16-.24,1.58-.65.42-.42.65-.97.65-1.55v-4.18s0-.02,0-.02c-.04-.91-.64-1.71-1.5-2.01l-4.12-1.4s0,0,0,0l-1.01-1.46s0,0,0,0c.77-.52,1.37-1.28,1.79-2.27,0-.01.01-.03.02-.04,0,0,0,0,0,0,0,0,0,0,0,0,0,0,0,0,0,0,.58-1.77.67-3.39.25-4.69-.45-1.4-1.46-2.42-2.93-2.93-.7-.25-1.38-.24-2.1-.24-1.02,0-2.18.02-3.71-.74-.3-.15-.66-.03-.82.26-.72,1.33-.56,2.58.42,3.51,0,0,0,0,0,0-.59.85-.92,1.86-.92,2.91,0,1.7.99,3.36,2.53,4.31,0,0,0,0,0,0l-1.58,2.47s0,0,0,0h-1.32s0,0,0,0l-1.49-2.17c-.69-1-2.07-1.26-3.08-.57-.49.34-.82.85-.93,1.44-.1.58.02,1.17.36,1.64l2.33,3.29s0,0,0,0c.64.88,1.21.88,1.99.89h1.87s0,0,0,0v2.42s0,0,0,0l-2.64,2.58s0,0,0,0c-.64.63-.97,1.39-.97,2.26v5.28s0,0,0,0c-.6.16-1.31.52-1.89,1.13-.56.59-.9,1.3-1,2.09,0,0,0,0,0,0h-2.6s0,0,0,0v-.25c0-2.26-1.71-4.13-3.91-4.39,0,0,0,0,0,0v-11.17s0,0,0,0l1.14.65c.35.2.75.3,1.14.3.78,0,1.55-.38,1.99-1.07.33-.51.43-1.11.29-1.69-.14-.58-.51-1.07-1.04-1.36L3.48,9.97c-1.06-.6-2.47-.26-3.13.77-.33.51-.43,1.11-.29,1.69.14.58.51,1.06,1.04,1.36l2.8,1.59s0,0,0,0v6.06c0,.34.26.64.6.64.35,0,.63-.27.63-.62v-5.38s0,0,0,0l2.18,1.23s0,0,0,0v11.84s0,0,0,0h-2.18s0,0,0,0v-4.64c0-.34-.26-.64-.6-.64-.35,0-.63.27-.63.62v4.66s0,0,0,0H1.78c-.78,0-1.41.63-1.41,1.41v9.44c0,.78.63,1.41,1.41,1.41h36.51c2.09,0,3.79-1.7,3.79-3.79s-1.7-3.79-3.79-3.79h0ZM19.69,16.84c-.7,0-.72,0-.99-.38l-2.32-3.29c-.15-.21-.2-.46-.16-.72.05-.26.19-.49.41-.64.45-.31,1.06-.19,1.37.25l1.62,2.36c.21.31.45.35.68.35h1.25s0,0,0,0v2.07s0,0,0,0h-1.87ZM1.26,12.14c-.06-.25-.02-.51.13-.73.21-.32.58-.5.96-.5.18,0,.37.04.53.14l8.59,4.87h0c.23.13.39.34.45.59.06.25.02.51-.13.73-.31.48-.99.65-1.49.37L1.71,12.72c-.23-.13-.39-.34-.45-.58ZM36.46,28.95c-.03.12-.1.31-.15.44-.02.06-.05.12-.07.18l-1.59,4.27s0,0,0,0h-.37c-.06,0-.19,0-.35-.23-.43-.62-.45-1.95-.32-2.28l.03-.07s0,0,0,0l1.13-2.93s0,0,0,0l1.68.62s0,0,0,.01h0ZM30.54,26.89l3.06,1.02s0,0,0,0l-.25.65-.65,1.68s0,0,0,0l-5.44-1.87c-.37-.13-.46-.26-.59-.52l-1.05-2.17s0,0,0,0c.97-.53,2.46-1.36,3.4-2.75,0,0,0,0,0,0l.52,2.7c.1.51.19.98.99,1.25h0ZM29.09,13.55c.08,0,.17.01.25.03,0,0,.01,0,.01,0,0,0,0,0,0,0,0,0,0,0,0,0,0,0,.02,0,.03,0,0,0,0,0,0,0l4.21,1.43c.38.13.65.48.67.88v4.16c0,.25-.1.49-.29.68-.19.19-.45.3-.71.3h0c-.53,0-.97-.45-.97-.99v-2.68s0-.04,0-.06c.03-.57-.31-.77-.52-.84l-3.02-1.03s0,0,0,0c-.25-.08-.45-.26-.56-.5-.12-.24-.13-.5-.05-.75.14-.41.52-.67.93-.67h0ZM22.23,1.44s0,0,0,0c1.51.62,2.7.61,3.68.6.64,0,1.18,0,1.68.16,2.16.76,2.49,2.63,2.34,4.2,0,0,0,0,0,0-.16-.18-.35-.34-.58-.49,0,0,0,0,0,0-.69-.84-1.65-1.6-2.93-1.7-1.04-.08-2.48-.38-3.4-1,0,0,0,0,0,0-.74-.49-.99-1.05-.77-1.78h0ZM22.11,6.74c0-.79.24-1.56.7-2.21,0,0,0,0,0,0,1.35.7,2.99.88,3.5.91,1.76.13,2.81,2.31,3.11,3.02,0,0,0,0,0,0-.4.84-.98,1.44-1.7,1.78-.5.23-1.09.35-1.75.35-.47,0-.96-.11-1.43-.33-1.21-.55-2.43-1.86-2.43-3.53ZM24.53,11.59s0,0,0,0c.48.16.97.24,1.44.24.65,0,1.24-.09,1.78-.27,0,0,0,0,0,0l.61.87s0,0,0,0c-.63.22-1.15.71-1.38,1.38-.19.56-.15,1.16.11,1.69.26.53.71.93,1.27,1.12l.98.33s0,0,0,0l-.63,3.17s0,0,0,0h-5.92s0,0,0,0v-5.81s-.01,0-.01,0l1.74-2.73ZM19.19,25.33c0-.53.2-.98.6-1.37l2.65-2.59s0,0,0,0h6s0,0,0,0c-.62,1.72-2.4,2.68-3.51,3.28-.16.08-.3.16-.43.23l-2,1.12c-.84.47-.99.71-.96,1.54,0,.1,0,.22,0,.36v2.62s.01,0,0,0h-2.36s0,0,0,0v-5.19h0ZM16.95,32.6c.55-.57,1.29-.84,1.62-.84h2.99s0,0,0,0v2.07s0,0,0,0h-5.25s0,0,0,0c.09-.46.3-.88.64-1.23h0ZM1.6,40.01v-9.43c0-.1.08-.18.18-.18h6.26c1.76,0,3.19,1.43,3.19,3.19v6.6s0,0,0,0H1.78c-.1,0-.18-.08-.18-.18ZM38.28,40.19H12.46s0,0,0,0v-1.94s0,0,0,0h25.87c.34,0,.64-.26.64-.6,0-.35-.27-.63-.62-.63H12.46s0,0,0,0v-1.94s0,0,0,0h14.06c.34,0,.64-.26.64-.6,0-.35-.27-.63-.62-.63h-3.75s0,0,0,0v-2.63s0-.06,0-.06c0,0,0,0,0,0,0,0,0,0,0,0v-3.24c-.01-.15-.02-.28-.02-.39,0-.04,0-.07,0-.11,0-.08.04-.15.1-.19.08-.05.18-.11.23-.13l1.43-.8s0,0,0,0l1.02,2.11c.21.44.52.88,1.3,1.15l5.48,1.88s0,0,0,0c-.07.66,0,1.63.32,2.4,0,0,0,0,0,0h-3.16c-.34,0-.64.26-.64.6,0,.35.27.63.62.63h8.81c1.41,0,2.56,1.15,2.56,2.56,0,1.41-1.15,2.56-2.56,2.56h0Z"/>
        <path class="cls-1" d="M6.31,36.23h-1.23c-.34,0-.64.26-.64.6,0,.35.27.63.62.63h1.23c.34,0,.64-.26.64-.6,0-.35-.27-.63-.62-.63Z"/>
        <path class="cls-1" d="M6.32,33.32h-1.23c-.34,0-.64.26-.64.6,0,.35.27.63.62.63h1.23c.34,0,.64-.26.64-.6,0-.35-.27-.63-.62-.63Z"/>
      </g>
    </g>
  </g>
</svg>