<?xml version="1.0" encoding="UTF-8"?>
<svg id="Layer_2" data-name="Layer 2" xmlns="http://www.w3.org/2000/svg" viewBox="0 0 45.19 32.01">
  <defs>
    <style>
      .cls-1 {
        fill: #c7ada8;
      }
    </style>
  </defs>
  <g id="Layer_1-2" data-name="Layer 1">
    <path class="cls-1" d="M44.25,0H.94C.42,0,0,.42,0,.94v30.13c0,.52.42.94.94.94h43.31c.52,0,.94-.42.94-.94V.94c0-.52-.42-.94-.94-.94ZM43.31,12.24h-5.65c-2.08,0-3.77,1.69-3.77,3.77s1.69,3.77,3.77,3.77h5.65v2.82h-6.59c-3.63,0-6.59-2.96-6.59-6.59s2.96-6.59,6.59-6.59h6.59v2.82ZM35.77,16c0-1.04.85-1.88,1.88-1.88v3.77c-1.04,0-1.88-.85-1.88-1.88ZM39.54,14.12h3.77v3.77h-3.77v-3.77ZM22.59,17.89c-1.04,0-1.88-.85-1.88-1.88s.85-1.88,1.88-1.88,1.88.85,1.88,1.88-.85,1.88-1.88,1.88ZM9.41,16c0,1.04-.85,1.88-1.88,1.88v-3.77c1.04,0,1.88.85,1.88,1.88ZM5.65,17.89H1.88v-3.77h3.77v3.77ZM1.88,19.77h5.65c2.08,0,3.77-1.69,3.77-3.77s-1.69-3.77-3.77-3.77H1.88v-2.82h6.59c3.63,0,6.59,2.96,6.59,6.59s-2.96,6.59-6.59,6.59H1.88v-2.82ZM1.88,24.48h6.59c4.67,0,8.47-3.8,8.47-8.47s-3.8-8.47-8.47-8.47H1.88V1.88h19.77v10.49c-1.62.42-2.82,1.88-2.82,3.63s1.21,3.21,2.82,3.63v10.49H1.88v-5.65ZM23.54,30.13v-10.49c1.62-.42,2.82-1.88,2.82-3.63s-1.21-3.21-2.82-3.63V1.88h19.77v5.65h-6.59c-4.67,0-8.47,3.8-8.47,8.47s3.8,8.47,8.47,8.47h6.59v5.65h-19.77Z"/>
  </g>
</svg>