<?xml version="1.0" encoding="UTF-8"?>
<svg id="Layer_2" data-name="Layer 2" xmlns="http://www.w3.org/2000/svg" viewBox="0 0 37.89 37.97">
  <defs>
    <style>
      .cls-1 {
        fill: #c7ada8;
      }

      .cls-2 {
        fill: #010101;
      }
    </style>
  </defs>
  <g id="Layer_1-2" data-name="Layer 1">
    <g>
      <g>
        <circle class="cls-2" cx="36.63" cy="34.18" r="1.26"/>
        <path class="cls-2" d="M23.37,21.55h0s0,0,0,0h0Z"/>
        <path class="cls-2" d="M7.84,17.13l.89.89,1.27-2.03-.92-.09-1.24,1.24Z"/>
        <path class="cls-2" d="M3.98,16.11l1.19,1.9.89-.89-1.22-1.22c-.29.05-.58.11-.86.2Z"/>
        <path class="cls-2" d="M10.74,6.97c-1.04-.16-1.98-.7-2.64-1.53-1.26,1.02-2.82,1.58-4.46,1.58h-.48v2.71c0,1.2.67,2.28,1.75,2.82l.08.04c.43.22.7.65.7,1.13v1.24l1.26,1.26,1.26-1.26v-1.24c0-.48.27-.92.7-1.13l.08-.04c1.08-.54,1.75-1.62,1.75-2.82v-2.76Z"/>
        <path class="cls-2" d="M1.26,8.28h.63v-1.26h-.63c-.35,0-.63.28-.63.63s.28.63.63.63Z"/>
        <path class="cls-2" d="M3.16,21.47c0-.49-.27-.93-.71-1.15l-.2-.1.56-1.13.2.1c.87.44,1.41,1.31,1.41,2.28v.77l5.45.55c.44-.39,1.01-.61,1.6-.61.18,0,.35.02.52.06v-3.85h1.26v3c.06-.02.11-.04.17-.06l1.22-.31c.41-1.15,1.32-2.03,2.45-2.41-1.72-1.22-3.66-2.05-5.74-2.43l-2.41,3.86-2.01-2.01-2.01,2.01-2.12-3.39C1.12,17.65,0,19.49,0,21.58v.05l3.16.45v-.61Z"/>
        <path class="cls-2" d="M12.63,7.02h-.63v1.26h.63c.35,0,.63-.28.63-.63s-.28-.63-.63-.63Z"/>
        <path class="cls-2" d="M17.18,26.77c.04.43.24.84.57,1.13l4.78-2.39-.65-1.09-4.69,2.35Z"/>
        <path class="cls-2" d="M23.8,25.18c.05.08.11.13.19.15.05.01.12.01.2-.04.44-.31.57-.97.29-1.46l-.34-.56c-.14-.23-.35-.39-.59-.44-.06-.01-.12-.02-.18-.02-.17,0-.33.05-.48.15-.16.11-.2.36-.1.54l1.01,1.68Z"/>
        <path class="cls-2" d="M1.26,5.76h2.37c1.56,0,3.02-.61,4.13-1.71l.55-.55.64.96c.54.81,1.45,1.3,2.42,1.3h1.26c.19,0,.37.04.55.09.06-.24.09-.48.09-.72v-.63c0-1.74-1.42-3.16-3.16-3.16H3.79c-1.74,0-3.16,1.42-3.16,3.16,0,.45.1.89.28,1.3.11-.02.23-.04.35-.04Z"/>
        <path class="cls-2" d="M32.36,31.72l-5.76-3.1c-.26-.14-.53-.3-.78-.47-.66-.44-1.26-.97-1.79-1.55-.1,0-.2-.01-.31-.03-.1-.02-.19-.05-.28-.09l-4.49,2.25v6.09c0,.27-.17.51-.43.6l-.7.23c-.46.15-.77.58-.77,1.06h1.63c.29-.46.72-.82,1.26-1l.26-.09v-4.06c0-.96.54-1.83,1.4-2.26l.22-.11.57,1.13-.22.11c-.43.22-.7.65-.7,1.13v4.97l-1.13.38c-.46.15-.77.58-.77,1.06h3.16v-6.32h1.26v2.34c.75.49,1.91,1,3.69,1.26-.33-.39-.53-.88-.53-1.42,0-1.22.97-2.19,2.16-2.19h1v1.26h-1c-.49,0-.89.4-.89.89,0,.39.2.71.51.87l1.66.83c.26.13.4.43.33.71s-.32.49-.62.49h-2.53c-.7,0-1.26.57-1.26,1.26h4.26c1.83,0,3.32-1.49,3.32-3.32,0-1.22-.67-2.34-1.75-2.92h0Z"/>
        <path class="cls-2" d="M.01,22.91c.05,1.69,1.44,3.06,3.15,3.06h8.32c.64,0,1.15-.52,1.15-1.15v-.22c0-.64-.52-1.15-1.15-1.15-.3,0-.6.12-.82.34l-.32.32-7.18-.72v-.02L.01,22.91Z"/>
        <path class="cls-2" d="M12,35.44c.45,0,.88.1,1.26.27v-5.32c0-1.74-1.42-3.16-3.16-3.16h-.7c.82.8,1.33,1.92,1.33,3.16v5.32c.39-.17.82-.27,1.26-.27Z"/>
        <path class="cls-2" d="M21.48,23.21c.01-.32.12-.63.3-.89-.08-.33-.14-.67-.19-1l-.12-.95c-.01-.08,0-.16.01-.23.21-.86-.17-1.73-.9-2.17l-.42,1.26c-.09.26-.33.43-.6.43h-1.19c-1.24,0-2.32.84-2.62,2.05-.06.23-.23.4-.46.46l-1.57.39c-.23.06-.4.24-.45.46.15.17.28.36.38.57l2.16.31c.81.12,1.56.51,2.11,1.1l3.55-1.77ZM17.68,20.92c0-.35.28-.63.63-.63s.63.28.63.63-.28.63-.63.63-.63-.28-.63-.63Z"/>
        <path class="cls-2" d="M12,36.7c-.38,0-.75.12-1.06.33.17.29.3.6.37.93h2.48c-.26-.74-.96-1.26-1.79-1.26Z"/>
        <path class="cls-2" d="M0,32.28v1.26h5.68v-1.26H0Z"/>
        <path class="cls-2" d="M8.21,36.7c-.82,0-1.53.53-1.79,1.26h3.57c-.26-.74-.96-1.26-1.79-1.26Z"/>
        <path class="cls-2" d="M6.95,35.71c.39-.17.81-.27,1.26-.27s.88.1,1.26.27v-5.32c0-1.74-1.42-3.16-3.16-3.16h-3.16c-.68,0-1.32-.16-1.89-.43v1.06c0,1.74,1.42,3.16,3.16,3.16h2.53v4.69Z"/>
        <path class="cls-2" d="M33.67,15.2l-.2.07-.2-.07c-.15-.05-.29-.1-.43-.16v6.51h-9.47c.15,0,.3.02.45.05.58.13,1.08.49,1.4,1.03l.11.19h12.56v-1.26h-3.79v-6.51c-.14.06-.28.11-.43.16h0Z"/>
        <path class="cls-2" d="M34.1,6.39v8.65c2.28-.95,3.79-3.19,3.79-5.69v-.79c0-2.35-1.31-4.47-3.41-5.52l-1.01-.5-1.01.5c-2.1,1.05-3.41,3.17-3.41,5.52v.79c0,2.51,1.5,4.74,3.79,5.69V6.39h1.26Z"/>
        <path class="cls-2" d="M21.47,12.51V3.86h1.26v8.65c2.28-.95,3.79-3.19,3.79-5.69v-.79c0-2.35-1.31-4.47-3.41-5.52l-1.01-.5-1.01.5c-2.1,1.05-3.41,3.17-3.41,5.52v.79c0,2.51,1.5,4.74,3.79,5.69Z"/>
        <path class="cls-2" d="M22.1,12.74l-.2-.07c-.15-.05-.29-.1-.43-.16v4.53c.66.48,1.1,1.16,1.26,1.92v-6.46c-.14.06-.28.11-.43.16l-.2.07Z"/>
      </g>
      <g>
        <circle class="cls-1" cx="36.63" cy="34.18" r="1.26"/>
        <path class="cls-1" d="M23.37,21.55h0s0,0,0,0h0Z"/>
        <path class="cls-1" d="M7.84,17.13l.89.89,1.27-2.03-.92-.09-1.24,1.24Z"/>
        <path class="cls-1" d="M3.98,16.11l1.19,1.9.89-.89-1.22-1.22c-.29.05-.58.11-.86.2Z"/>
        <path class="cls-1" d="M10.74,6.97c-1.04-.16-1.98-.7-2.64-1.53-1.26,1.02-2.82,1.58-4.46,1.58h-.48v2.71c0,1.2.67,2.28,1.75,2.82l.08.04c.43.22.7.65.7,1.13v1.24l1.26,1.26,1.26-1.26v-1.24c0-.48.27-.92.7-1.13l.08-.04c1.08-.54,1.75-1.62,1.75-2.82v-2.76Z"/>
        <path class="cls-1" d="M1.26,8.28h.63v-1.26h-.63c-.35,0-.63.28-.63.63s.28.63.63.63Z"/>
        <path class="cls-1" d="M3.16,21.47c0-.49-.27-.93-.71-1.15l-.2-.1.56-1.13.2.1c.87.44,1.41,1.31,1.41,2.28v.77l5.45.55c.44-.39,1.01-.61,1.6-.61.18,0,.35.02.52.06v-3.85h1.26v3c.06-.02.11-.04.17-.06l1.22-.31c.41-1.15,1.32-2.03,2.45-2.41-1.72-1.22-3.66-2.05-5.74-2.43l-2.41,3.86-2.01-2.01-2.01,2.01-2.12-3.39C1.12,17.65,0,19.49,0,21.58v.05l3.16.45v-.61Z"/>
        <path class="cls-1" d="M12.63,7.02h-.63v1.26h.63c.35,0,.63-.28.63-.63s-.28-.63-.63-.63Z"/>
        <path class="cls-1" d="M17.18,26.77c.04.43.24.84.57,1.13l4.78-2.39-.65-1.09-4.69,2.35Z"/>
        <path class="cls-1" d="M23.8,25.18c.05.08.11.13.19.15.05.01.12.01.2-.04.44-.31.57-.97.29-1.46l-.34-.56c-.14-.23-.35-.39-.59-.44-.06-.01-.12-.02-.18-.02-.17,0-.33.05-.48.15-.16.11-.2.36-.1.54l1.01,1.68Z"/>
        <path class="cls-1" d="M1.26,5.76h2.37c1.56,0,3.02-.61,4.13-1.71l.55-.55.64.96c.54.81,1.45,1.3,2.42,1.3h1.26c.19,0,.37.04.55.09.06-.24.09-.48.09-.72v-.63c0-1.74-1.42-3.16-3.16-3.16H3.79c-1.74,0-3.16,1.42-3.16,3.16,0,.45.1.89.28,1.3.11-.02.23-.04.35-.04Z"/>
        <path class="cls-1" d="M32.36,31.72l-5.76-3.1c-.26-.14-.53-.3-.78-.47-.66-.44-1.26-.97-1.79-1.55-.1,0-.2-.01-.31-.03-.1-.02-.19-.05-.28-.09l-4.49,2.25v6.09c0,.27-.17.51-.43.6l-.7.23c-.46.15-.77.58-.77,1.06h1.63c.29-.46.72-.82,1.26-1l.26-.09v-4.06c0-.96.54-1.83,1.4-2.26l.22-.11.57,1.13-.22.11c-.43.22-.7.65-.7,1.13v4.97l-1.13.38c-.46.15-.77.58-.77,1.06h3.16v-6.32h1.26v2.34c.75.49,1.91,1,3.69,1.26-.33-.39-.53-.88-.53-1.42,0-1.22.97-2.19,2.16-2.19h1v1.26h-1c-.49,0-.89.4-.89.89,0,.39.2.71.51.87l1.66.83c.26.13.4.43.33.71s-.32.49-.62.49h-2.53c-.7,0-1.26.57-1.26,1.26h4.26c1.83,0,3.32-1.49,3.32-3.32,0-1.22-.67-2.34-1.75-2.92h0Z"/>
        <path class="cls-1" d="M.01,22.91c.05,1.69,1.44,3.06,3.15,3.06h8.32c.64,0,1.15-.52,1.15-1.15v-.22c0-.64-.52-1.15-1.15-1.15-.3,0-.6.12-.82.34l-.32.32-7.18-.72v-.02L.01,22.91Z"/>
        <path class="cls-1" d="M12,35.44c.45,0,.88.1,1.26.27v-5.32c0-1.74-1.42-3.16-3.16-3.16h-.7c.82.8,1.33,1.92,1.33,3.16v5.32c.39-.17.82-.27,1.26-.27Z"/>
        <path class="cls-1" d="M21.48,23.21c.01-.32.12-.63.3-.89-.08-.33-.14-.67-.19-1l-.12-.95c-.01-.08,0-.16.01-.23.21-.86-.17-1.73-.9-2.17l-.42,1.26c-.09.26-.33.43-.6.43h-1.19c-1.24,0-2.32.84-2.62,2.05-.06.23-.23.4-.46.46l-1.57.39c-.23.06-.4.24-.45.46.15.17.28.36.38.57l2.16.31c.81.12,1.56.51,2.11,1.1l3.55-1.77ZM17.68,20.92c0-.35.28-.63.63-.63s.63.28.63.63-.28.63-.63.63-.63-.28-.63-.63Z"/>
        <path class="cls-1" d="M12,36.7c-.38,0-.75.12-1.06.33.17.29.3.6.37.93h2.48c-.26-.74-.96-1.26-1.79-1.26Z"/>
        <path class="cls-1" d="M0,32.28v1.26h5.68v-1.26H0Z"/>
        <path class="cls-1" d="M8.21,36.7c-.82,0-1.53.53-1.79,1.26h3.57c-.26-.74-.96-1.26-1.79-1.26Z"/>
        <path class="cls-1" d="M6.95,35.71c.39-.17.81-.27,1.26-.27s.88.1,1.26.27v-5.32c0-1.74-1.42-3.16-3.16-3.16h-3.16c-.68,0-1.32-.16-1.89-.43v1.06c0,1.74,1.42,3.16,3.16,3.16h2.53v4.69Z"/>
        <path class="cls-1" d="M33.67,15.2l-.2.07-.2-.07c-.15-.05-.29-.1-.43-.16v6.51h-9.47c.15,0,.3.02.45.05.58.13,1.08.49,1.4,1.03l.11.19h12.56v-1.26h-3.79v-6.51c-.14.06-.28.11-.43.16h0Z"/>
        <path class="cls-1" d="M34.1,6.39v8.65c2.28-.95,3.79-3.19,3.79-5.69v-.79c0-2.35-1.31-4.47-3.41-5.52l-1.01-.5-1.01.5c-2.1,1.05-3.41,3.17-3.41,5.52v.79c0,2.51,1.5,4.74,3.79,5.69V6.39h1.26Z"/>
        <path class="cls-1" d="M21.47,12.51V3.86h1.26v8.65c2.28-.95,3.79-3.19,3.79-5.69v-.79c0-2.35-1.31-4.47-3.41-5.52l-1.01-.5-1.01.5c-2.1,1.05-3.41,3.17-3.41,5.52v.79c0,2.51,1.5,4.74,3.79,5.69Z"/>
        <path class="cls-1" d="M22.1,12.74l-.2-.07c-.15-.05-.29-.1-.43-.16v4.53c.66.48,1.1,1.16,1.26,1.92v-6.46c-.14.06-.28.11-.43.16l-.2.07Z"/>
      </g>
    </g>
  </g>
</svg>