<?xml version="1.0" encoding="UTF-8"?>
<svg id="Layer_2" data-name="Layer 2" xmlns="http://www.w3.org/2000/svg" viewBox="0 0 41.86 41.86">
  <defs>
    <style>
      .cls-1 {
        fill: #c7ada8;
      }

      .cls-2 {
        fill: #010101;
      }
    </style>
  </defs>
  <g id="Layer_1-2" data-name="Layer 1">
    <g>
      <path class="cls-2" d="M39.39,8.37l-2.15-1.29,2.07-2.94c.41-.56.23-1.41-.37-1.76l-1.18-.71c-3.51-2.11-7.91-2.23-11.51-.31-2.55,1.36-4.59,3.39-6.05,6.02-1.01,1.82-1.73,3.93-2.12,6.26,0,0,0,.01,0,.02,0,.05-.16,1.06-.31,2.24-2.15-.03-4.3-.24-6.41-.64-1.39-.26-2.78-.07-3.99.49v-1.69c.04-1.98-1.7-3.72-3.68-3.68C1.65,10.39,0,12.04,0,14.07v1.51c0,.68.55,1.23,1.23,1.23s1.23-.55,1.23-1.23v-1.51c0-.68.55-1.23,1.23-1.23.66-.01,1.24.57,1.23,1.23v3.6c-.57.71-1,1.55-1.24,2.48,0,.01,0,.03-.01.04l-2.36,10.73L.04,35.77c-.19.67.29,1.42.98,1.52l5.38.91c.67.13,1.37-.4,1.42-1.08.26-2.56,1.46-4.92,3.37-6.66,1.62-1.47,3.64-2.39,5.8-2.64v6.68h-2.19c-2.49,0-4.52,2.03-4.52,4.52v1.62c0,.68.55,1.23,1.23,1.23h13.42c.68,0,1.23-.55,1.23-1.23v-1.62c0-2.49-2.03-4.52-4.52-4.52h-2.19v-6.68c2.15.25,4.18,1.17,5.8,2.64,1.91,1.74,3.11,4.1,3.37,6.66.06.69.75,1.21,1.42,1.08l5.38-.91c.69-.1,1.17-.84.98-1.52l-1.27-4.88s0,0,0,0l-2.35-9.07s0,0,0,0v-.04c-.62-2.52-.71-5.38.22-6.19l3.14.97c.42.13.86.2,1.31.2,1.81,0,3.46-1.13,4.12-2.82.83-2.13-.12-4.56-2.17-5.57h0ZM23.71,39.01v.4h-10.97v-.4c0-1.14.93-2.07,2.07-2.07h6.83c1.14,0,2.07.93,2.07,2.07h0ZM22.35,8.57c1.23-2.22,2.93-3.91,5.06-5.05,2.85-1.52,6.36-1.41,9.14.28l-1.42,2.01c-1.98-1.15-4.55-1.22-6.57-.12-2.7,1.44-5.56,4.78-5.92,9.96-.8.1-1.6.17-2.4.21.13-.94.24-1.71.26-1.81.35-2.06.97-3.9,1.85-5.47h0ZM2.75,35.09l.64-2.48,2.96.5c-.34.79-.6,1.61-.77,2.46l-2.83-.48ZM30.86,35.56c-.17-.85-.43-1.67-.77-2.46l2.96-.5.64,2.48-2.83.48ZM39.28,13.05c-.35.94-1.45,1.48-2.41,1.16l-3.63-1.12c-.28-.08-.58-.07-.85.04-2.14.82-2.56,3.3-2.53,5.25.03,1.7.38,3.34.53,3.97h0s0,.04.01.05l2.03,7.82-3.61.61c-.55-.8-1.2-1.54-1.93-2.2-2.38-2.16-5.46-3.35-8.67-3.35,0,0,0,0,0,0s0,0,0,0c-3.21,0-6.29,1.19-8.67,3.35-.73.66-1.38,1.4-1.93,2.2l-3.65-.62,2.08-9.47c.56-2.13,2.69-3.48,4.85-3.07,4.31.82,8.78.91,13.12.26.59-.08,1.05-.62,1.05-1.21,0-4.71,2.4-7.67,4.66-8.87,1.17-.62,2.57-.66,3.78-.12.16.07,4.68,2.77,4.68,2.77.98.42,1.49,1.54,1.1,2.55Z"/>
      <path class="cls-1" d="M39.39,8.37l-2.15-1.29,2.07-2.94c.41-.56.23-1.41-.37-1.76l-1.18-.71c-3.51-2.11-7.91-2.23-11.51-.31-2.55,1.36-4.59,3.39-6.05,6.02-1.01,1.82-1.73,3.93-2.12,6.26,0,0,0,.01,0,.02,0,.05-.16,1.06-.31,2.24-2.15-.03-4.3-.24-6.41-.64-1.39-.26-2.78-.07-3.99.49v-1.69c.04-1.98-1.7-3.72-3.68-3.68C1.65,10.39,0,12.04,0,14.07v1.51c0,.68.55,1.23,1.23,1.23s1.23-.55,1.23-1.23v-1.51c0-.68.55-1.23,1.23-1.23.66-.01,1.24.57,1.23,1.23v3.6c-.57.71-1,1.55-1.24,2.48,0,.01,0,.03-.01.04l-2.36,10.73L.04,35.77c-.19.67.29,1.42.98,1.52l5.38.91c.67.13,1.37-.4,1.42-1.08.26-2.56,1.46-4.92,3.37-6.66,1.62-1.47,3.64-2.39,5.8-2.64v6.68h-2.19c-2.49,0-4.52,2.03-4.52,4.52v1.62c0,.68.55,1.23,1.23,1.23h13.42c.68,0,1.23-.55,1.23-1.23v-1.62c0-2.49-2.03-4.52-4.52-4.52h-2.19v-6.68c2.15.25,4.18,1.17,5.8,2.64,1.91,1.74,3.11,4.1,3.37,6.66.06.69.75,1.21,1.42,1.08l5.38-.91c.69-.1,1.17-.84.98-1.52l-1.27-4.88s0,0,0,0l-2.35-9.07s0,0,0,0v-.04c-.62-2.52-.71-5.38.22-6.19l3.14.97c.42.13.86.2,1.31.2,1.81,0,3.46-1.13,4.12-2.82.83-2.13-.12-4.56-2.17-5.57h0ZM23.71,39.01v.4h-10.97v-.4c0-1.14.93-2.07,2.07-2.07h6.83c1.14,0,2.07.93,2.07,2.07h0ZM22.35,8.57c1.23-2.22,2.93-3.91,5.06-5.05,2.85-1.52,6.36-1.41,9.14.28l-1.42,2.01c-1.98-1.15-4.55-1.22-6.57-.12-2.7,1.44-5.56,4.78-5.92,9.96-.8.1-1.6.17-2.4.21.13-.94.24-1.71.26-1.81.35-2.06.97-3.9,1.85-5.47h0ZM2.75,35.09l.64-2.48,2.96.5c-.34.79-.6,1.61-.77,2.46l-2.83-.48ZM30.86,35.56c-.17-.85-.43-1.67-.77-2.46l2.96-.5.64,2.48-2.83.48ZM39.28,13.05c-.35.94-1.45,1.48-2.41,1.16l-3.63-1.12c-.28-.08-.58-.07-.85.04-2.14.82-2.56,3.3-2.53,5.25.03,1.7.38,3.34.53,3.97h0s0,.04.01.05l2.03,7.82-3.61.61c-.55-.8-1.2-1.54-1.93-2.2-2.38-2.16-5.46-3.35-8.67-3.35,0,0,0,0,0,0s0,0,0,0c-3.21,0-6.29,1.19-8.67,3.35-.73.66-1.38,1.4-1.93,2.2l-3.65-.62,2.08-9.47c.56-2.13,2.69-3.48,4.85-3.07,4.31.82,8.78.91,13.12.26.59-.08,1.05-.62,1.05-1.21,0-4.71,2.4-7.67,4.66-8.87,1.17-.62,2.57-.66,3.78-.12.16.07,4.68,2.77,4.68,2.77.98.42,1.49,1.54,1.1,2.55Z"/>
    </g>
  </g>
</svg>