<?xml version="1.0" encoding="UTF-8"?>
<svg id="Layer_2" data-name="Layer 2" xmlns="http://www.w3.org/2000/svg" viewBox="0 0 35.1 35.1">
  <defs>
    <style>
      .cls-1 {
        fill: #c7ada8;
      }
    </style>
  </defs>
  <g id="Layer_1-2" data-name="Layer 1">
    <path class="cls-1" d="M33.97,28.31h-3.4v-2.26c.62,0,1.13-.51,1.13-1.13v-1.13c0-.62-.51-1.13-1.13-1.13h-1.13v-7.93c.62,0,1.13-.51,1.13-1.13v-.56c0-1.26-.84-2.38-2.05-2.72l-1.36-.39c-.46-.13-.84-.45-1.05-.87l-.27-.53c-.31-.62-.83-1.08-1.46-1.34.34-.42.53-.95.53-1.51,0-.62-.51-1.13-1.13-1.13h-1.13v-1.13c0-.62-.51-1.13-1.13-1.13h-1.13v-1.13c0-.62-.51-1.13-1.13-1.13h-3.4c-.62,0-1.13.51-1.13,1.13v1.13h-1.13c-.62,0-1.13.51-1.13,1.13v1.13h-1.13c-.62,0-1.13.51-1.13,1.13,0,.56.19,1.09.53,1.51-.63.26-1.15.72-1.46,1.34l-.27.53c-.21.43-.6.74-1.05.87l-1.36.39c-1.21.35-2.05,1.47-2.05,2.72v.56c0,.62.51,1.13,1.13,1.13v7.93h-1.13c-.62,0-1.13.51-1.13,1.13v1.13c0,.62.51,1.13,1.13,1.13v2.26H1.13c-.62,0-1.13.51-1.13,1.13v1.13c0,.62.51,1.13,1.13,1.13v3.4h32.84v-3.4c.62,0,1.13-.51,1.13-1.13v-1.13c0-.62-.51-1.13-1.13-1.13ZM29.44,28.31h-5.66v-2.26h5.66v2.26ZM20.38,7.93v1.13h-5.66v-1.13h5.66ZM21.5,13.59c-.05-.42-.23-.82-.51-1.13h1.65v1.13h-1.15ZM17.51,10.19c.43,0,.8.29.91.71l.14.57c.13.5.43.93.86,1.22l.55.37c.19.13.33.32.39.54h-5.63v-.98c0-.29.13-.55.35-.73l1.86-1.49c.17-.13.37-.2.58-.2ZM19.72,11.32s-.05-.09-.06-.13l-.14-.57c-.04-.15-.1-.3-.17-.43h2.17v1.13h-1.79ZM15.37,10.19l-1.01.81c-.12.1-.23.21-.33.33h-.45v-1.13h1.78ZM13.61,12.46c0,.05-.02.1-.02.16v.98h-1.13v-1.13h1.15ZM23.78,14.72v1.13h-12.46v-1.13h12.46ZM20.38,16.99v5.66h-5.66v-5.66h5.66ZM21.51,16.99h1.13v5.66h-1.13v-5.66ZM13.59,16.99v5.66h-1.13v-5.66h1.13ZM22.65,23.78v1.13h-10.19v-1.13h10.19ZM22.65,26.04v1.13h-10.19v-1.13h10.19ZM12.46,29.44v-1.13h10.19v1.13h-10.19ZM22.65,30.57v1.13h-10.19v-1.13h10.19ZM12.46,32.84h10.19v1.13h-10.19v-1.13ZM30.57,24.91h-6.8v-1.13h6.79v1.13ZM28.31,22.65h-4.53v-5.66c.62,0,1.13-.51,1.13-1.13v-1.13h3.4v7.93h0ZM24.83,9.02l.27.53c.35.71.99,1.24,1.76,1.46l1.36.39c.73.21,1.23.88,1.23,1.63v.56h-5.66v-1.13c0-.62-.51-1.13-1.13-1.13v-1.13c0-.62-.51-1.13-1.13-1.13v-1.13h1.61l.72.24c.43.14.78.45.98.85ZM15.85,1.13h3.4v1.13h-3.4v-1.13h0ZM13.59,3.4h7.93v1.13h-7.93v-1.13ZM23.78,5.66c0,.48-.27.92-.7,1.13h-11.06c-.43-.22-.7-.65-.7-1.13h12.46ZM5.66,13.03c0-.75.51-1.43,1.23-1.63l1.36-.39c.76-.22,1.4-.75,1.76-1.46l.27-.53c.2-.41.55-.71.98-.85l.72-.24h1.61v1.13c-.62,0-1.13.51-1.13,1.13v1.13c-.62,0-1.13.51-1.13,1.13v1.13h-5.66v-.56ZM6.79,14.72h3.4v1.13c0,.62.51,1.13,1.13,1.13v5.66h-4.53v-7.93ZM4.53,23.78h6.79v1.13h-6.79v-1.13ZM5.66,26.04h5.66v2.26h-5.66v-2.26ZM1.13,29.44h10.19v1.13H1.13v-1.13ZM2.26,31.71h9.06v2.26H2.26v-2.26ZM32.84,33.97h-9.06v-2.26h9.06v2.26ZM33.97,30.57h-10.19v-1.13h10.19v1.13Z"/>
  </g>
</svg>