<?xml version="1.0" encoding="UTF-8"?>
<svg id="Layer_2" data-name="Layer 2" xmlns="http://www.w3.org/2000/svg" viewBox="0 0 35.37 35.97">
  <defs>
    <style>
      .cls-1 {
        fill: #c7ada8;
      }

      .cls-2 {
        fill: #010101;
      }
    </style>
  </defs>
  <g id="Layer_1-2" data-name="Layer 1">
    <g>
      <g>
        <path class="cls-2" d="M5.19,17.68c-1,1.07-.6,2.79.51,3.16,1.22.41,3.5-2.2,2.36-2.16-.06,0-.13,0-.19,0l-.41.18c-.16.07-.33.1-.5.1-.51,0-.97-.3-1.17-.77-.09-.2-.12-.41-.1-.62-.17-.07-.37-.02-.51.12h0ZM6.17,19.11c.17,0,.3.14.3.3s-.14.3-.3.3-.3-.14-.3-.3.14-.3.3-.3Z"/>
        <path class="cls-2" d="M15.77,10.1c-.1,0-.19.03-.28.06-.2.05-.38.16-.52.33l-3.39,4.13-5.01,2.16c-.5.21-.73.79-.52,1.29.16.37.52.6.91.6.13,0,.26-.03.39-.08l5.23-2.25c.14-.06.27-.16.37-.28l2.04-2.49.31,6.59-.35.28-3.25,2.6c-.32.25-.52.62-.57,1.02l-.91,7.76c-.1.84.5,1.61,1.35,1.71.06,0,.12.01.18.01.77,0,1.43-.58,1.53-1.36l.84-7.13,4.16-3.32c.08-.06.14-.13.2-.2.06-.07.11-.15.16-.22.07.08.14.14.22.2.42.32.99.41,1.51.19l.71-.3.84-.36,2.99-1.27,2.25,6.3c.22.62.8,1,1.42,1,.17,0,.34-.03.51-.09.78-.28,1.19-1.14.91-1.93l-2.79-7.81c-.14-.39-.43-.71-.82-.87-.38-.17-.81-.17-1.2,0l-2.98,1.27-.36.15-.29-6.26.36-.18.68-.34,3.44-1.7c.3-.15.51-.45.54-.79l.65-6.56c.05-.54-.34-1.02-.88-1.08-.54-.05-1.02.34-1.08.88l-.6,6.02-2.89,1.43-.75.37-.58.29-4.69.24Z"/>
        <path class="cls-2" d="M17.43,9.06c1.55.25,3.01-.8,3.26-2.35.25-1.55-.8-3.01-2.35-3.26-1.55-.25-3.01.8-3.26,2.35-.25,1.55.8,3.01,2.35,3.26h0Z"/>
        <path class="cls-2" d="M12.97,34.08c-.95.24-2.62-.15-2.62-.15-.65-.11-.34,2.26,1.15,2.02,1.49-.24,2.41-2.11,1.46-1.87h0ZM11.46,35.36c-.17,0-.3-.14-.3-.3s.14-.3.3-.3.3.14.3.3-.14.3-.3.3Z"/>
        <path class="cls-2" d="M29.53,29.38c1.6-.51,1.52-2.61.66-2.15-.86.46-2.26.46-2.26.46-.66.05.16,2.14,1.6,1.68ZM29.28,28.07c.17,0,.3.14.3.3s-.14.3-.3.3-.3-.14-.3-.3.14-.3.3-.3Z"/>
        <path class="cls-2" d="M27.52,1.98l-.14,1.44c1.12-.98.91-2.75,0-2.26-.01,0-.02.01-.04.02.15.23.22.51.19.8Z"/>
        <path class="cls-2" d="M24.99,1.73c-.31.02-.51.02-.51.02-.52.04-.32,1.07.34,1.72l.17-1.74s0,0,0,0Z"/>
        <path class="cls-2" d="M2.8,9.86c1.22.41,3.5-2.2,2.36-2.16-.82.03-1.76-.66-2.23-1.04-.19-.16-.47-.14-.64.04-1,1.07-.6,2.79.51,3.16ZM3.28,8.13c.17,0,.3.14.3.3s-.14.3-.3.3-.3-.14-.3-.3.14-.3.3-.3Z"/>
        <path class="cls-2" d="M3.28,29.58c.14-.35.95-1.36-.38-2.22-1.33-.87-2.9,1.25-2.9,1.25.84,1.14,3.14,1.33,3.28.98ZM2.16,28.11c.17,0,.3.14.3.3s-.14.3-.3.3-.3-.14-.3-.3.14-.3.3-.3Z"/>
        <path class="cls-2" d="M23.04,26.7c-1.28-.6-3.4.34-3.35.72.05.37-.18,1.64,1.4,1.77,1.58.12,1.95-2.48,1.95-2.48ZM21.38,28.17c-.15.08-.33.03-.41-.12s-.03-.33.12-.41.33-.03.41.12.03.33-.12.41h0Z"/>
        <path class="cls-2" d="M33.51,13.85c1.67.13,2.39-1.84,1.42-1.74-.97.1-2.27-.42-2.27-.42-.63-.2-.66,2.05.85,2.16ZM33.38,12.72c.06-.16.24-.23.4-.17s.23.24.17.4-.24.23-.4.17c-.16-.06-.23-.24-.17-.4Z"/>
        <path class="cls-2" d="M11.46,2.82c2.04-.65,1.94-3.33.84-2.74-1.1.59-2.88.59-2.88.59-.84.06.2,2.73,2.04,2.15ZM11.15,1.15c.21,0,.39.17.39.39s-.17.39-.39.39-.39-.17-.39-.39.17-.39.39-.39Z"/>
      </g>
      <g>
        <path class="cls-1" d="M5.19,17.68c-1,1.07-.6,2.79.51,3.16,1.22.41,3.5-2.2,2.36-2.16-.06,0-.13,0-.19,0l-.41.18c-.16.07-.33.1-.5.1-.51,0-.97-.3-1.17-.77-.09-.2-.12-.41-.1-.62-.17-.07-.37-.02-.51.12h0ZM6.17,19.11c.17,0,.3.14.3.3s-.14.3-.3.3-.3-.14-.3-.3.14-.3.3-.3Z"/>
        <path class="cls-1" d="M15.77,10.1c-.1,0-.19.03-.28.06-.2.05-.38.16-.52.33l-3.39,4.13-5.01,2.16c-.5.21-.73.79-.52,1.29.16.37.52.6.91.6.13,0,.26-.03.39-.08l5.23-2.25c.14-.06.27-.16.37-.28l2.04-2.49.31,6.59-.35.28-3.25,2.6c-.32.25-.52.62-.57,1.02l-.91,7.76c-.1.84.5,1.61,1.35,1.71.06,0,.12.01.18.01.77,0,1.43-.58,1.53-1.36l.84-7.13,4.16-3.32c.08-.06.14-.13.2-.2.06-.07.11-.15.16-.22.07.08.14.14.22.2.42.32.99.41,1.51.19l.71-.3.84-.36,2.99-1.27,2.25,6.3c.22.62.8,1,1.42,1,.17,0,.34-.03.51-.09.78-.28,1.19-1.14.91-1.93l-2.79-7.81c-.14-.39-.43-.71-.82-.87-.38-.17-.81-.17-1.2,0l-2.98,1.27-.36.15-.29-6.26.36-.18.68-.34,3.44-1.7c.3-.15.51-.45.54-.79l.65-6.56c.05-.54-.34-1.02-.88-1.08-.54-.05-1.02.34-1.08.88l-.6,6.02-2.89,1.43-.75.37-.58.29-4.69.24Z"/>
        <path class="cls-1" d="M17.43,9.06c1.55.25,3.01-.8,3.26-2.35.25-1.55-.8-3.01-2.35-3.26-1.55-.25-3.01.8-3.26,2.35-.25,1.55.8,3.01,2.35,3.26h0Z"/>
        <path class="cls-1" d="M12.97,34.08c-.95.24-2.62-.15-2.62-.15-.65-.11-.34,2.26,1.15,2.02,1.49-.24,2.41-2.11,1.46-1.87h0ZM11.46,35.36c-.17,0-.3-.14-.3-.3s.14-.3.3-.3.3.14.3.3-.14.3-.3.3Z"/>
        <path class="cls-1" d="M29.53,29.38c1.6-.51,1.52-2.61.66-2.15-.86.46-2.26.46-2.26.46-.66.05.16,2.14,1.6,1.68ZM29.28,28.07c.17,0,.3.14.3.3s-.14.3-.3.3-.3-.14-.3-.3.14-.3.3-.3Z"/>
        <path class="cls-1" d="M27.52,1.98l-.14,1.44c1.12-.98.91-2.75,0-2.26-.01,0-.02.01-.04.02.15.23.22.51.19.8Z"/>
        <path class="cls-1" d="M24.99,1.73c-.31.02-.51.02-.51.02-.52.04-.32,1.07.34,1.72l.17-1.74s0,0,0,0Z"/>
        <path class="cls-1" d="M2.8,9.86c1.22.41,3.5-2.2,2.36-2.16-.82.03-1.76-.66-2.23-1.04-.19-.16-.47-.14-.64.04-1,1.07-.6,2.79.51,3.16ZM3.28,8.13c.17,0,.3.14.3.3s-.14.3-.3.3-.3-.14-.3-.3.14-.3.3-.3Z"/>
        <path class="cls-1" d="M3.28,29.58c.14-.35.95-1.36-.38-2.22-1.33-.87-2.9,1.25-2.9,1.25.84,1.14,3.14,1.33,3.28.98ZM2.16,28.11c.17,0,.3.14.3.3s-.14.3-.3.3-.3-.14-.3-.3.14-.3.3-.3Z"/>
        <path class="cls-1" d="M23.04,26.7c-1.28-.6-3.4.34-3.35.72.05.37-.18,1.64,1.4,1.77,1.58.12,1.95-2.48,1.95-2.48ZM21.38,28.17c-.15.08-.33.03-.41-.12s-.03-.33.12-.41.33-.03.41.12.03.33-.12.41h0Z"/>
        <path class="cls-1" d="M33.51,13.85c1.67.13,2.39-1.84,1.42-1.74-.97.1-2.27-.42-2.27-.42-.63-.2-.66,2.05.85,2.16ZM33.38,12.72c.06-.16.24-.23.4-.17s.23.24.17.4-.24.23-.4.17c-.16-.06-.23-.24-.17-.4Z"/>
        <path class="cls-1" d="M11.46,2.82c2.04-.65,1.94-3.33.84-2.74-1.1.59-2.88.59-2.88.59-.84.06.2,2.73,2.04,2.15ZM11.15,1.15c.21,0,.39.17.39.39s-.17.39-.39.39-.39-.17-.39-.39.17-.39.39-.39Z"/>
      </g>
    </g>
  </g>
</svg>