<?xml version="1.0" encoding="UTF-8"?>
<svg id="Layer_2" data-name="Layer 2" xmlns="http://www.w3.org/2000/svg" viewBox="0 0 35.1 35.1">
  <defs>
    <style>
      .cls-1 {
        fill: #c7ada8;
      }
    </style>
  </defs>
  <g id="Layer_1-2" data-name="Layer 1">
    <g>
      <path class="cls-1" d="M27.82,0H7.29C3.27,0,0,3.27,0,7.29v20.53c0,4.02,3.27,7.29,7.29,7.29h20.53c4.02,0,7.29-3.27,7.29-7.29V7.29c0-4.02-3.27-7.29-7.29-7.29ZM33.77,27.81c0,3.28-2.67,5.95-5.95,5.95H7.29c-3.28,0-5.95-2.67-5.95-5.95V7.29C1.33,4,4,1.33,7.29,1.33h20.53c3.28,0,5.95,2.67,5.95,5.95v20.53Z"/>
      <path class="cls-1" d="M29.79,16.62h-1.45c-.11,0-.21.07-.25.17l-.18.49-1.3-3.04c-.28-.64-.91-1.06-1.61-1.06h-8.43c-.7,0-1.33.42-1.61,1.06l-1.3,3.04-.18-.49c-.04-.1-.14-.17-.25-.17h-1.45c-.15,0-.26.12-.26.26v1.22c0,.15.12.26.26.26h1.34l-.68,1.35c-.12.24-.19.51-.19.78v2.62c0,.82.57,1.51,1.34,1.7v1.09c0,.29.24.53.53.53h1.69c.29,0,.53-.24.53-.53v-1.04h8.88v1.04c0,.29.24.53.53.53h1.69c.29,0,.53-.24.53-.53v-1.09c.77-.19,1.33-.87,1.33-1.7v-2.62c0-.27-.06-.54-.18-.78l-.68-1.35h1.34c.15,0,.26-.12.26-.26v-1.22c0-.15-.12-.26-.26-.26ZM16.81,14.76h7.93l1.24,2.91h-10.41l1.24-2.91ZM17.53,21.85c0,.13-.11.24-.24.24h-2.51c-.13,0-.24-.11-.24-.24v-1.09c0-.13.11-.24.24-.24h2.51c.13,0,.24.11.24.24v1.09ZM24.03,21.85v-1.09c0-.13.11-.24.24-.24h2.51c.13,0,.24.11.24.24v1.09c0,.13-.11.24-.24.24h-2.51c-.13,0-.24-.11-.24-.24Z"/>
      <path class="cls-1" d="M7.81,13.65c1.38,0,2.49-1.12,2.49-2.49s-1.12-2.49-2.49-2.49-2.49,1.12-2.49,2.49,1.12,2.49,2.49,2.49Z"/>
      <path class="cls-1" d="M10.58,17.85s-.5-.02-1.5-1.47c-.38-.55-.7-1.1-.87-1.44-.23-.65-.78-1.17-1.5-1.34-1.13-.27-2.27.43-2.54,1.56l-.64,2.7c-.2.85.14,1.71.81,2.19v5.2c0,.69.56,1.24,1.24,1.24s1.24-.56,1.24-1.24v-5.2c.39-.29.69-.71.81-1.21l.32-1.33c.94,1.29,1.8,1.92,2.64,1.92.44,0,.79-.35.79-.79,0-.44-.35-.79-.79-.79Z"/>
    </g>
  </g>
</svg>