<?xml version="1.0" encoding="UTF-8"?>
<svg id="Layer_2" data-name="Layer 2" xmlns="http://www.w3.org/2000/svg" viewBox="0 0 43.42 41.81">
  <defs>
    <style>
      .cls-1 {
        fill: #c7ada8;
      }
    </style>
  </defs>
  <g id="Layer_1-2" data-name="Layer 1">
    <g>
      <path class="cls-1" d="M24.68,13.41c.37-.13.64-.44.72-.82.06-.5-.31-.96-.81-1.02-.19-.02-.38.02-.54.11-.58.46-1.39.3-1.44-.51.06-.34-.04-.69-.26-.96-.36-.35-.94-.34-1.29.03-.16.17-.25.39-.25.62.11.97-.66,1.39-1.44.82-.44-.24-.99-.08-1.23.35-.24.43-.09.97.33,1.22l.27.16c.37.22.49.7.28,1.07-.07.11-.16.21-.28.28-1.51.64-.41,2.54.9,1.56.73-.36,1.27.26,1.17.99,0,.5.42.9.92.89.49,0,.88-.4.89-.89-.14-.45.12-.93.57-1.07.31-.09.65,0,.87.23.43.25.98.1,1.23-.33,0,0,0,0,0,0,.25-.48.06-1.07-.42-1.31-.06-.03-.12-.05-.18-.07-.37-.22-.49-.7-.27-1.07.07-.11.16-.21.27-.27ZM21.71,14.63c-.3,0-.54-.25-.53-.55,0-.29.24-.53.53-.53.3,0,.54.25.53.55,0,.29-.24.53-.53.53Z"/>
      <path class="cls-1" d="M30.18,14.76c-.35.13-.62.42-.72.79-.08.5.26.96.76,1.04.2.03.41,0,.59-.11.57-.46,1.4-.28,1.44.52-.06.34.04.69.26.95.36.35.93.34,1.28-.02.16-.17.25-.39.26-.62v-.31c0-.43.36-.78.79-.78.13,0,.26.04.38.1.39.38,1.02.37,1.4-.03.04-.05.09-.1.12-.15.24-.43.09-.98-.33-1.23-.37-.12-.63-.44-.66-.82,0-.28.14-.53.38-.68,1.51-.64.41-2.54-.9-1.57-.37.21-.85.09-1.06-.29-.07-.12-.1-.25-.1-.38.06-.59-.17-1.19-.89-1.22-.54.02-.96.48-.94,1.03,0,.07.01.13.03.2-.05.81-.86.97-1.44.51-.44-.24-.99-.08-1.23.36-.24.43-.09.97.33,1.22l.27.16c.37.22.49.7.28,1.07-.07.11-.16.21-.28.28ZM33.16,13.54c.3,0,.54.24.54.54,0,.3-.24.54-.54.54-.3,0-.54-.24-.54-.54,0-.3.24-.54.54-.54Z"/>
      <path class="cls-1" d="M13.23,13.41c1.5-.64.41-2.54-.9-1.57-.37.21-.85.09-1.06-.29-.07-.12-.1-.25-.1-.38.06-.34-.04-.69-.26-.96-.36-.35-.94-.34-1.29.03-.16.17-.25.39-.25.62.11.73-.44,1.34-1.17.98-.41-.38-1.04-.35-1.42.06-.04.04-.07.08-.1.12-.24.49-.05,1.08.44,1.33.06.03.11.05.17.07.66.45.41,1.23-.28,1.5-.43.26-.57.81-.31,1.24.25.42.79.56,1.22.32.19-.15.42-.23.66-.26.6,0,.85.56.78,1.09,0,.5.42.9.92.89.49,0,.88-.4.89-.89-.14-.45.12-.93.57-1.07.31-.1.65,0,.87.23.43.25.99.1,1.23-.33,0,0,0,0,0,0,.24-.48.05-1.07-.43-1.32-.06-.03-.11-.05-.17-.07-.37-.22-.49-.7-.28-1.07.07-.11.16-.21.28-.28ZM10.25,14.63c-.3,0-.54-.24-.54-.54,0-.3.24-.54.54-.54.3,0,.54.24.54.54,0,.3-.24.54-.54.54Z"/>
      <path class="cls-1" d="M36.34,36.98c.68,0,2.09,0,2.78,0v-1.07c.51.04,1.02-.16,1.35-.55.27-.32.39-.74.34-1.15l-1.12-10.28c-2.67-.3-5.24-1.17-7.53-2.56l-1.65,9.59c-.11.61.03,1.24.4,1.73.67.89,1.8,1.31,2.89,1.07.17.52.52.97.98,1.28v1.94h1.56Z"/>
      <path class="cls-1" d="M17.06,14.09c-.15-.18-.27-.37-.37-.58h-1.42c-.1.21-.22.4-.37.57.15.17.27.36.37.57.23.48.3,1.03.18,1.56h1.07c-.17-.75.03-1.54.54-2.12Z"/>
      <path class="cls-1" d="M5.6,14.09c-.15-.17-.28-.37-.37-.58-.88,0-2.7,0-3.57,0-.16,1.15.53,2.25,1.64,2.6v6.3c2.77-.25,5.44-1.2,7.74-2.77-1.28.44-2.67-.25-3.11-1.53,0,0,0,0,0,0-.37.08-.75.06-1.1-.04-1.31-.36-2.09-1.72-1.72-3.04.1-.35.27-.67.5-.95Z"/>
      <path class="cls-1" d="M41.77,13.93v-.41c-.87,0-2.72,0-3.59,0-.09.21-.22.4-.37.57.68.79.79,1.93.28,2.84-.53.91-1.57,1.38-2.61,1.19-.44,1.26-1.81,1.94-3.08,1.54,2.3,1.56,4.96,2.51,7.73,2.76v-6.3c.97-.29,1.63-1.18,1.63-2.19Z"/>
      <path class="cls-1" d="M5.05,11.96c.29-1.3,1.56-2.14,2.88-1.9.44-1.29,1.84-1.97,3.12-1.53.72.25,1.28.81,1.53,1.53,1.31-.25,2.59.6,2.86,1.91h1.07c.29-1.3,1.56-2.14,2.87-1.9.44-1.29,1.84-1.97,3.12-1.53.72.25,1.28.81,1.53,1.53,1.03-.2,2.07.28,2.6,1.19.13.22.22.46.27.72h1.06c.05-.25.14-.49.26-.72.53-.9,1.57-1.37,2.6-1.18.46-1.29,1.87-1.96,3.15-1.5.7.25,1.25.8,1.5,1.49,1.32-.25,2.59.6,2.87,1.91h5.06c-.1-.26-.29-.47-.53-.6L22.88.3c-.73-.4-1.61-.4-2.34,0L.51,11.37c-.23.13-.41.33-.51.58h5.05Z"/>
      <path class="cls-1" d="M28.51,14.09c-.15-.17-.28-.37-.37-.58h-1.41c-.09.21-.22.4-.37.57.5.58.7,1.37.54,2.12h1.06c-.17-.75.03-1.54.54-2.12Z"/>
      <path class="cls-1" d="M4.85,22.44h.03s-.04-.03-.03,0Z"/>
      <path class="cls-1" d="M1.43,38.54c-.46,1.26.18,2.65,1.43,3.12.26.1.54.15.82.15h36.05c1.33,0,2.41-1.08,2.41-2.41,0-.29-.05-.58-.16-.86H1.43Z"/>
      <path class="cls-1" d="M5.87,36.98c.68,0,2.1,0,2.79,0v-1.94c.46-.3.8-.75.98-1.27,1.5.41,3.66-.94,3.28-2.81l-1.64-9.58c-1.12.71-2.32,1.26-3.59,1.66-1.29.42-2.61.71-3.95.89l-1.12,10.29c-.08.86.56,1.63,1.42,1.7.09,0,.18,0,.27,0v1.06h1.56Z"/>
    </g>
  </g>
</svg>