<?xml version="1.0" encoding="UTF-8"?>
<svg id="Layer_2" data-name="Layer 2" xmlns="http://www.w3.org/2000/svg" viewBox="0 0 40.9 42.42">
  <defs>
    <style>
      .cls-1 {
        fill: #c7ada8;
      }
    </style>
  </defs>
  <g id="Layer_1-2" data-name="Layer 1">
    <path class="cls-1" d="M40.17,37.87h-2.84v-3.08c.89.11,2,.44,1.98-.69,0,0-1.6-11.48-1.6-11.48.47.12.89-.24.92-.71,0,0,0-6.64,0-6.64.44-.17,1-.16,1.34-.52.12-.13.16-.3.18-.47v-2.89c0-.26-.14-.5-.37-.64,0,0-18.96-10.65-18.96-10.65-.22-.13-.49-.13-.72,0L1.13,10.75c-.23.14-.37.38-.37.64,0,.03,0,2.89,0,2.91.05.76.95.76,1.51.96,0,0,0,6.64,0,6.64.02.42.39.8.83.72.23-.22-1.56,11.49-1.51,11.47-.02,1.13,1.1.8,1.98.69,0,0,0,3.08,0,3.08H.73c-.4,0-.73.33-.73.73v3.09c0,.4.33.73.73.73h39.44c.4,0,.73-.33.73-.73v-3.09c0-.4-.33-.73-.73-.73h0ZM7.45,21.41c.16-.06.31-.13.47-.2l1.77,9.33c-.58.36-1.38.29-1.86.19l-.38-9.32ZM8.13,19.5c-.73.38-1.47.67-2.15.91,1-1.04,1.9-2.37,1.92-3.77,1.06.21,2.11.4,3.17.55-.67.88-1.66,1.65-2.93,2.31h0ZM2.22,13.72v-1.37c12.14,3.53,24.33,3.53,36.47,0v1.37c-12.1,3.58-24.36,3.58-36.47,0h0ZM7.22,12.11h26.47c-8.83,1.89-17.65,1.89-26.47,0ZM33.01,16.63c.02,1.4.92,2.73,1.92,3.77-1.78-.56-4.08-1.82-5.09-3.22,1.06-.16,2.11-.34,3.17-.55h0ZM32.98,21.21c.16.07.32.14.47.2l-.38,9.32c-.48.1-1.28.17-1.86-.19l1.77-9.33ZM35.87,37.87h-1.12v-3.76c.36.15.74.28,1.12.38v3.38ZM34.47,32.22l.42-10.29c.49.15.93.28,1.3.37l1.54,11.07c-1.61-.23-3.01-.71-3.26-1.15h0ZM37.17,20.47c-1.34-1.07-2.77-2.63-2.74-4.14.91-.2,1.83-.42,2.74-.66v4.79ZM20.45,1.57l16.17,9.08H4.28L20.45,1.57ZM6.47,16.33c.03,1.5-1.4,3.06-2.74,4.13,0,0,0-4.79,0-4.79.91.24,1.83.46,2.74.66ZM4.71,22.3c.37-.09.81-.21,1.3-.37l.42,10.29c-.25.43-1.65.91-3.26,1.15l1.54-11.07h0ZM6.16,34.11v3.76h-1.12v-3.38c.38-.1.77-.23,1.12-.38h0ZM7.62,33.05c.17-.24.31-.52.28-.82,1.08.13,2.22.03,3.13-.89.16-.17.23-.41.19-.64l-1.93-10.17c1.53-.87,2.67-1.92,3.4-3.13,5.18.64,10.36.64,15.54,0,.73,1.21,1.87,2.26,3.4,3.13l-1.93,10.17c-.04.23.03.47.19.64.91.93,2.05,1.02,3.13.89,0,0,0,.09,0,.09,0,.27.13.52.28.74v4.82h-7.25v-7.91c.02-2.02-1.18-4.01-3.01-4.91,1-.8,1.78-1.49,1.64-2.81-.16-1.98-2.58-3.11-4.21-1.91-1.65-1.2-4.06-.06-4.21,1.93-.13,1.32.66,2,1.65,2.8-1.82.93-3.02,2.78-3.02,4.9v7.91h-7.25v-4.82h0ZM20.45,25.23c-.7-.55-2.02-1.6-2.49-2.06-.68-.76.02-1.86.91-1.86.32,0,.65.12.91.35.29.34.79.5,1.16.17.77-.87,2.11-.61,2.27.56.02.18,0,.51-.26.78-.48.47-1.79,1.52-2.49,2.06h0ZM20,26.74c.75.42.88-.06,1.72-.65,1.66.48,2.87,2.14,2.84,3.86,0,0,0,7.91,0,7.91h-8.23v-7.91c0-1.79,1.16-3.32,2.85-3.86.44.35.78.61.82.64h0ZM39.44,40.96H1.46v-1.63h37.98v1.63Z"/>
  </g>
</svg>