<?xml version="1.0" encoding="UTF-8"?>
<svg id="Layer_2" data-name="Layer 2" xmlns="http://www.w3.org/2000/svg" viewBox="0 0 40.22 40.22">
  <defs>
    <style>
      .cls-1 {
        fill: #c7ada8;
      }

      .cls-2 {
        fill: #010101;
      }
    </style>
  </defs>
  <g id="Layer_1-2" data-name="Layer 1">
    <g>
      <g>
        <path class="cls-2" d="M23.17,9.8L12.56.3c-.45-.4-1.12-.4-1.56,0L.4,9.8c-.81.72-.3,2.06.78,2.06h21.21c1.08,0,1.59-1.34.78-2.06Z"/>
        <path class="cls-2" d="M22.39,37.86h-1.18V14.22H2.36v23.64h-1.18C.53,37.86,0,38.39,0,39.04s.53,1.18,1.18,1.18h2.36c.65,0,1.18-.53,1.18-1.18v-5.89h2.36v5.89c0,.65.53,1.18,1.18,1.18s1.18-.53,1.18-1.18v-1.18h4.71v1.18c0,.65.53,1.18,1.18,1.18s1.18-.53,1.18-1.18v-5.89h2.36v5.89c0,.65.53,1.18,1.18,1.18h2.36c.65,0,1.18-.53,1.18-1.18,0-.65-.53-1.18-1.18-1.18ZM7.07,30.79h-2.36v-2.36h2.36v2.36ZM14.14,35.5h-4.71v-2.36h4.71v2.36ZM14.14,30.79h-4.71v-2.36h4.71v2.36ZM11.78,26c-2.6,0-4.71-2.11-4.71-4.71s2.11-4.71,4.71-4.71,4.71,2.11,4.71,4.71-2.11,4.71-4.71,4.71ZM18.85,30.79h-2.36v-2.36h2.36v2.36Z"/>
        <path class="cls-2" d="M37.86,35.5h-4.16c-.95,0-1.8-.56-2.17-1.43l-2.6-8.5c-.96-2.25-3.01-3.81-5.37-4.19v4.73c.64.2,1.18.75,1.45,1.39l3.21,9.85c.74,1.74,2.44,2.86,4.33,2.86h5.3c1.3,0,2.36-1.06,2.36-2.36s-1.06-2.36-2.36-2.36Z"/>
      </g>
      <g>
        <path class="cls-1" d="M23.17,9.8L12.56.3c-.45-.4-1.12-.4-1.56,0L.4,9.8c-.81.72-.3,2.06.78,2.06h21.21c1.08,0,1.59-1.34.78-2.06Z"/>
        <path class="cls-1" d="M22.39,37.86h-1.18V14.22H2.36v23.64h-1.18C.53,37.86,0,38.39,0,39.04s.53,1.18,1.18,1.18h2.36c.65,0,1.18-.53,1.18-1.18v-5.89h2.36v5.89c0,.65.53,1.18,1.18,1.18s1.18-.53,1.18-1.18v-1.18h4.71v1.18c0,.65.53,1.18,1.18,1.18s1.18-.53,1.18-1.18v-5.89h2.36v5.89c0,.65.53,1.18,1.18,1.18h2.36c.65,0,1.18-.53,1.18-1.18,0-.65-.53-1.18-1.18-1.18ZM7.07,30.79h-2.36v-2.36h2.36v2.36ZM14.14,35.5h-4.71v-2.36h4.71v2.36ZM14.14,30.79h-4.71v-2.36h4.71v2.36ZM11.78,26c-2.6,0-4.71-2.11-4.71-4.71s2.11-4.71,4.71-4.71,4.71,2.11,4.71,4.71-2.11,4.71-4.71,4.71ZM18.85,30.79h-2.36v-2.36h2.36v2.36Z"/>
        <path class="cls-1" d="M37.86,35.5h-4.16c-.95,0-1.8-.56-2.17-1.43l-2.6-8.5c-.96-2.25-3.01-3.81-5.37-4.19v4.73c.64.2,1.18.75,1.45,1.39l3.21,9.85c.74,1.74,2.44,2.86,4.33,2.86h5.3c1.3,0,2.36-1.06,2.36-2.36s-1.06-2.36-2.36-2.36Z"/>
      </g>
    </g>
  </g>
</svg>