<?xml version="1.0" encoding="UTF-8"?>
<svg id="Layer_2" data-name="Layer 2" xmlns="http://www.w3.org/2000/svg" viewBox="0 0 37.89 41.21">
  <defs>
    <style>
      .cls-1 {
        fill: #c7ada8;
      }
    </style>
  </defs>
  <g id="Layer_1-2" data-name="Layer 1">
    <g>
      <path class="cls-1" d="M8.62,34.45c-.46,0-.91-.13-1.3-.38-.57.37-1.26.48-1.94.3-.68-.18-1.22-.63-1.53-1.23-.68.03-1.33-.22-1.83-.71s-.75-1.15-.71-1.83c-.6-.31-1.05-.85-1.23-1.53-.18-.68-.07-1.37.3-1.94-.37-.57-.48-1.26-.3-1.94.18-.68.63-1.22,1.23-1.53-.03-.68.22-1.33.71-1.83.5-.5,1.15-.75,1.83-.71.31-.6.85-1.05,1.53-1.23.68-.18,1.37-.07,1.94.3.73-.47,1.66-.52,2.46-.09.29.16.41.52.25.82-.16.29-.52.41-.82.25-.41-.22-1.02-.23-1.46.22-.11.12-.27.18-.43.18s-.32-.07-.43-.18c-.31-.32-.76-.44-1.19-.33-.43.12-.76.45-.87.88-.04.16-.14.29-.28.37-.14.08-.31.1-.47.06-.43-.12-.88,0-1.2.31-.32.32-.43.77-.31,1.2.04.16.02.32-.06.47s-.22.24-.37.28c-.44.11-.76.44-.88.87s0,.88.33,1.19c.12.11.18.27.18.43s-.07.32-.18.43c-.32.31-.44.76-.33,1.19.12.43.45.76.88.87.16.04.29.14.37.28s.1.31.06.47c-.12.43,0,.88.31,1.2.32.32.77.43,1.2.31.16-.04.32-.02.47.06.14.08.24.22.28.37.11.44.44.76.87.88.43.12.88,0,1.19-.33.11-.12.27-.18.43-.18s.32.07.43.18c.31.32.76.44,1.19.33.43-.12.76-.45.87-.88.04-.16.14-.29.28-.37s.31-.1.47-.06c.43.12.88,0,1.2-.31.32-.32.43-.77.31-1.2-.09-.32.1-.65.42-.74.32-.09.65.1.74.42.24.86.01,1.75-.62,2.38-.5.5-1.15.75-1.83.71-.31.6-.85,1.05-1.53,1.23-.21.06-.43.09-.64.09Z"/>
      <path class="cls-1" d="M31.86,38.18c-.46,0-.91-.13-1.3-.39-.58.36-1.33.47-2.05.27-.92-.25-1.62-.93-1.84-1.78-.08-.32.11-.65.44-.73.32-.08.65.11.73.44.13.51.59.8.98.91.39.1.94.08,1.31-.3.11-.12.27-.18.43-.18s.32.07.43.18c.31.32.76.44,1.19.33.43-.12.76-.45.87-.88.04-.16.14-.29.28-.37s.31-.1.47-.06c.43.12.88,0,1.2-.31.32-.32.43-.77.31-1.2-.04-.16-.02-.32.06-.47s.22-.24.37-.28c.44-.11.76-.44.88-.87.12-.43,0-.88-.33-1.19-.12-.11-.18-.27-.18-.43s.07-.32.18-.43c.32-.31.44-.76.33-1.19-.12-.43-.45-.76-.88-.87-.16-.04-.29-.14-.37-.28-.08-.14-.1-.31-.06-.47.12-.43,0-.88-.31-1.2s-.77-.43-1.2-.31c-.16.04-.32.02-.47-.06-.14-.08-.24-.22-.28-.37-.17-.68-.8-.98-1.33-.92-.33.04-.63-.2-.67-.53-.04-.33.2-.63.53-.67,1.04-.12,1.99.41,2.44,1.3.68-.03,1.33.22,1.83.71s.75,1.15.71,1.83c.6.31,1.05.85,1.23,1.53.18.68.07,1.37-.3,1.94.37.57.48,1.26.3,1.94-.18.68-.63,1.22-1.23,1.53.03.68-.22,1.33-.71,1.83-.5.5-1.15.75-1.83.71-.31.6-.85,1.05-1.53,1.23-.21.06-.43.09-.64.09Z"/>
      <path class="cls-1" d="M30.95,19.57c-.21,0-.42-.02-.64-.05-.99-.15-1.74-.61-1.77-.63-.28-.17-.37-.55-.2-.83.18-.28.55-.37.83-.2.09.05,2.24,1.33,3.52-.41.15-.2.41-.29.65-.22.43.12.88,0,1.2-.31.32-.32.43-.77.31-1.2-.04-.16-.02-.32.06-.47.08-.14.22-.24.37-.28.44-.11.76-.44.88-.87.12-.43,0-.88-.33-1.19-.12-.11-.18-.27-.18-.43s.07-.32.18-.43c.32-.31.44-.76.33-1.19-.12-.43-.45-.76-.88-.87-.16-.04-.29-.14-.37-.28-.08-.14-.1-.31-.06-.47.12-.43,0-.88-.31-1.2s-.77-.43-1.2-.31c-.16.04-.32.02-.47-.06-.14-.08-.24-.22-.28-.37-.11-.44-.44-.76-.87-.88-.43-.12-.88,0-1.19.33-.11.12-.27.18-.43.18h0c-.16,0-.32-.07-.43-.18-.3-.31-.72-.44-1.15-.34-.17.04-.34,0-.48-.1s-.23-.25-.25-.42c-.06-.51-.42-.93-.92-1.05-.16-.04-.29-.14-.37-.28-.08-.14-.1-.31-.06-.47.12-.43,0-.88-.31-1.2-.32-.32-.77-.43-1.2-.31-.16.04-.32.02-.47-.06-.14-.08-.24-.22-.28-.37-.11-.44-.44-.76-.87-.88-.43-.12-.88,0-1.19.33-.11.12-.27.18-.43.18s-.32-.07-.43-.18c-.31-.32-.76-.44-1.19-.33-.43.12-.76.45-.87.88-.04.16-.14.29-.28.37-.14.08-.31.1-.47.06-.43-.12-.88,0-1.2.31-.32.32-.43.77-.31,1.2.08.29-.07.6-.35.72-.49.21-.79.48-.89.81-.15.52.18,1.17.32,1.37.19.27.12.65-.15.84-.27.19-.65.12-.84-.15-.09-.12-.83-1.23-.49-2.39.16-.57.55-1.03,1.14-1.38-.05-.69.2-1.37.71-1.87.5-.5,1.15-.75,1.83-.71.31-.6.85-1.05,1.53-1.23.68-.18,1.37-.07,1.94.3.57-.37,1.26-.48,1.94-.3.68.18,1.22.63,1.53,1.23.68-.03,1.33.22,1.83.71.5.5.75,1.15.71,1.83.54.28.95.74,1.16,1.31.44,0,.88.14,1.25.38.57-.37,1.26-.48,1.94-.3.68.18,1.22.63,1.53,1.23.68-.03,1.33.22,1.83.71.5.5.75,1.15.71,1.83.6.31,1.05.85,1.23,1.53.18.68.07,1.37-.3,1.94.37.57.48,1.26.3,1.94-.18.68-.63,1.22-1.23,1.53.03.68-.22,1.33-.71,1.83-.53.53-1.25.78-1.98.7-.65.73-1.49,1.1-2.47,1.1Z"/>
      <path class="cls-1" d="M6.94,16.77c-.22,0-.43-.03-.65-.1-.6-.19-1.05-.63-1.27-1.18-.6-.04-1.15-.34-1.52-.85-.37-.51-.48-1.13-.33-1.71-.46-.38-.73-.95-.73-1.58s.27-1.19.73-1.58c-.15-.58-.03-1.2.33-1.71.37-.51.92-.81,1.52-.85.22-.56.68-.99,1.27-1.18.6-.19,1.22-.11,1.73.21.51-.32,1.13-.4,1.73-.21.6.19,1.05.63,1.27,1.18.6.04,1.15.34,1.52.85.38.53.49,1.17.32,1.76.1.19.1.42-.02.61-.18.28-.55.37-.83.19-.04-.02-.08-.05-.12-.07-.16-.07-.28-.2-.33-.37-.05-.16-.03-.34.05-.49.18-.3.16-.65-.04-.93-.21-.28-.53-.41-.87-.33-.17.04-.35,0-.49-.1-.14-.1-.23-.26-.25-.43-.03-.35-.25-.62-.58-.73-.33-.11-.67-.02-.9.25-.11.13-.28.2-.45.2s-.34-.07-.45-.2c-.23-.26-.57-.35-.9-.25-.33.11-.55.38-.58.73-.02.17-.11.33-.25.43-.14.1-.32.14-.49.1-.34-.08-.67.05-.87.33-.21.28-.22.63-.04.93.09.15.11.33.05.49-.05.16-.18.3-.33.37-.32.14-.51.43-.51.78s.19.64.51.78c.16.07.28.2.33.37.05.16.03.34-.05.49-.18.3-.16.65.04.93.21.28.53.41.87.33.17-.04.35,0,.49.1s.23.26.25.43c.03.35.25.62.58.73.33.11.67.02.9-.25.11-.13.28-.2.45-.2h0c.17,0,.34.07.45.2.22.25.54.34.85.26.32-.09.65.1.74.43.09.32-.1.65-.43.74-.56.15-1.14.06-1.62-.24-.32.21-.7.31-1.08.31Z"/>
      <path class="cls-1" d="M28.85,15.2c-.15,0-.31-.06-.43-.18-.24-.24-.24-.62,0-.85l3.59-3.61c.24-.24.62-.24.85,0,.24.24.24.62,0,.85l-3.59,3.61c-.12.12-.27.18-.43.18Z"/>
      <path class="cls-1" d="M32.68,13.61c-.1,0-.19-.02-.28-.07l-1.48-.79c-.29-.16-.41-.52-.25-.82.16-.29.52-.41.82-.25l1.48.79c.29.16.41.52.25.82-.11.2-.32.32-.53.32Z"/>
      <path class="cls-1" d="M9.5,28.41c-.16,0-.32-.06-.43-.18l-3.82-3.97c-.23-.24-.22-.62.02-.85.24-.23.62-.22.85.02l3.82,3.97c.23.24.22.62-.02.85-.12.11-.27.17-.42.17Z"/>
      <path class="cls-1" d="M4.62,26.71c-.21,0-.41-.11-.52-.3-.17-.29-.07-.66.22-.82l2.09-1.2c.29-.17.66-.07.82.22.17.29.07.66-.22.82l-2.09,1.2c-.09.05-.2.08-.3.08Z"/>
      <path class="cls-1" d="M19.17,41.21h-3.84c-.33,0-.6-.27-.6-.6v-10.39c0-.33.27-.6.6-.6h3.84c.33,0,.6.27.6.6v10.39c0,.33-.27.6-.6.6ZM15.93,40h2.63v-9.18h-2.63v9.18Z"/>
      <path class="cls-1" d="M30.68,30.82H7.66c-1,0-1.81-.81-1.81-1.81s.81-1.81,1.81-1.81h23.02c1,0,1.81.81,1.81,1.81,0,1-.81,1.81-1.81,1.81ZM7.66,28.41c-.33,0-.6.27-.6.6s.27.6.6.6h23.02c.33,0,.6-.27.6-.6s-.27-.6-.6-.6H7.66Z"/>
      <path class="cls-1" d="M28.85,28.41H9.5c-.33,0-.6-.27-.6-.6v-15.35c0-.18.08-.35.22-.47l9.68-7.92c.22-.18.54-.18.76,0l9.68,7.92c.14.11.22.29.22.47v15.35c0,.33-.27.6-.6.6ZM10.1,27.2h18.15v-14.46l-9.07-7.43-9.07,7.43v14.46Z"/>
      <path class="cls-1" d="M26.67,28.41h-15c-.33,0-.6-.27-.6-.6v-14.32c0-.18.08-.35.22-.47l1.72-1.41c.26-.21.64-.17.85.08.21.26.17.64-.08.85l-1.5,1.23v13.43h13.8v-13.43l-6.9-5.65-3.21,2.63c-.26.21-.64.17-.85-.08-.21-.26-.17-.64.08-.85l3.59-2.94c.22-.18.54-.18.76,0l7.5,6.14c.14.11.22.29.22.47v14.32c0,.33-.27.6-.6.6Z"/>
      <g>
        <path class="cls-1" d="M19.17,33.39h-3.84c-.33,0-.6-.27-.6-.6s.27-.6.6-.6h3.84c.33,0,.6.27.6.6s-.27.6-.6.6Z"/>
        <path class="cls-1" d="M19.17,35.95h-3.84c-.33,0-.6-.27-.6-.6s.27-.6.6-.6h3.84c.33,0,.6.27.6.6s-.27.6-.6.6Z"/>
        <path class="cls-1" d="M19.17,38.51h-3.84c-.33,0-.6-.27-.6-.6s.27-.6.6-.6h3.84c.33,0,.6.27.6.6s-.27.6-.6.6Z"/>
      </g>
      <path class="cls-1" d="M24.49,41.21h-10.63c-1,0-1.81-.81-1.81-1.81v-9.19c0-.33.27-.6.6-.6h13.04c.33,0,.6.27.6.6v3.14l.55-.36c.66-.43,1.53-.29,2.02.33h0c.46.58.43,1.4-.05,1.95l-2.52,2.85v1.27c0,1-.81,1.81-1.81,1.81ZM13.26,30.82v8.58c0,.33.27.6.6.6h10.63c.33,0,.6-.27.6-.6v-1.49c0-.15.05-.29.15-.4l2.67-3.02c.1-.11.11-.28.01-.4,0,0,0,0,0,0-.1-.13-.28-.16-.42-.07l-1.48.96c-.19.12-.42.13-.62.02-.19-.11-.32-.31-.32-.53v-3.65h-11.83Z"/>
      <path class="cls-1" d="M21.03,28.41h-9.36c-.33,0-.6-.27-.6-.6v-10.8c0-.33.27-.6.6-.6h9.36c.33,0,.6.27.6.6v10.8c0,.33-.27.6-.6.6ZM12.27,27.2h8.15v-9.6h-8.15v9.6Z"/>
      <path class="cls-1" d="M26.67,28.41h-5.64c-.33,0-.6-.27-.6-.6v-10.8c0-.33.27-.6.6-.6h5.64c.33,0,.6.27.6.6v10.8c0,.33-.27.6-.6.6ZM21.63,27.2h4.44v-9.6h-4.44v9.6Z"/>
      <path class="cls-1" d="M21.03,23.01h-9.36c-.33,0-.6-.27-.6-.6s.27-.6.6-.6h9.36c.33,0,.6.27.6.6s-.27.6-.6.6Z"/>
      <path class="cls-1" d="M16.35,28.41c-.33,0-.6-.27-.6-.6v-10.8c0-.33.27-.6.6-.6s.6.27.6.6v10.8c0,.33-.27.6-.6.6Z"/>
    </g>
  </g>
</svg>