<?xml version="1.0" encoding="UTF-8"?>
<svg id="Layer_2" data-name="Layer 2" xmlns="http://www.w3.org/2000/svg" viewBox="0 0 44.71 35.18">
  <defs>
    <style>
      .cls-1 {
        fill: #c7ada8;
      }
    </style>
  </defs>
  <g id="Layer_1-2" data-name="Layer 1">
    <path class="cls-1" d="M27.71,26.62h-10.73v-5.16h10.73v5.16ZM18.86,20.64h6.98v-1.09h-6.98v1.09ZM19.41,11.92v-4.62c0-.53.81-.53.82,0v11.42h4.23V7.3c0-.53.82-.53.82,0v6.48c.91-1.46,4.1-8.5-.92-9.76-.16.28-.39.5-.62.71h0c-1.08.9-2.72.47-3.4-.71-5.04,1.27-1.83,8.31-.92,9.76v-1.87ZM21.35,3.98c1.27,1.13,2.8-.32,2.71-1.78C24.07.99,23.3,0,22.36,0c-1.73-.02-2.3,2.91-1,3.98ZM44.42,34.66c.07.25-.14.52-.4.52H.69c-.26,0-.48-.26-.4-.52.35-1.44,2.18-2.7,4.32-2.17v-3.75c-2.59-.49-4.6-4.03-4.6-8.29.3-11.07,10.15-11.07,10.45,0,0,4.5-2.24,8.18-5.03,8.34v2.8c1.96-2.1,6.76-1.7,7.76,1h2.28v-5.15h13.77v5.15h2.29c.99-2.7,5.79-3.1,7.76-1v-2.8c-2.79-.16-5.03-3.85-5.03-8.34.3-11.07,10.15-11.07,10.45,0,0,4.27-2.01,7.8-4.6,8.29v3.75c2.15-.53,3.97.73,4.32,2.17ZM39.7,33.43c.06,0,.12,0,.16-.03,0,0,0,0-.02,0-.04.02-.1.03-.15.03ZM39.29,22.73v5.24c.28.02.55,0,.82-.07v-2.86l2.25-2.21c.39-.36-.2-.97-.58-.58l-1.68,1.64v-5.17c0-.23-.18-.41-.41-.41s-.41.18-.41.41v2.99l-1.76-1.33c-.43-.31-.93.34-.49.66l2.25,1.7ZM13.48,33.42c.07.29.15.68.16.94h17.44c0-.25.08-.65.16-.94-1.41,0-16.22.02-17.75,0ZM4.87,33.39h-.02s.11.03.16.03c-.05,0-.11,0-.15-.03ZM4.6,25.04v2.86c.27.07.54.1.82.07v-5.24l2.25-1.7c.43-.32-.06-.97-.49-.66l-1.76,1.33v-2.99c0-.23-.18-.41-.41-.41s-.41.18-.41.41v5.17l-1.68-1.64c-.38-.39-.96.22-.58.58l2.25,2.21Z"/>
  </g>
</svg>