<?xml version="1.0" encoding="UTF-8"?>
<svg id="Layer_2" data-name="Layer 2" xmlns="http://www.w3.org/2000/svg" viewBox="0 0 60.38 35.1">
  <defs>
    <style>
      .cls-1 {
        fill: #c7ada8;
      }
    </style>
  </defs>
  <g id="Layer_1-2" data-name="Layer 1">
    <g id="Layer_3" data-name="Layer 3">
      <path class="cls-1" d="M56.24,22.04c-2.46-1.18-5.98-2.18-10.19-2.9-.33-.05-.64.18-.69.51-.05.32.17.62.48.68,8.09,1.38,13.32,3.8,13.32,6.17,0,1.78-3.07,3.68-8.22,5.07-5.54,1.5-12.91,2.32-20.76,2.32s-15.23-.82-20.76-2.32c-5.15-1.39-8.22-3.29-8.22-5.07,0-1.15,1.31-2.39,3.68-3.48,2.51-1.16,6.11-2.13,10.42-2.82.33-.05.55-.36.5-.69-.05-.33-.36-.55-.69-.5-4.42.7-8.13,1.71-10.74,2.92-2.9,1.34-4.38,2.88-4.38,4.58s1.58,4.2,9.11,6.24c5.64,1.52,13.12,2.36,21.08,2.36s15.44-.84,21.08-2.36c7.53-2.04,9.11-4.52,9.11-6.24s-1.39-3.15-4.14-4.47h0Z"/>
      <path class="cls-1" d="M9.86,26.5c0,1.39,2.05,2.46,6.26,3.27,3.76.72,8.75,1.12,14.05,1.12s10.29-.4,14.05-1.12c4.21-.81,6.26-1.88,6.26-3.27,0-1.58-2.76-2.79-8.22-3.6-.33-.05-.64.17-.69.5s.17.64.5.69c0,0,0,0,.01,0,5.87.87,7.19,2.06,7.19,2.4,0,.3-.95,1.25-5.28,2.08-3.69.71-8.59,1.1-13.82,1.1s-10.14-.39-13.82-1.1c-4.33-.83-5.28-1.79-5.28-2.08,0-.38,1.47-1.65,7.98-2.52.33-.04.56-.35.52-.68-.04-.33-.35-.56-.68-.52-5.99.8-9.03,2.05-9.03,3.71Z"/>
      <path class="cls-1" d="M33.9,25.07c1.96-.44,3.75-1.44,5.17-2.87,4.81-4.83,5.21-13.8,5.23-16.29-.99.16-1.96.44-2.89.84-2.41,1.04-4.1,2.72-5.03,4.98.78,3.55.82,6.58.11,9.06-.5,1.72-1.36,3.16-2.58,4.29Z"/>
      <path class="cls-1" d="M34.37,5.31c.16.4.32.82.47,1.24.43,1.17.79,2.29,1.09,3.37,1.02-1.72,2.53-3.09,4.45-4.03.7-2.19.25-4.74-.03-5.89-1.35.56-4.65,2.2-5.98,5.31Z"/>
      <path class="cls-1" d="M26.05,19.55c.64,2.54,2.14,4.5,4.44,5.83.31,0,.61.01.91,0,1.96-1.08,3.28-2.74,3.92-4.94,1.96-6.79-2.9-16.93-4.51-20.02-1.66,2.91-6.5,12.24-4.76,19.12Z"/>
      <path class="cls-1" d="M28.23,25.27c-1.67-1.41-2.79-3.22-3.35-5.43-.58-2.28-.55-4.94.08-7.94-1.49-3.95-6.73-5.49-8.69-5.93.13,1.65.59,5.69,2.07,9.64,2.15,5.77,5.47,9.01,9.9,9.65h0ZM17.85,9.13c-.04-.23-.07-.45-.1-.66-.05-.33.18-.64.51-.68s.64.18.68.51c.03.21.06.42.1.64.05.33-.17.64-.5.69-.03,0-.06,0-.1,0-.3,0-.55-.22-.6-.51ZM18.72,10.6c.33-.07.65.14.72.46.41,1.97,1.01,3.9,1.79,5.76.14.3,0,.66-.31.8-.3.14-.66,0-.8-.31,0,0,0,0,0-.01-.81-1.93-1.44-3.93-1.86-5.98-.07-.33.14-.65.46-.72,0,0,0,0,0,0h0Z"/>
      <path class="cls-1" d="M21.05,0c-.3,1.26-.81,4.19.2,6.49,1.57.83,3.12,1.99,4.14,3.6.39-1.38.85-2.75,1.38-4.08.09-.23.19-.46.28-.69C25.72,2.23,22.41.57,21.05,0Z"/>
    </g>
  </g>
</svg>