<?xml version="1.0" encoding="UTF-8"?>
<svg id="Layer_2" data-name="Layer 2" xmlns="http://www.w3.org/2000/svg" viewBox="0 0 48.59 41.19">
  <defs>
    <style>
      .cls-1 {
        fill: #c7ada8;
      }
    </style>
  </defs>
  <g id="Layer_1-2" data-name="Layer 1">
    <g>
      <g>
        <polygon class="cls-1" points="14 36.55 9.74 36.55 9.74 10.8 11.16 10.8 11.16 35.13 12.58 35.13 12.58 10.8 14 10.8 14 36.55"/>
        <rect class="cls-1" x="10.45" y="16.48" width="2.95" height="1.42"/>
        <rect class="cls-1" x="10.45" y="22.52" width="2.95" height="1.42"/>
        <rect class="cls-1" x="10.45" y="29.09" width="2.95" height="1.42"/>
        <path class="cls-1" d="M11.66,11.48l-.25-1.17c-.66-3.05.4-6.21,2.76-8.25l.93,1.08c-1.65,1.42-2.53,3.49-2.46,5.62L21.03,1.54c-1.67-.32-3.39-.02-4.88.85l-.72-1.23c2.23-1.31,4.89-1.53,7.32-.61l1.12.42-12.2,10.5Z"/>
        <path class="cls-1" d="M12.2,11.48L0,.98l1.12-.42C4.04-.55,7.32.03,9.68,2.06c2.36,2.04,3.42,5.2,2.76,8.25l-.25,1.17ZM2.83,1.55l8.38,7.21c.08-2.13-.81-4.2-2.46-5.62-1.65-1.42-3.83-1.99-5.92-1.59Z"/>
        <path class="cls-1" d="M13.12,11.51H.05l.57-1.05c1.19-2.19,3.48-3.55,5.97-3.55s4.78,1.36,5.97,3.55l.57,1.05ZM2.61,10.09h7.95c-1-1.11-2.44-1.76-3.97-1.76s-2.97.65-3.97,1.76Z"/>
        <path class="cls-1" d="M23.81,11.51h-13.07l.57-1.05c1.19-2.19,3.48-3.55,5.97-3.55s4.78,1.36,5.97,3.55l.57,1.05ZM13.3,10.09h7.95c-1-1.11-2.44-1.76-3.97-1.76s-2.97.65-3.97,1.76Z"/>
        <polygon class="cls-1" points="38.74 36.55 34.48 36.55 34.48 10.8 35.9 10.8 35.9 35.13 37.32 35.13 37.32 20.83 38.74 20.83 38.74 36.55"/>
        <rect class="cls-1" x="37.32" y="10.8" width="1.42" height="8.58"/>
        <rect class="cls-1" x="35.19" y="16.48" width="2.95" height="1.42"/>
        <rect class="cls-1" x="35.19" y="22.52" width="2.95" height="1.42"/>
        <rect class="cls-1" x="35.19" y="29.09" width="2.95" height="1.42"/>
        <path class="cls-1" d="M36.4,11.48l-.25-1.17c-.66-3.05.4-6.21,2.76-8.25C41.27.03,44.56-.55,47.48.56l1.12.42-12.2,10.5ZM44.46,1.43c-1.67,0-3.31.59-4.62,1.72-1.65,1.42-2.53,3.49-2.46,5.62l8.38-7.21c-.43-.08-.87-.12-1.3-.12Z"/>
        <path class="cls-1" d="M36.93,11.48L24.73.98l1.12-.42c2.92-1.11,6.2-.53,8.57,1.51,2.36,2.04,3.42,5.2,2.76,8.25l-.25,1.17ZM27.57,1.55l8.38,7.21c.08-2.13-.81-4.2-2.46-5.62-1.65-1.42-3.83-1.99-5.92-1.59Z"/>
        <path class="cls-1" d="M37.86,11.51h-13.07l.57-1.05c1.19-2.19,3.48-3.55,5.97-3.55s4.78,1.36,5.97,3.55l.57,1.05ZM27.35,10.09h7.95c-1-1.11-2.44-1.76-3.97-1.76s-2.97.65-3.97,1.76Z"/>
        <path class="cls-1" d="M48.54,11.51h-13.07l.57-1.05c1.19-2.19,3.48-3.55,5.97-3.55s4.78,1.36,5.97,3.55l.57,1.05ZM38.03,10.09h7.95c-1-1.11-2.44-1.76-3.97-1.76s-2.97.65-3.97,1.76Z"/>
        <path class="cls-1" d="M48.54,41.19H.05v-6.06h48.49v6.06ZM1.47,39.77h45.65v-3.22H1.47v3.22Z"/>
      </g>
      <g>
        <path class="cls-1" d="M24.3,26.1c-2.21,0-4.37-.44-6.24-1.27l-.1-.04s-.03-.02-.05-.02l-.27-.13c-2.64-1.26-4.51-3.36-5.04-5.68l1.39-.31c.45,1.97,2.23,3.84,4.64,4.88l.32.14c1.61.66,3.46,1.01,5.35,1.01,2.78,0,5.39-.74,7.37-2.09.22-.15.43-.3.61-.46,1.11-.9,1.88-1.98,2.23-3.12l1.36.42c-.43,1.41-1.36,2.72-2.69,3.8-.22.18-.46.36-.71.53-2.21,1.51-5.11,2.34-8.17,2.34Z"/>
        <path class="cls-1" d="M24.26,32.44c-2.08,0-4.07-.75-5.71-2.17-2.16-1.86-3.39-4.62-3.39-7.57v-1.52l1.16.95c.64.52,1.52,1.06,2.31,1.4l.33.14c1.61.66,3.45,1.01,5.34,1.01,2.78,0,5.39-.74,7.37-2.09.22-.15.43-.3.61-.46l1.16-.94v1.52c0,4.85-3.39,8.99-7.9,9.64-.43.06-.85.09-1.28.09ZM16.69,24.12c.32,1.99,1.3,3.79,2.79,5.08,1.66,1.43,3.74,2.05,5.85,1.74,3.37-.49,6-3.31,6.57-6.82-2.13,1.28-4.8,1.98-7.61,1.98-2.21,0-4.37-.44-6.24-1.27l-.42-.19h0c-.32-.16-.64-.34-.95-.52Z"/>
        <path class="cls-1" d="M24.3,29.4c-2.04,0-3.98-.7-5.59-2.03-1.12-.92-2.03-2.12-2.65-3.48h-.24v-.57l-.14-.35.14-.12v-1.03l.93.64h.27l.09.25c.39.25.95.58,1.51.82l.32.14c1.61.66,3.45,1.01,5.34,1.01,2.78,0,5.39-.74,7.37-2.09l1.91-1.31-.85,2.15c-1.43,3.62-4.74,5.96-8.43,5.96ZM18.34,24.95c.37.49.8.93,1.27,1.31,1.36,1.12,2.98,1.71,4.69,1.71,2.35,0,4.52-1.14,5.96-3.02-1.79.75-3.84,1.15-5.96,1.15-2.1,0-4.15-.4-5.95-1.15Z"/>
      </g>
    </g>
  </g>
</svg>