<?xml version="1.0" encoding="UTF-8"?>
<svg id="Layer_2" data-name="Layer 2" xmlns="http://www.w3.org/2000/svg" viewBox="0 0 55.78 32.2">
  <defs>
    <style>
      .cls-1 {
        fill: #c7ada8;
      }
    </style>
  </defs>
  <g id="Layer_1-2" data-name="Layer 1">
    <g id="g3460">
      <g id="g3466">
        <path class="cls-1" d="M54.96,11.24c-.45,0-.82-.37-.82-.82,0-2.16-2.69-4.36-7.39-6.02-5.03-1.78-11.73-2.77-18.87-2.77s-13.84.98-18.87,2.77c-4.69,1.67-7.39,3.86-7.39,6.02,0,.45-.37.82-.82.82s-.82-.37-.82-.82c0-2.94,3.01-5.62,8.47-7.56C13.67,1.02,20.57,0,27.89,0s14.22,1.02,19.42,2.86c5.46,1.94,8.47,4.62,8.47,7.56,0,.45-.37.82-.82.82Z"/>
      </g>
      <g id="g3470">
        <path class="cls-1" d="M13.04,32.2H.82c-.45,0-.82-.37-.82-.82V10.42c0-.37.25-.69.6-.79.36-.1.73.06.92.38l12.23,20.96c.15.25.15.56,0,.82s-.42.41-.71.41ZM1.63,30.57h9.99L1.63,13.45v17.12Z"/>
      </g>
      <g id="g3474">
        <path class="cls-1" d="M54.96,32.2h-12.23c-.29,0-.56-.16-.71-.41s-.14-.57,0-.82l12.23-20.96c.19-.32.56-.47.92-.38.36.1.6.42.6.79v20.96c0,.45-.37.82-.82.82ZM44.16,30.57h9.99V13.45l-9.99,17.12Z"/>
      </g>
      <g id="g3478">
        <path class="cls-1" d="M27.89,31.33c-3.13,0-6.09-.47-8.32-1.33-2.48-.95-3.85-2.32-3.85-3.85s1.37-2.9,3.85-3.85c2.24-.86,5.19-1.33,8.32-1.33,2.2,0,4.35.24,6.22.69.44.11.71.55.6.99s-.55.71-.99.6c-1.74-.42-3.76-.64-5.83-.64-6.53,0-10.54,2.07-10.54,3.55s4.01,3.55,10.54,3.55,10.54-2.07,10.54-3.55c0-.53-.5-1.12-1.4-1.66-.39-.23-.51-.73-.28-1.12s.73-.51,1.12-.28c1.81,1.08,2.19,2.26,2.19,3.06,0,1.53-1.37,2.9-3.85,3.85-2.24.86-5.19,1.33-8.32,1.33Z"/>
      </g>
      <g id="g3482">
        <path class="cls-1" d="M54.96,11.24c-.45,0-.82-.37-.82-.82,0-2.16-2.69-4.36-7.39-6.02-5.03-1.78-11.73-2.77-18.87-2.77s-13.84.98-18.87,2.77c-4.69,1.67-7.39,3.86-7.39,6.02,0,.45-.37.82-.82.82s-.82-.37-.82-.82c0-2.94,3.01-5.62,8.47-7.56C13.67,1.02,20.57,0,27.89,0s14.22,1.02,19.42,2.86c5.46,1.94,8.47,4.62,8.47,7.56,0,.45-.37.82-.82.82Z"/>
      </g>
      <g id="g3486">
        <path class="cls-1" d="M3.56,15.5c-.07,0-.14,0-.21-.03-.44-.11-.7-.56-.59-1,.68-2.62,3.66-5,8.4-6.69,4.59-1.64,10.53-2.54,16.72-2.54,6.55,0,12.73,1,17.43,2.81.42.16.63.64.47,1.06-.16.42-.64.63-1.06.47-4.51-1.74-10.49-2.7-16.84-2.7-6,0-11.75.87-16.17,2.45-4.15,1.48-6.84,3.51-7.37,5.56-.1.37-.43.61-.79.61Z"/>
      </g>
      <g id="g3490">
        <path class="cls-1" d="M52.29,15.84c-.39,0-.74-.28-.8-.68-.22-1.29-1.28-2.58-3.08-3.76-.38-.25-.48-.75-.24-1.13.25-.38.75-.48,1.13-.24,2.22,1.45,3.5,3.08,3.8,4.85.08.44-.22.87-.67.94-.05,0-.09.01-.14.01Z"/>
      </g>
      <g id="g3494">
        <path class="cls-1" d="M6.93,21.72c-.45,0-.82-.37-.82-.82,0-2.85,2.27-5.49,6.4-7.44.41-.19.9-.02,1.09.39.19.41.02.9-.39,1.09-3.52,1.66-5.47,3.78-5.47,5.96,0,.45-.37.82-.82.82Z"/>
      </g>
      <g id="g3498">
        <path class="cls-1" d="M48.85,21.72c-.45,0-.82-.37-.82-.82,0-4.76-9.22-8.79-20.14-8.79-4.05,0-7.96.54-11.32,1.55-.43.13-.89-.11-1.02-.54-.13-.43.11-.89.54-1.02,3.5-1.06,7.58-1.62,11.79-1.62,5.71,0,11.1,1.03,15.16,2.89,4.27,1.96,6.62,4.63,6.62,7.54,0,.45-.37.82-.82.82Z"/>
      </g>
      <g id="g3502">
        <path class="cls-1" d="M46.18,26.25c-.4,0-.75-.3-.81-.7-.3-2.14-2.19-4.16-5.33-5.69-3.3-1.61-7.61-2.5-12.15-2.5-8.92,0-16.58,3.5-17.44,7.96-.09.44-.51.73-.96.65-.44-.09-.73-.51-.65-.96.51-2.61,2.77-5,6.36-6.71,3.49-1.66,7.99-2.57,12.68-2.57s9.36.95,12.87,2.67c3.64,1.78,5.85,4.24,6.23,6.93.06.45-.25.86-.7.92-.04,0-.08,0-.11,0Z"/>
      </g>
      <g id="g3506">
        <path class="cls-1" d="M22.65,17.35c-.41,0-.76-.3-.81-.72l-1.86-15.12c-.05-.45.26-.86.71-.91.45-.06.86.26.91.71l1.86,15.12c.05.45-.26.86-.71.91-.03,0-.07,0-.1,0Z"/>
      </g>
      <g id="g3510">
        <path class="cls-1" d="M15.18,19.8c-.31,0-.61-.18-.74-.48L7.61,4.43c-.19-.41,0-.9.4-1.08.41-.19.9,0,1.08.4l6.83,14.89c.19.41,0,.9-.4,1.08-.11.05-.23.07-.34.07Z"/>
      </g>
      <g id="g3514">
        <path class="cls-1" d="M54.96,11.24c-.45,0-.82-.37-.82-.82,0-2.16-2.69-4.36-7.39-6.02-5.03-1.78-11.73-2.77-18.87-2.77s-13.84.98-18.87,2.77c-4.69,1.67-7.39,3.86-7.39,6.02,0,.45-.37.82-.82.82s-.82-.37-.82-.82c0-2.94,3.01-5.62,8.47-7.56C13.67,1.02,20.57,0,27.89,0s14.22,1.02,19.42,2.86c5.46,1.94,8.47,4.62,8.47,7.56,0,.45-.37.82-.82.82Z"/>
      </g>
      <g id="g3518">
        <path class="cls-1" d="M33.13,17.35s-.07,0-.1,0c-.45-.05-.77-.46-.71-.91l1.86-15.12c.05-.45.46-.77.91-.71.45.05.77.46.71.91l-1.86,15.12c-.05.41-.4.72-.81.72Z"/>
      </g>
      <g id="g3522">
        <path class="cls-1" d="M40.56,19.87c-.11,0-.23-.02-.34-.07-.41-.19-.59-.67-.4-1.08l6.87-14.96c.19-.41.67-.59,1.08-.4.41.19.59.67.4,1.08l-6.87,14.96c-.14.3-.43.48-.74.48Z"/>
      </g>
    </g>
  </g>
</svg>