<?xml version="1.0" encoding="UTF-8"?>
<svg id="Layer_2" data-name="Layer 2" xmlns="http://www.w3.org/2000/svg" viewBox="0 0 62.93 37.93">
  <defs>
    <style>
      .cls-1 {
        fill: #c7ada8;
      }

      .cls-2 {
        fill: #010101;
      }
    </style>
  </defs>
  <g id="Layer_1-2" data-name="Layer 1">
    <g id="layer_1" data-name="layer 1">
      <path class="cls-2" d="M12.72,12.49c3.16,0,6.05,1.15,8.27,3.06l4.01-4.01-.61-2.28-.02-.08-1.19-4.44-2.3.39c-.43.07-.85-.15-1.04-.52l-1.78-3.14c-.27-.47-.1-1.07.37-1.34.15-.09.32-.13.48-.13h0s9.46,0,9.46,0c.43,0,.82.18,1.1.46s.46.68.46,1.1c0,.67-.39,1.26-.95,1.7-.52.41-1.23.71-1.84.81l-2.01.34.96,3.57h18.49l-1.01-3.77c-.03-.1-.05-.2-.05-.31,0-.54.44-.98.98-.98h5.27c1.49,0,2.45.83,2.88,1.9.16.4.24.83.24,1.25s-.08.85-.24,1.25c-.43,1.07-1.39,1.9-2.88,1.9-.54,0-.98-.44-.98-.98s.44-.98.98-.98.91-.29,1.05-.66c.06-.16.09-.34.09-.52s-.03-.37-.09-.52c-.15-.37-.5-.66-1.05-.66h-3.99l.98,3.65c.05.11.08.22.09.35l1.02,3.82c.76-.14,1.54-.21,2.33-.21,3.51,0,6.69,1.42,8.99,3.73h0s0,0,0,0c2.3,2.3,3.73,5.48,3.73,8.99s-1.42,6.69-3.73,8.99h0s-.02.02-.02.02c-2.3,2.29-5.47,3.71-8.97,3.71s-6.69-1.42-8.99-3.73c-.02-.02-.04-.04-.05-.06-2.27-2.3-3.67-5.46-3.67-8.93s1.42-6.69,3.73-8.99c1.33-1.33,2.95-2.37,4.76-3l-.61-2.29-14.99,14.99c-.19.19-.44.29-.7.29h0s-4.29,0-4.29,0c-.24,3.12-1.6,5.92-3.69,8.01h0c-2.3,2.3-5.48,3.73-8.99,3.73s-6.69-1.42-8.99-3.73h0c-2.3-2.3-3.73-5.48-3.73-8.99s1.42-6.69,3.73-8.99c.02-.02.04-.04.06-.05,2.3-2.27,5.46-3.67,8.93-3.67ZM19.6,16.94c-1.86-1.55-4.26-2.49-6.88-2.49-2.95,0-5.62,1.18-7.56,3.1l-.05.05c-1.95,1.95-3.15,4.63-3.15,7.6s1.2,5.66,3.15,7.6h0s0,0,0,0c1.94,1.94,4.63,3.15,7.6,3.15s5.66-1.2,7.6-3.15h0s0,0,0,0c1.73-1.73,2.87-4.04,3.1-6.62h-10.71c-.54,0-.98-.44-.98-.98,0-.27.11-.52.29-.7l.02-.02,7.56-7.55ZM22.38,16.94c1.71,1.99,2.81,4.52,3.02,7.29h3.01l-2.81-10.5-3.21,3.21ZM23.43,24.23c-.2-2.23-1.09-4.27-2.44-5.89l-5.89,5.89h8.33ZM57.82,17.61c-1.95-1.94-4.63-3.15-7.6-3.15-.62,0-1.23.05-1.82.15l2.77,10.35c.14.52-.17,1.06-.7,1.2-.52.14-1.06-.17-1.2-.7l-2.77-10.35c-1.47.54-2.79,1.4-3.88,2.49-1.95,1.95-3.15,4.63-3.15,7.6s1.18,5.62,3.1,7.56l.05.05c1.95,1.95,4.63,3.15,7.6,3.15s5.66-1.2,7.6-3.15c1.94-1.95,3.15-4.63,3.15-7.6s-1.2-5.66-3.15-7.6h0ZM27.35,1.97h-6.74l.63,1.11,2.46-.42h.09s3.03-.53,3.03-.53c.17-.03.36-.09.53-.17ZM26.61,9.94l.4,1.49c.04.08.06.17.07.26l3.11,11.61,13.37-13.37h-16.95Z"/>
      <path class="cls-1" d="M12.72,12.49c3.16,0,6.05,1.15,8.27,3.06l4.01-4.01-.61-2.28-.02-.08-1.19-4.44-2.3.39c-.43.07-.85-.15-1.04-.52l-1.78-3.14c-.27-.47-.1-1.07.37-1.34.15-.09.32-.13.48-.13h0s9.46,0,9.46,0c.43,0,.82.18,1.1.46s.46.68.46,1.1c0,.67-.39,1.26-.95,1.7-.52.41-1.23.71-1.84.81l-2.01.34.96,3.57h18.49l-1.01-3.77c-.03-.1-.05-.2-.05-.31,0-.54.44-.98.98-.98h5.27c1.49,0,2.45.83,2.88,1.9.16.4.24.83.24,1.25s-.08.85-.24,1.25c-.43,1.07-1.39,1.9-2.88,1.9-.54,0-.98-.44-.98-.98s.44-.98.98-.98.91-.29,1.05-.66c.06-.16.09-.34.09-.52s-.03-.37-.09-.52c-.15-.37-.5-.66-1.05-.66h-3.99l.98,3.65c.05.11.08.22.09.35l1.02,3.82c.76-.14,1.54-.21,2.33-.21,3.51,0,6.69,1.42,8.99,3.73h0s0,0,0,0c2.3,2.3,3.73,5.48,3.73,8.99s-1.42,6.69-3.73,8.99h0s-.02.02-.02.02c-2.3,2.29-5.47,3.71-8.97,3.71s-6.69-1.42-8.99-3.73c-.02-.02-.04-.04-.05-.06-2.27-2.3-3.67-5.46-3.67-8.93s1.42-6.69,3.73-8.99c1.33-1.33,2.95-2.37,4.76-3l-.61-2.29-14.99,14.99c-.19.19-.44.29-.7.29h0s-4.29,0-4.29,0c-.24,3.12-1.6,5.92-3.69,8.01h0c-2.3,2.3-5.48,3.73-8.99,3.73s-6.69-1.42-8.99-3.73h0c-2.3-2.3-3.73-5.48-3.73-8.99s1.42-6.69,3.73-8.99c.02-.02.04-.04.06-.05,2.3-2.27,5.46-3.67,8.93-3.67ZM19.6,16.94c-1.86-1.55-4.26-2.49-6.88-2.49-2.95,0-5.62,1.18-7.56,3.1l-.05.05c-1.95,1.95-3.15,4.63-3.15,7.6s1.2,5.66,3.15,7.6h0s0,0,0,0c1.94,1.94,4.63,3.15,7.6,3.15s5.66-1.2,7.6-3.15h0s0,0,0,0c1.73-1.73,2.87-4.04,3.1-6.62h-10.71c-.54,0-.98-.44-.98-.98,0-.27.11-.52.29-.7l.02-.02,7.56-7.55ZM22.38,16.94c1.71,1.99,2.81,4.52,3.02,7.29h3.01l-2.81-10.5-3.21,3.21ZM23.43,24.23c-.2-2.23-1.09-4.27-2.44-5.89l-5.89,5.89h8.33ZM57.82,17.61c-1.95-1.94-4.63-3.15-7.6-3.15-.62,0-1.23.05-1.82.15l2.77,10.35c.14.52-.17,1.06-.7,1.2-.52.14-1.06-.17-1.2-.7l-2.77-10.35c-1.47.54-2.79,1.4-3.88,2.49-1.95,1.95-3.15,4.63-3.15,7.6s1.18,5.62,3.1,7.56l.05.05c1.95,1.95,4.63,3.15,7.6,3.15s5.66-1.2,7.6-3.15c1.94-1.95,3.15-4.63,3.15-7.6s-1.2-5.66-3.15-7.6h0ZM27.35,1.97h-6.74l.63,1.11,2.46-.42h.09s3.03-.53,3.03-.53c.17-.03.36-.09.53-.17ZM26.61,9.94l.4,1.49c.04.08.06.17.07.26l3.11,11.61,13.37-13.37h-16.95Z"/>
    </g>
  </g>
</svg>