<?xml version="1.0" encoding="UTF-8"?>
<svg id="Layer_2" data-name="Layer 2" xmlns="http://www.w3.org/2000/svg" viewBox="0 0 28.94 42.14">
  <defs>
    <style>
      .cls-1 {
        fill: #c7ada8;
        fill-rule: evenodd;
      }
    </style>
  </defs>
  <g id="Layer_1-2" data-name="Layer 1">
    <g id="Layer_1-3" data-name="Layer_1">
      <path class="cls-1" d="M21.96,42.14H6.99c-.18,0-.36-.11-.45-.27-.08-.17-.07-.36.04-.51l3.17-4.44h9.43l3.16,4.41c.07.08.11.19.11.31,0,.27-.21.5-.49.5Z"/>
      <path class="cls-1" d="M24.24,35.94H4.7c-2.59,0-4.7-2.11-4.7-4.7v-1.01h28.94v1.01c0,2.6-2.11,4.7-4.7,4.7ZM0,29.23v-2.21c0-.27.21-.5.49-.5h27.96c.28,0,.5.22.5.5v2.21H0Z"/>
      <path class="cls-1" d="M2.84,25.55c-.09-.32-.14-.66-.14-.99v-.96h23.52v.96c0,.33-.04.67-.13.99H2.84ZM2.7,22.61v-1.44c0-.27.22-.49.5-.49h22.54c.27,0,.49.21.49.49v1.44H2.7Z"/>
      <path class="cls-1" d="M6.11,19.69c-.09-.31-.13-.64-.13-.97v-.89h16.96v.89c0,.33-.04.66-.13.97H6.11ZM5.99,16.84v-1.51c0-.27.22-.5.5-.5h15.97c.27,0,.5.22.5.5v1.51H5.99Z"/>
      <path class="cls-1" d="M14.46,15.83c-.27,0-.49-.22-.49-.5V4.84c0-.27.21-.49.49-.49s.5.21.5.49v10.49c0,.27-.21.5-.5.5Z"/>
      <path class="cls-1" d="M14.46,5.34c-.27,0-.49-.22-.49-.5,0-2.12-1.73-3.85-3.86-3.85s-3.86,1.73-3.86,3.85c0,.27-.22.5-.5.5s-.49-.22-.49-.5C5.28,2.18,7.45,0,10.12,0s4.84,2.18,4.84,4.84c0,.27-.21.5-.5.5Z"/>
      <path class="cls-1" d="M23.17,5.34c-.28,0-.5-.22-.5-.5,0-2.12-1.73-3.85-3.86-3.85s-3.86,1.73-3.86,3.85c0,.27-.21.5-.5.5s-.49-.22-.49-.5c0-2.66,2.17-4.84,4.84-4.84s4.84,2.18,4.84,4.84c0,.27-.21.5-.49.5Z"/>
      <path class="cls-1" d="M14.46,11.51c-.27,0-.49-.22-.49-.5,0-1.15-.93-2.08-2.08-2.08s-2.08.93-2.08,2.08c0,.27-.22.5-.5.5s-.5-.22-.5-.5c0-1.69,1.38-3.06,3.07-3.06s3.06,1.37,3.06,3.06c0,.27-.21.5-.5.5Z"/>
      <path class="cls-1" d="M19.62,11.51c-.27,0-.5-.22-.5-.5,0-1.15-.93-2.08-2.08-2.08s-2.08.93-2.08,2.08c0,.27-.21.5-.5.5s-.49-.22-.49-.5c0-1.69,1.37-3.06,3.06-3.06s3.07,1.37,3.07,3.06c0,.27-.22.5-.5.5Z"/>
      <path class="cls-1" d="M6.1,7.51c-.26,0-.48-.2-.49-.48v-.11c-.02-.27.19-.51.47-.52s.51.2.52.48v.12c0,.27-.2.5-.48.51h-.02Z"/>
      <path class="cls-1" d="M5.97,9.3c-.26,0-.49-.2-.5-.48v-.11c0-.27.2-.51.48-.52s.5.2.51.48v.12c.02.27-.19.5-.47.51h-.02Z"/>
      <path class="cls-1" d="M7.84,7.95c-.27,0-.49-.21-.5-.48v-.11c0-.28.19-.51.47-.52s.51.2.52.48v.11c.02.27-.19.51-.47.52h-.02Z"/>
      <path class="cls-1" d="M10.91,13.17c-.27,0-.49-.2-.5-.48v-.11c-.02-.27.19-.51.47-.52s.51.2.52.48v.12c0,.27-.2.5-.48.51h0Z"/>
      <path class="cls-1" d="M21.03,13.46c-.26,0-.48-.21-.49-.48v-.12c-.02-.27.19-.5.47-.51s.51.2.52.48v.11c0,.27-.2.51-.48.52h-.02Z"/>
      <path class="cls-1" d="M23.17,9.43c-.26,0-.48-.2-.49-.47v-.12c-.02-.27.19-.51.47-.52s.51.2.52.48v.12c0,.27-.2.5-.48.51h-.02Z"/>
      <path class="cls-1" d="M25.02,11c-.26,0-.48-.21-.49-.48v-.12c-.02-.27.19-.5.47-.51s.51.2.52.48v.11c0,.27-.2.51-.48.52h-.02Z"/>
      <path class="cls-1" d="M25.5,7.84c-.26,0-.49-.21-.5-.48v-.12c0-.27.2-.5.48-.51.26,0,.5.19.51.48v.11c.02.27-.19.51-.47.52h-.02Z"/>
    </g>
  </g>
</svg>