<?xml version="1.0" encoding="UTF-8"?>
<svg id="Layer_2" data-name="Layer 2" xmlns="http://www.w3.org/2000/svg" viewBox="0 0 33.38 37.97">
  <defs>
    <style>
      .cls-1 {
        fill: #c7ada8;
      }

      .cls-2 {
        fill: #010101;
      }
    </style>
  </defs>
  <g id="Layer_1-2" data-name="Layer 1">
    <g id="Layer_31" data-name="Layer 31">
      <g>
        <path class="cls-2" d="M4.29,23.69c0,1.92,1.56,3.48,3.48,3.48.72,0,1.4-.22,1.99-.62.03-.02.06-.03.09-.04v-3.06c0-2.29-1.59-3.51-2.27-4.03,0,0-.28-.23-.06-.5.17-.21.45-.01.45-.01.46.35,1.29,1,1.88,2.03v-2.9c0-.18.14-.32.32-.32s.32.14.32.32v14.97c.42-.24.89-.39,1.39-.45v-6.3s0-.03,0-.05v-8.17c0-.18.14-.32.32-.32s.32.14.32.32v4.97c.57-.96,1.38-1.7,1.91-1.99.15-.08.35-.03.44.13.09.16.03.35-.13.44-.75.42-2.23,1.94-2.23,3.57v.95c.72.69,1.67,1.08,2.67,1.08,2.14,0,3.87-1.74,3.87-3.87,0-.46-.08-.92-.24-1.35-.04-.1-.02-.22.05-.31.07-.09.18-.13.28-.13.08,0,.16,0,.23,0,1.58,0,2.86-1.28,2.86-2.86,0-1.03-.56-1.98-1.45-2.49-.11-.06-.17-.17-.16-.29,0-.12.08-.23.19-.28,1.2-.55,1.98-1.77,1.98-3.09,0-1.51-1.02-2.86-2.47-3.27-.1-.03-.18-.1-.21-.2-.04-.1-.02-.21.04-.29.43-.63.65-1.36.65-2.12,0-2.08-1.7-3.78-3.78-3.78-.59,0-1.16.13-1.69.4-.08.04-.17.04-.25.02-.08-.03-.15-.09-.19-.17-.84-1.87-2.7-3.08-4.75-3.08-2.87,0-5.2,2.33-5.2,5.2,0,.18,0,.36.03.54,0,.09-.02.18-.08.25s-.15.11-.24.11c-2.58,0-4.66,2.08-4.66,4.63,0,1.35.59,2.63,1.62,3.51.08.06.12.16.11.26,0,.1-.06.19-.14.25-1,.7-1.59,1.84-1.59,3.05,0,2.05,1.67,3.72,3.72,3.72.24,0,.47-.02.7-.07.13-.02.25.03.32.13.07.1.08.24.01.35-.31.53-.47,1.13-.47,1.75Z"/>
        <path class="cls-2" d="M26.63,35.55c-.7,0-1.37.26-1.88.72-.07.06-.16.09-.25.08-.09-.01-.18-.06-.23-.14-.59-.84-1.55-1.34-2.58-1.34-.85,0-1.64.33-2.24.94-.07.07-.16.1-.26.09-.1,0-.18-.06-.24-.14-.41-.59-1.09-.95-1.82-.95-.51,0-1.01.18-1.41.5-.08.07-.19.09-.29.06-.1-.03-.18-.1-.22-.2-.43-1.22-1.59-2.03-2.88-2.03-1.64,0-2.98,1.28-3.05,2.92,0,.12-.07.22-.18.27-.1.05-.23.05-.32-.02-.39-.26-.84-.4-1.31-.4-1.19,0-2.17.89-2.34,2.04h24.25c-.19-1.36-1.35-2.42-2.77-2.42Z"/>
        <path class="cls-2" d="M32.12,19.25c-.08-.06-.14-.15-.14-.25,0-.1.04-.2.12-.26.82-.68,1.29-1.67,1.29-2.71,0-1.97-1.66-3.57-3.71-3.57-.09,0-.19-.04-.25-.11-.06-.07-.1-.16-.09-.25.02-.14.02-.28.02-.42,0-2.22-1.87-4.02-4.18-4.02-1.33,0-2.55.6-3.34,1.62.99.75,1.62,1.93,1.62,3.23,0,1.39-.72,2.67-1.87,3.41.83.66,1.32,1.67,1.32,2.74,0,1.87-1.48,3.4-3.32,3.5.1.37.14.75.14,1.13,0,1.39-.63,2.64-1.63,3.47.39,1.25,1.59,2.14,2.96,2.14.8,0,1.54-.3,2.12-.82v-.71c0-1.19-1.14-2.4-1.78-2.74-.16-.08-.22-.28-.13-.44s.28-.22.44-.13c.41.22,1.01.75,1.47,1.44v-3.71c0-.18.14-.32.32-.32s.32.14.32.32v6.43s0,.03,0,.04v6.65c.28.19.54.42.76.68.08-.06.17-.1.25-.15v-13.64c0-.18.14-.32.32-.32s.32.14.32.32v2.08c.47-.73,1.09-1.19,1.44-1.45.14-.11.35-.08.46.06.11.14.08.34-.06.45h-.01c-.55.41-1.82,1.36-1.82,3.12v2.36s.03,0,.05.02c.47.32,1.02.48,1.59.48,1.53,0,2.78-1.2,2.78-2.67,0-.47-.13-.93-.37-1.34-.07-.11-.06-.25.01-.35.07-.1.2-.16.32-.13.18.03.37.05.56.05,1.64,0,2.97-1.28,2.97-2.86,0-.93-.47-1.81-1.27-2.34Z"/>
      </g>
      <g>
        <path class="cls-1" d="M4.29,23.69c0,1.92,1.56,3.48,3.48,3.48.72,0,1.4-.22,1.99-.62.03-.02.06-.03.09-.04v-3.06c0-2.29-1.59-3.51-2.27-4.03,0,0-.28-.23-.06-.5.17-.21.45-.01.45-.01.46.35,1.29,1,1.88,2.03v-2.9c0-.18.14-.32.32-.32s.32.14.32.32v14.97c.42-.24.89-.39,1.39-.45v-6.3s0-.03,0-.05v-8.17c0-.18.14-.32.32-.32s.32.14.32.32v4.97c.57-.96,1.38-1.7,1.91-1.99.15-.08.35-.03.44.13.09.16.03.35-.13.44-.75.42-2.23,1.94-2.23,3.57v.95c.72.69,1.67,1.08,2.67,1.08,2.14,0,3.87-1.74,3.87-3.87,0-.46-.08-.92-.24-1.35-.04-.1-.02-.22.05-.31.07-.09.18-.13.28-.13.08,0,.16,0,.23,0,1.58,0,2.86-1.28,2.86-2.86,0-1.03-.56-1.98-1.45-2.49-.11-.06-.17-.17-.16-.29,0-.12.08-.23.19-.28,1.2-.55,1.98-1.77,1.98-3.09,0-1.51-1.02-2.86-2.47-3.27-.1-.03-.18-.1-.21-.2-.04-.1-.02-.21.04-.29.43-.63.65-1.36.65-2.12,0-2.08-1.7-3.78-3.78-3.78-.59,0-1.16.13-1.69.4-.08.04-.17.04-.25.02-.08-.03-.15-.09-.19-.17-.84-1.87-2.7-3.08-4.75-3.08-2.87,0-5.2,2.33-5.2,5.2,0,.18,0,.36.03.54,0,.09-.02.18-.08.25s-.15.11-.24.11c-2.58,0-4.66,2.08-4.66,4.63,0,1.35.59,2.63,1.62,3.51.08.06.12.16.11.26,0,.1-.06.19-.14.25-1,.7-1.59,1.84-1.59,3.05,0,2.05,1.67,3.72,3.72,3.72.24,0,.47-.02.7-.07.13-.02.25.03.32.13.07.1.08.24.01.35-.31.53-.47,1.13-.47,1.75Z"/>
        <path class="cls-1" d="M26.63,35.55c-.7,0-1.37.26-1.88.72-.07.06-.16.09-.25.08-.09-.01-.18-.06-.23-.14-.59-.84-1.55-1.34-2.58-1.34-.85,0-1.64.33-2.24.94-.07.07-.16.1-.26.09-.1,0-.18-.06-.24-.14-.41-.59-1.09-.95-1.82-.95-.51,0-1.01.18-1.41.5-.08.07-.19.09-.29.06-.1-.03-.18-.1-.22-.2-.43-1.22-1.59-2.03-2.88-2.03-1.64,0-2.98,1.28-3.05,2.92,0,.12-.07.22-.18.27-.1.05-.23.05-.32-.02-.39-.26-.84-.4-1.31-.4-1.19,0-2.17.89-2.34,2.04h24.25c-.19-1.36-1.35-2.42-2.77-2.42Z"/>
        <path class="cls-1" d="M32.12,19.25c-.08-.06-.14-.15-.14-.25,0-.1.04-.2.12-.26.82-.68,1.29-1.67,1.29-2.71,0-1.97-1.66-3.57-3.71-3.57-.09,0-.19-.04-.25-.11-.06-.07-.1-.16-.09-.25.02-.14.02-.28.02-.42,0-2.22-1.87-4.02-4.18-4.02-1.33,0-2.55.6-3.34,1.62.99.75,1.62,1.93,1.62,3.23,0,1.39-.72,2.67-1.87,3.41.83.66,1.32,1.67,1.32,2.74,0,1.87-1.48,3.4-3.32,3.5.1.37.14.75.14,1.13,0,1.39-.63,2.64-1.63,3.47.39,1.25,1.59,2.14,2.96,2.14.8,0,1.54-.3,2.12-.82v-.71c0-1.19-1.14-2.4-1.78-2.74-.16-.08-.22-.28-.13-.44s.28-.22.44-.13c.41.22,1.01.75,1.47,1.44v-3.71c0-.18.14-.32.32-.32s.32.14.32.32v6.43s0,.03,0,.04v6.65c.28.19.54.42.76.68.08-.06.17-.1.25-.15v-13.64c0-.18.14-.32.32-.32s.32.14.32.32v2.08c.47-.73,1.09-1.19,1.44-1.45.14-.11.35-.08.46.06.11.14.08.34-.06.45h-.01c-.55.41-1.82,1.36-1.82,3.12v2.36s.03,0,.05.02c.47.32,1.02.48,1.59.48,1.53,0,2.78-1.2,2.78-2.67,0-.47-.13-.93-.37-1.34-.07-.11-.06-.25.01-.35.07-.1.2-.16.32-.13.18.03.37.05.56.05,1.64,0,2.97-1.28,2.97-2.86,0-.93-.47-1.81-1.27-2.34Z"/>
      </g>
    </g>
  </g>
</svg>