<?xml version="1.0" encoding="UTF-8"?>
<svg id="Layer_2" data-name="Layer 2" xmlns="http://www.w3.org/2000/svg" viewBox="0 0 31.32 39.58">
  <defs>
    <style>
      .cls-1 {
        fill: none;
        stroke: #0d1b29;
        stroke-miterlimit: 10;
      }
    </style>
  </defs>
  <g id="Layer_1-2" data-name="Layer 1">
    <path class="cls-1" d="M.5,1.88v35.83c0,.76.62,1.38,1.38,1.38h27.56c.76,0,1.38-.62,1.38-1.38V1.88c0-.76-.62-1.38-1.38-1.38H1.88c-.76,0-1.38.62-1.38,1.38ZM19.54,21.17c-.57,1.6-2.09,2.76-3.88,2.76s-3.31-1.16-3.88-2.76h7.76ZM11.78,18.41c.57-1.6,2.09-2.76,3.88-2.76s3.31,1.16,3.88,2.76h-7.76ZM10.15,36.33v-4.13h11.02v4.13h-11.02ZM23.93,36.33v-5.51c0-.76-.62-1.38-1.38-1.38h-13.78c-.76,0-1.38.62-1.38,1.38v5.51H3.26v-15.16h5.65c.64,3.14,3.42,5.51,6.75,5.51s6.11-2.37,6.75-5.51h5.65v15.16h-4.13ZM28.06,18.41h-5.65c-.64-3.14-3.42-5.51-6.75-5.51s-6.11,2.37-6.75,5.51H3.26V3.26h4.13v5.51c0,.76.62,1.38,1.38,1.38h13.78c.76,0,1.38-.62,1.38-1.38V3.26h4.13v15.16ZM21.17,3.26v4.13h-11.02V3.26h11.02Z"/>
  </g>
</svg>