<?xml version="1.0" encoding="UTF-8"?>
<svg id="Layer_2" data-name="Layer 2" xmlns="http://www.w3.org/2000/svg" viewBox="0 0 34.74 34.74">
  <defs>
    <style>
      .cls-1 {
        fill: #010101;
      }
    </style>
  </defs>
  <g id="Layer_1-2" data-name="Layer 1">
    <g>
      <path class="cls-1" d="M24.5,24.43c-2.25,0-4.07,1.83-4.07,4.07s1.83,4.14,4.07,4.14,4.07-1.89,4.07-4.14-1.83-4.07-4.07-4.07Z"/>
      <path class="cls-1" d="M33.94,14.16c2.2-5.17-.33-11.15-5.5-13.35s-11.15.22-13.35,5.39c-.57,1.34-.79,2.73-.78,4.09l17.11,7.26c.99-.94,1.94-2.06,2.51-3.4Z"/>
      <path class="cls-1" d="M14.61,12.63c.59,2.36,2,4.5,4.08,5.93l-3.26,7.68c-.44,1.03.04,2.23,1.08,2.67,1.03.44,2.23-.04,2.67-1.08l3.26-7.68c2.48.5,4.99.03,7.1-1.19l-14.93-6.34Z"/>
      <path class="cls-1" d="M10.25,34.74c1.12,0,2.04-.91,2.04-2.04v-8.48c.75-.15,1.46-.41,2.14-.72l1.33-3.14H2.07c1.47,1.94,3.66,3.36,6.14,3.87v8.48c0,1.12.91,2.04,2.04,2.04h0Z"/>
      <path class="cls-1" d="M13.62,4.69c-1.06-.37-2.19-.62-3.37-.62C4.62,4.07,0,8.63,0,14.25c0,1.45.34,2.82.88,4.07h14.55c-3.1-3.46-4.06-8.49-2.18-12.91.11-.25.25-.48.37-.72Z"/>
    </g>
  </g>
</svg>