<?xml version="1.0" encoding="UTF-8"?>
<svg id="Layer_2" data-name="Layer 2" xmlns="http://www.w3.org/2000/svg" viewBox="0 0 40.38 40.38">
  <defs>
    <style>
      .cls-1 {
        fill: #010101;
      }
    </style>
  </defs>
  <g id="Layer_1-2" data-name="Layer 1">
    <g>
      <path class="cls-1" d="M39.86.53s0,0,0,0c-.33-.33-.79-.52-1.26-.52h0c-.41,0-.8.14-1.12.39-4.29,3.43-8.6,6.97-12.81,10.52-1.02.86-2.05,1.73-3.07,2.61L9.9,1.85c-1.15-1.15-3.03-1.15-4.18,0L.17,7.39c-.23.23-.23.61,0,.84.23.23.61.23.84,0l3.87-3.87.85.85-3.87,3.87c-.23.23-.23.61,0,.84.12.12.27.17.42.17s.3-.06.42-.17l3.87-3.87.85.85-3.87,3.87c-.23.23-.23.61,0,.84.12.12.27.17.42.17s.3-.06.42-.17l3.87-3.87.85.85-3.87,3.87c-.23.23-.23.61,0,.84.12.12.27.17.42.17s.3-.06.42-.17l3.87-3.87.85.85-3.87,3.87c-.23.23-.23.61,0,.84.12.12.27.17.42.17s.3-.06.42-.17l3.87-3.87.85.85-3.87,3.87c-.23.23-.23.61,0,.84.12.12.27.17.42.17s.3-.06.42-.17l3.87-3.87.85.85-3.87,3.87c-.23.23-.23.61,0,.84.12.12.27.17.42.17s.3-.06.42-.17l3.87-3.87.85.85-3.87,3.87c-.23.23-.23.61,0,.84.12.12.27.17.42.17s.3-.06.42-.17l3.87-3.87.88.88c-1.82,1.58-3.62,3.17-5.41,4.77t0,0c-.53.47-1.11,1.02-1.68,1.53-.35.25-.28.7-.11.87,0,0,0,0,0,0,.57.69.88,1.57.88,2.48,0,1.06-.41,2.06-1.15,2.8,0,0-1.78,1.78-1.78,1.78-2.57,2.63-7.1.84-7.11-2.89,0-2.26,1.83-4.13,4.14-4.13,1.26,0,2.43.56,3.22,1.53.21.26.61.29.86.07,0,0,0,0,0,0h0c.28-.25.26-.7-.05-.92-1.01-1.18-2.48-1.85-4.04-1.85h0C2.36,23.04,0,25.45,0,28.36c0,2.19,1.34,4.13,3.32,4.93,1.18.48,2.47.51,3.63.14-1.11,3.45,1.47,6.95,5.06,6.95h0c2.93,0,5.32-2.37,5.32-5.32,0-1.4-.54-2.72-1.52-3.72,0,0,1.21-1.37,1.21-1.37,2.13-2.37,4.24-4.75,6.32-7.14l.89.89-3.87,3.87c-.23.23-.23.61,0,.84.12.12.27.17.42.17s.3-.06.42-.17l3.87-3.87.85.85-3.87,3.87c-.23.23-.23.61,0,.84.12.12.27.17.42.17s.3-.06.42-.17l3.87-3.87.85.85-3.87,3.87c-.23.23-.23.61,0,.84.12.12.27.17.42.17s.3-.06.42-.17l3.87-3.87.85.85-3.87,3.87c-.23.23-.23.61,0,.84.12.12.27.17.42.17s.3-.06.42-.17l3.87-3.87.85.85-3.87,3.87c-.23.23-.23.61,0,.84.12.12.27.17.42.17s.3-.06.42-.17l3.87-3.87.85.85-3.87,3.87c-.23.23-.23.61,0,.84.12.12.27.17.42.17s.3-.06.42-.17l3.87-3.87.85.85-3.87,3.87c-.23.23-.23.61,0,.84.12.12.27.17.42.17s.3-.06.42-.17l3.87-3.87.85.85-3.87,3.87c-.23.23-.23.61,0,.84.12.12.27.17.42.17s.3-.06.42-.17l4.29-4.29s0,0,0,0c0,0,0,0,0,0l1.25-1.25c.56-.56.87-1.3.87-2.09s-.31-1.53-.87-2.09l-11.69-11.69c4.54-5.29,8.93-10.6,13.14-15.87.57-.72.51-1.74-.13-2.39ZM5.72,3.52l.84-.84c.69-.69,1.82-.69,2.51,0l11.62,11.62c-.75.64-1.5,1.29-2.25,1.94L5.72,3.52ZM37.7,31.32c.34.34.52.78.52,1.25s-.18.92-.52,1.25l-.84.84c-.39-.39-11.89-11.89-12.73-12.73.65-.75,1.3-1.49,1.94-2.24l11.63,11.63ZM16.48,28.81c-.29-.22-1.05-.6-1.18-1.68-.04-.3-.29-.52-.59-.52-.36,0-.63.31-.59.66h0c.11.96.64,1.82,1.44,2.34.04.03.08.06.13.09-.41.47-.75.86-1.14,1.29-.11.12-.16.28-.15.44.01.16.09.31.22.41.99.81,1.54,1.98,1.54,3.22,0,2.28-1.84,4.14-4.14,4.14-2.28,0-4.14-1.84-4.14-4.14,0-1.87,1.19-2.87,1.28-3l1.75-1.75c.97-.97,1.5-2.27,1.5-3.64,0-1-.28-1.96-.82-2.78.46-.42.87-.8,1.33-1.22h0C25.75,11.23,38.05,1.4,38.28,1.26c-.16.16-23.24,23.23-23.34,23.35-.22.24-.19.62.05.84.24.22.62.19.84-.05.07-.08,23.13-23.13,23.3-23.3-.05.09-9.57,12.15-22.64,26.71Z"/>
      <path class="cls-1" d="M7.42,26.27c-1.87-1.87-5.05-.52-5.05,2.09,0,.79.31,1.53.87,2.09.58.58,1.33.86,2.09.86s1.51-.29,2.09-.86c1.15-1.15,1.15-3.03,0-4.18ZM6.58,29.62c-.69.69-1.82.69-2.51,0-1.11-1.11-.33-3.03,1.25-3.03,1.59,0,2.36,1.92,1.25,3.03Z"/>
      <path class="cls-1" d="M12.02,32.1c-1.22,0-2.26.7-2.73,1.82-.47,1.13-.22,2.37.64,3.23.57.57,1.31.87,2.07.87.38,0,.77-.08,1.15-.23,1.13-.47,1.83-1.51,1.83-2.73,0-1.63-1.33-2.96-2.96-2.96ZM12.69,36.7c-.53.22-1.31.23-1.93-.38-.62-.62-.6-1.4-.38-1.94.22-.53.76-1.09,1.63-1.09.98,0,1.77.8,1.77,1.77,0,.87-.57,1.42-1.1,1.64Z"/>
    </g>
  </g>
</svg>