<?xml version="1.0" encoding="UTF-8"?>
<svg id="Layer_2" data-name="Layer 2" xmlns="http://www.w3.org/2000/svg" viewBox="0 0 44.23 42.95">
  <defs>
    <style>
      .cls-1 {
        fill: #0d1b29;
      }
    </style>
  </defs>
  <g id="Layer_1-2" data-name="Layer 1">
    <g>
      <path class="cls-1" d="M25.35,8.91c-.94-.4-2.02.04-2.42.98-.2.46-.2.98,0,1.44.2.39.68.54,1.07.34.38-.2.53-.65.35-1.04-.06-.12.19-.36.3-.3.39.2.86.04,1.06-.35s.04-.86-.35-1.06c0,0,0,0,0,0h0Z"/>
      <path class="cls-1" d="M23.63,7.98c.44,0,.79-.36.79-.8,0-.12-.03-.23-.08-.34-.06-.12.19-.36.3-.3.39.19.87.02,1.05-.37.18-.39.03-.85-.35-1.04-.94-.4-2.02.04-2.42.98-.2.46-.2.98,0,1.44.13.27.41.44.71.44h0Z"/>
      <path class="cls-1" d="M20.66,10.95c.44,0,.79-.36.79-.8,0-.12-.03-.23-.08-.34-.06-.11.19-.36.3-.31.39.19.86.02,1.05-.37.18-.39.03-.85-.35-1.04-.94-.4-2.02.04-2.42.98-.2.46-.2.98,0,1.44.13.27.41.44.71.44h0Z"/>
      <path class="cls-1" d="M42.65,17.85c.87,0,1.58-.71,1.58-1.58v-2.96c0-.87-.71-1.58-1.58-1.58h-2.08c-.44,0-.79.36-.78.8,0,.43.35.77.78.78h2.08v2.96c-.52,0-8.1,0-8.87,0v-2.96s3.53,0,3.53,0c.44,0,.78-.37.78-.8,0-.43-.35-.77-.78-.78h-3.53v-2.11c.68-.19,1.14-.81,1.15-1.51v-3.3c0-.87-.71-1.58-1.58-1.58h-5.14c-2.27-3.36-6.83-4.24-10.2-1.97-.78.53-1.45,1.2-1.97,1.97h-5.14c-.87,0-1.58.71-1.58,1.58v3.3c0,.7.47,1.32,1.15,1.51v2.11H1.58C.71,11.73,0,12.44,0,13.31v2.96c.03.92.8,1.65,1.72,1.62.1,0,.21-.02.31-.04v19.63h-.45c-.87,0-1.58.71-1.58,1.58v2.31c0,.87.71,1.58,1.58,1.58h29.78c.44,0,.79-.36.78-.8,0-.43-.35-.77-.78-.78H1.58v-2.31c.4.03,31.03,0,41.07,0v2.31h-8.03c-.44,0-.78.37-.78.8,0,.43.35.77.78.78h8.03c.87,0,1.58-.71,1.58-1.58v-2.31c-.03-.92-.8-1.65-1.72-1.62-.1,0-.21.02-.31.04v-19.63h.45ZM10.45,37.49H3.61v-19.63h6.84v19.63ZM10.45,16.27H1.58v-2.96h8.87v2.96ZM22.11,1.55c3.17,0,5.73,2.57,5.74,5.74-.3,7.61-11.18,7.6-11.48,0,0-3.17,2.57-5.73,5.74-5.74ZM10.88,8.11v-3.3h4.35c-.39,1.05-.52,2.19-.39,3.3h-3.96ZM27.87,37.49h-4.97v-15.88h2.8c1.19,0,2.16.97,2.16,2.16v13.72ZM32.2,37.49h-2.75v-13.72c0-2.07-1.68-3.74-3.74-3.74h-7.19c-2.07,0-3.74,1.68-3.74,3.74v6.07c0,.44.36.78.8.78.43,0,.77-.35.78-.78v-6.07c0-1.19.97-2.16,2.16-2.16h2.8v15.88h-4.97v-4.4c0-.44-.36-.78-.8-.78-.43,0-.77.35-.78.78v4.4h-2.75V9.69h3.18c1.35,3.81,5.53,5.81,9.34,4.47,2.09-.74,3.73-2.38,4.47-4.47h3.18s0,27.79,0,27.79ZM33.34,8.11h-3.96c.13-1.12,0-2.25-.39-3.3h4.35v3.3ZM40.62,37.49h-6.84v-19.63h6.84v19.63Z"/>
      <path class="cls-1" d="M36.49,22.73h1.41c.44,0,.79-.35.79-.79s-.35-.79-.79-.79h-1.41c-.44,0-.78.36-.78.8,0,.43.35.77.78.78Z"/>
      <path class="cls-1" d="M36.49,26.17h1.41c.44,0,.79-.35.79-.79s-.35-.79-.79-.79h-1.41c-.44,0-.78.36-.78.8,0,.43.35.77.78.78Z"/>
      <path class="cls-1" d="M36.49,29.62h1.41c.44,0,.79-.35.79-.79s-.35-.79-.79-.79h-1.41c-.44,0-.78.36-.78.8,0,.43.35.77.78.78Z"/>
      <path class="cls-1" d="M6.01,22.73h1.41c.44,0,.79-.35.79-.79s-.35-.79-.79-.79h-1.41c-.44,0-.78.36-.78.8,0,.43.35.77.78.78Z"/>
      <path class="cls-1" d="M6.01,26.17h1.41c.44,0,.79-.35.79-.79s-.35-.79-.79-.79h-1.41c-.44,0-.78.36-.78.8,0,.43.35.77.78.78Z"/>
      <path class="cls-1" d="M6.01,29.62h1.41c.44,0,.79-.35.79-.79s-.35-.79-.79-.79h-1.41c-.44,0-.78.36-.78.8,0,.43.35.77.78.78Z"/>
    </g>
  </g>
</svg>