<?xml version="1.0" encoding="UTF-8"?>
<svg id="Layer_2" data-name="Layer 2" xmlns="http://www.w3.org/2000/svg" viewBox="0 0 36.33 39.03">
  <defs>
    <style>
      .cls-1 {
        fill: #0d1b29;
      }
    </style>
  </defs>
  <g id="Layer_1-2" data-name="Layer 1">
    <g>
      <path class="cls-1" d="M35.57,29.76c-.49-.49-1.14-.76-1.83-.76h-.06c-.66,0-1.25.33-1.61.83l-3.86-3.86-.79-5.89c-.35-2.6-2.58-4.56-5.21-4.56-.72,0-1.31.59-1.31,1.31v1.35c0,1.51-1.23,2.74-2.74,2.74s-2.74-1.23-2.74-2.74v-1.35c0-.72-.59-1.31-1.31-1.31-2.62,0-4.86,1.96-5.21,4.56l-.79,5.89-3.86,3.86c-.06-.09-.13-.17-.21-.25-.37-.37-.87-.58-1.4-.58h0c-1.46,0-2.65,1.19-2.65,2.66s1.15,2.61,2.58,2.65c-.35.49-.55,1.09-.55,1.73,0,1.65,1.34,2.99,2.99,2.99h26.3c1.65,0,2.99-1.34,2.99-2.99,0-.64-.21-1.24-.55-1.73,1.43-.04,2.58-1.22,2.58-2.66v-.05c0-.69-.27-1.34-.76-1.83ZM23.63,27.37l.22-1.85.2,1.01c.18.91.62,1.74,1.28,2.39l4.12,4.12h-4.72l-.99-3.96c-.14-.56-.18-1.14-.11-1.71ZM14.12,16.77s.04.02.04.04v1.35c0,2.21,1.8,4,4,4s4-1.8,4-4v-1.35s.02-.04.04-.04c.48,0,.93.09,1.36.24l-1.2,10.21c-.09.73-.04,1.46.14,2.17l.91,3.65h-10.52l.91-3.65c.18-.71.22-1.44.14-2.17l-1.2-10.21c.43-.16.89-.24,1.36-.24ZM12.48,25.52l.22,1.85c.07.57.03,1.15-.11,1.71l-.99,3.96h-4.72l4.12-4.12c.66-.66,1.1-1.48,1.28-2.39l.2-1.01ZM2.66,33.04c-.77,0-1.39-.62-1.39-1.39s.62-1.39,1.39-1.39c.19,0,.37.07.51.21.14.14.21.32.21.51,0,.26.15.49.39.58.24.1.51.04.69-.14l4.72-4.72c.1-.1.16-.23.18-.36l.81-6.11c.14-1.02.65-1.91,1.4-2.53l.44,3.76-.96,4.82c-.13.66-.46,1.27-.93,1.74l-5.02,5.02h-2.44ZM15.51,37.76H5.02c-.95,0-1.73-.78-1.73-1.73s.78-1.73,1.73-1.73h4.43v.31c0,.94.64,1.73,1.55,1.93l4.52,1v.21h0ZM15.51,36.26l-4.24-.94c-.33-.07-.56-.36-.56-.7v-.31h4.8v1.95ZM31.32,37.76h-14.54v-3.46h14.54c.95,0,1.73.78,1.73,1.73s-.78,1.73-1.73,1.73ZM35.07,31.64c0,.77-.62,1.4-1.39,1.4h-2.44l-5.02-5.02c-.48-.48-.8-1.08-.93-1.74l-.96-4.82.44-3.76c.74.62,1.26,1.51,1.4,2.53l.81,6.11c.02.14.08.27.18.36l4.72,4.72c.18.18.45.23.69.14.24-.1.39-.33.39-.58,0-.4.32-.72.72-.72h.06c.36,0,.69.14.94.39.25.25.39.59.39.94v.05h0Z"/>
      <path class="cls-1" d="M20.75,3.28c.05-.2.07-.41.07-.62,0-1.46-1.19-2.66-2.66-2.66s-2.66,1.19-2.66,2.66c0,.21.03.42.07.62-2.04.97-3.45,3.05-3.45,5.45v.62c0,.35.28.63.63.63.04,0,.3,0,.72-.03v.8c0,2.58,2.1,4.68,4.68,4.68s4.68-2.1,4.68-4.68v-.79c.23.04.47.07.72.07.35,0,.63-.28.63-.63v-.67c0-2.4-1.41-4.48-3.45-5.45ZM18.17,1.26c.77,0,1.39.62,1.39,1.39,0,.07,0,.14-.02.2-.44-.1-.9-.16-1.37-.16s-.93.06-1.37.16c0-.07-.02-.13-.02-.2,0-.77.62-1.39,1.39-1.39ZM21.58,10.75c0,1.88-1.53,3.41-3.41,3.41s-3.41-1.53-3.41-3.41v-.93c1.42-.2,3.4-.64,5.27-1.63.32.37.86.9,1.55,1.29v1.26h0ZM20.71,7.02c-.19-.28-.56-.36-.85-.19-2.41,1.43-5.23,1.77-6.46,1.85.02-2.61,2.15-4.72,4.76-4.72s4.74,2.11,4.76,4.72c-1.31-.35-2.2-1.64-2.21-1.66Z"/>
    </g>
  </g>
</svg>