<?xml version="1.0" encoding="UTF-8"?>
<svg id="Layer_2" data-name="Layer 2" xmlns="http://www.w3.org/2000/svg" viewBox="0 0 39.6 39.6">
  <defs>
    <style>
      .cls-1 {
        fill: #010101;
      }
    </style>
  </defs>
  <g id="Layer_1-2" data-name="Layer 1">
    <path class="cls-1" d="M37.74,28.85h-.2v-5.02c0-1.3-1.06-2.36-2.36-2.36H14.3v-1.17c0-1.32-1.07-2.4-2.4-2.4h-7.46v-6.45c0-1.23-1-2.22-2.22-2.22s-2.22,1-2.22,2.22v27.65c0,.27.22.49.49.49h3.96c.27,0,.49-.22.49-.49v-1.89h29.71v1.89c0,.27.22.49.49.49h3.96c.27,0,.49-.22.49-.49v-8.4c0-1.02-.83-1.85-1.85-1.85ZM38.61,30.7v5.53H.99v-6.39h36.76c.48,0,.87.39.87.87ZM4.45,28.85v-6.39h10.93v2.57c0,1.3,1.06,2.36,2.36,2.36h18.82v1.46H4.45ZM36.55,23.83v2.57h-18.82c-.76,0-1.37-.62-1.37-1.37v-2.57h18.82c.76,0,1.37.62,1.37,1.37h0ZM11.9,18.9c.78,0,1.41.63,1.41,1.41v1.17H4.45v-2.58h7.46ZM2.22,10.22c.68,0,1.24.56,1.24,1.24v17.4H.99V11.46c0-.68.56-1.24,1.24-1.24ZM3.96,38.61H.99v-1.39h2.97v1.39ZM35.64,38.61v-1.39h2.97v1.39h-2.97ZM15.57,17.41h21.44c.13,0,.26-.05.35-.14.09-.09.14-.22.14-.35V.49c0-.27-.22-.49-.49-.49H15.57c-.27,0-.49.22-.49.49v16.43c0,.27.22.49.49.49h0ZM16.07.99h20.46v15.44h-20.46V.99ZM35.33,1.68h-18.08c-.27,0-.49.22-.49.49v13.06c0,.27.22.49.49.49h18.08c.27,0,.49-.22.49-.49V2.18c0-.27-.22-.49-.49-.49ZM34.84,9.33h-1.02c-.07-.07-.15-.14-.22-.21-1.18-1.09-2.78-2.58-3.1-6.45h4.34v6.66ZM33.05,9.96l-1.63,4.78h-10.24l-1.63-4.78s.08-.08.13-.12c1.23-1.14,3.08-2.85,3.41-7.17h6.43c.34,4.32,2.18,6.03,3.41,7.17.04.04.09.08.13.12ZM22.09,2.67c-.32,3.88-1.92,5.36-3.1,6.45-.08.07-.15.14-.22.21h-1.02V2.67h4.34ZM17.75,10.31h.87l1.51,4.43h-2.38v-4.43h0ZM32.46,14.74l1.51-4.43h.87v4.43h-2.38Z"/>
  </g>
</svg>