<?xml version="1.0" encoding="UTF-8"?>
<svg id="Layer_2" data-name="Layer 2" xmlns="http://www.w3.org/2000/svg" viewBox="0 0 39.22 39.22">
  <defs>
    <style>
      .cls-1 {
        fill: #0d1b29;
      }
    </style>
  </defs>
  <g id="Layer_1-2" data-name="Layer 1">
    <g>
      <path class="cls-1" d="M36.48,5.86h-.93v-2.98c0-1.59-1.3-2.89-2.89-2.89-1,0-1.88.51-2.4,1.28-.52-.77-1.4-1.28-2.4-1.28-1.59,0-2.89,1.3-2.89,2.89v3.12h-10.73v-3.12c0-1.59-1.3-2.89-2.89-2.89-1,0-1.88.51-2.4,1.28-.52-.77-1.4-1.28-2.4-1.28-1.59,0-2.89,1.3-2.89,2.89v2.98h-.93c-1.51,0-2.74,1.23-2.74,2.74s1.23,2.74,2.74,2.74h.93v2.98c0,1.59,1.3,2.89,2.89,2.89,1,0,1.88-.51,2.4-1.28.52.77,1.4,1.28,2.4,1.28,1.59,0,2.89-1.3,2.89-2.89v-3.12h10.73v3.12c0,1.59,1.3,2.89,2.89,2.89,1,0,1.88-.51,2.4-1.28.52.77,1.4,1.28,2.4,1.28,1.59,0,2.89-1.3,2.89-2.89v-2.98h.93c1.51,0,2.74-1.23,2.74-2.74s-1.23-2.74-2.74-2.74ZM2.74,10.36c-.97,0-1.76-.79-1.76-1.76s.79-1.76,1.76-1.76h.93v3.52h-.93ZM6.56,16.23c-1.05,0-1.91-.86-1.91-1.91V2.89c0-1.05.86-1.91,1.91-1.91s1.91.86,1.91,1.91v11.43c0,1.05-.86,1.91-1.91,1.91ZM13.26,14.32c0,1.05-.86,1.91-1.91,1.91s-1.91-.86-1.91-1.91V2.89c0-1.05.86-1.91,1.91-1.91s1.91.86,1.91,1.91v11.43ZM14.24,10.22v-3.23h10.73v3.23h-10.73ZM27.87,16.23c-1.05,0-1.91-.86-1.91-1.91V2.89c0-1.05.86-1.91,1.91-1.91s1.91.86,1.91,1.91v11.43c0,1.05-.86,1.91-1.91,1.91ZM34.57,14.32c0,1.05-.86,1.91-1.91,1.91s-1.91-.86-1.91-1.91V2.89c0-1.05.86-1.91,1.91-1.91s1.91.86,1.91,1.91v11.43ZM36.48,10.36h-.93v-3.52h.93c.97,0,1.76.79,1.76,1.76s-.79,1.76-1.76,1.76Z"/>
      <path class="cls-1" d="M38.73,38.24c-1.34,0-2.6-.61-3.44-1.67-.19-.23-.58-.23-.77,0-.84,1.06-2.1,1.67-3.44,1.67s-2.6-.61-3.44-1.67c-.09-.12-.23-.19-.38-.19s-.29.07-.38.19c-.84,1.06-2.1,1.67-3.44,1.67s-2.6-.61-3.44-1.67c-.19-.23-.58-.23-.77,0-.84,1.06-2.1,1.67-3.44,1.67s-2.6-.61-3.44-1.67c-.19-.23-.58-.23-.77,0-.84,1.06-2.1,1.67-3.44,1.67s-2.6-.61-3.44-1.67c-.19-.23-.58-.23-.77,0-.84,1.06-2.1,1.67-3.44,1.67-.27,0-.49.22-.49.49s.22.49.49.49c1.45,0,2.82-.58,3.82-1.6,1.01,1.03,2.37,1.6,3.82,1.6s2.82-.58,3.82-1.6c1.01,1.03,2.37,1.6,3.82,1.6s2.82-.58,3.82-1.6c1.01,1.03,2.37,1.6,3.82,1.6s2.82-.58,3.82-1.6c1.01,1.03,2.37,1.6,3.82,1.6s2.82-.58,3.82-1.6c1.01,1.03,2.37,1.6,3.82,1.6.27,0,.49-.22.49-.49s-.22-.49-.49-.49Z"/>
      <path class="cls-1" d="M38.73,30.99c-1.34,0-2.6-.61-3.44-1.67-.19-.23-.58-.23-.77,0-.84,1.06-2.1,1.67-3.44,1.67s-2.6-.61-3.44-1.67c-.09-.12-.23-.19-.38-.19s-.29.07-.38.19c-.84,1.06-2.1,1.67-3.44,1.67s-2.6-.61-3.44-1.67c-.19-.23-.58-.23-.77,0-.84,1.06-2.1,1.67-3.44,1.67s-2.6-.61-3.44-1.67c-.19-.23-.58-.23-.77,0-.84,1.06-2.1,1.67-3.44,1.67s-2.6-.61-3.44-1.67c-.19-.23-.58-.23-.77,0-.84,1.06-2.1,1.67-3.44,1.67-.27,0-.49.22-.49.49s.22.49.49.49c1.45,0,2.82-.58,3.82-1.6,1.01,1.03,2.37,1.6,3.82,1.6s2.82-.58,3.82-1.6c1.01,1.03,2.37,1.6,3.82,1.6s2.82-.58,3.82-1.6c1.01,1.03,2.37,1.6,3.82,1.6s2.82-.58,3.82-1.6c1.01,1.03,2.37,1.6,3.82,1.6s2.82-.58,3.82-1.6c1.01,1.03,2.37,1.6,3.82,1.6.27,0,.49-.22.49-.49s-.22-.49-.49-.49Z"/>
      <path class="cls-1" d="M38.73,23.75c-1.34,0-2.6-.61-3.44-1.67-.19-.23-.58-.23-.77,0-.84,1.06-2.1,1.67-3.44,1.67s-2.6-.61-3.44-1.67c-.09-.12-.23-.19-.38-.19s-.29.07-.38.19c-.84,1.06-2.1,1.67-3.44,1.67s-2.6-.61-3.44-1.67c-.19-.23-.58-.23-.77,0-.84,1.06-2.1,1.67-3.44,1.67s-2.6-.61-3.44-1.67c-.19-.23-.58-.23-.77,0-.84,1.06-2.1,1.67-3.44,1.67s-2.6-.61-3.44-1.67c-.19-.23-.58-.23-.77,0-.84,1.06-2.1,1.67-3.44,1.67-.27,0-.49.22-.49.49s.22.49.49.49c1.45,0,2.82-.58,3.82-1.6,1.01,1.03,2.37,1.6,3.82,1.6s2.82-.58,3.82-1.6c1.01,1.03,2.37,1.6,3.82,1.6s2.82-.58,3.82-1.6c1.01,1.03,2.37,1.6,3.82,1.6s2.82-.58,3.82-1.6c1.01,1.03,2.37,1.6,3.82,1.6s2.82-.58,3.82-1.6c1.01,1.03,2.37,1.6,3.82,1.6.27,0,.49-.22.49-.49s-.22-.49-.49-.49Z"/>
    </g>
  </g>
</svg>