<?xml version="1.0" encoding="UTF-8"?>
<svg id="Layer_2" data-name="Layer 2" xmlns="http://www.w3.org/2000/svg" viewBox="0 0 41.19 41.12">
  <defs>
    <style>
      .cls-1 {
        fill: #0d1b29;
      }
    </style>
  </defs>
  <g id="Layer_1-2" data-name="Layer 1">
    <path class="cls-1" d="M39.86,33.5h-.19c.18-.33.28-.7.28-1.09,0-1.27-1.03-2.3-2.3-2.3h-12.29v-12c.2.04.41.06.62.06h2.17c.86,0,1.68-.37,2.25-1.01.06-.07.12-.14.17-.22.55.75,1.43,1.23,2.43,1.23h2.17c.91,0,1.77-.41,2.35-1.11.57-.7.79-1.6.61-2.48-.52-2.53-1.7-4.9-3.42-6.84-.22-.25-.6-.27-.85-.05-.25.22-.27.6-.05.85,1.58,1.79,2.66,3.96,3.14,6.29.11.52-.03,1.06-.37,1.48-.35.43-.86.67-1.41.67h-2.17c-.94,0-1.72-.71-1.8-1.65-.04-.44-.1-.88-.16-1.32,0,0,0-.02,0-.03-.31-2-.93-3.96-1.9-5.74-.15-.27-.31-.55-.47-.81-.36-.58-.76-1.13-1.2-1.66-.25-.3-.51-.59-.79-.86-.27-.27-.55-.53-.84-.77-.01-.01-.03-.03-.04-.04,2.2.36,4.27,1.25,6.07,2.63.26.2.64.15.84-.11.2-.26.15-.64-.11-.84-2.13-1.63-4.6-2.63-7.23-2.95v-1.01c0-.99-.81-1.8-1.8-1.8s-1.8.81-1.8,1.8v1.01c-2.8.34-5.47,1.48-7.65,3.28-2.62,2.16-4.43,5.17-5.11,8.48-.18.88.04,1.78.61,2.48.58.71,1.43,1.11,2.35,1.11h2.17c1,0,1.88-.48,2.43-1.23.05.07.11.15.17.22.57.64,1.39,1.01,2.25,1.01h2.17c.21,0,.41-.02.61-.06v.81c0,.33.27.6.6.6s.6-.27.6-.6v-1.36c.23-.17.43-.37.6-.6.17.22.37.42.59.59v12.55s-1.19,0-1.19,0v-8.38c0-.33-.27-.6-.6-.6s-.6.27-.6.6v8.38s-7.35,0-7.35,0c.34-.57.97-.95,1.68-.95h2.72c.97,0,1.75-.79,1.75-1.75s-.79-1.75-1.75-1.75h-2.99c-2.62,0-4.79,1.94-5.15,4.46h-1.4c-.08,0-.15-.04-.19-.1l-4.87-7.14c-.35-.52-.91-.87-1.53-.98-.61-.11-1.22.03-1.72.38-1.01.72-1.26,2.14-.56,3.17l5.43,7.96s.05.07.07.1h-.96c-.73,0-1.33.6-1.33,1.33v1.21c0,.73.6,1.33,1.33,1.33h.55v2.75c0,.55.45,1,1,1h1.78c.54,0,1.01-.32,1.21-.82.01-.04.03-.07.03-.11l.52-2.82h2.15c.33,0,.6-.27.6-.6s-.27-.6-.6-.6h-7.24c-.07,0-.12-.06-.12-.12v-1.21c0-.07.06-.12.12-.12h34.91c.07,0,.12.06.12.12v1.21c0,.07-.06.12-.12.12H15c-.33,0-.6.27-.6.6s.27.6.6.6h19.78l.52,2.82s.02.08.03.11c.2.5.67.82,1.21.82h1.78c.55,0,1-.45,1-1v-2.75h.55c.73,0,1.33-.6,1.33-1.33v-1.21c0-.73-.6-1.33-1.33-1.33h0ZM22.96,1.8c0-.33.27-.6.6-.6s.6.27.6.6v.91c-.2,0-.39-.01-.59-.01s-.4,0-.6.01v-.91ZM14.13,16.97h-2.17c-.55,0-1.07-.24-1.41-.67-.34-.42-.47-.96-.37-1.48.62-3.04,2.29-5.81,4.69-7.79,1.86-1.54,4.1-2.54,6.46-2.94-.61.51-1.23,1.14-1.74,1.76-.61.74-1.14,1.53-1.6,2.38-.18.33-.33.62-.48.97-.6,1.32-1.12,2.9-1.41,4.77,0,0,0,.02,0,.03-.07.45-.12.86-.16,1.32-.09.94-.86,1.65-1.8,1.65h0ZM21.15,16.97h-2.17c-.52,0-1-.22-1.35-.61-.56-.63-.47-1.39-.35-2.16,0,0,0-.01,0-.02.27-1.73.74-3.2,1.29-4.42,0,0,0,0,0,0,.29-.65.64-1.28,1.02-1.88.01-.02.02-.04.04-.06.47-.73,1.08-1.48,1.69-2.1.47-.47.99-.91,1.54-1.3,0,0,.01,0,.02-.01.02-.02.05-.03.07-.05v10.79c0,1-.81,1.81-1.81,1.81h0ZM24.17,4.36c1.05.72,2.85,2.26,4.2,5,.02.04.04.08.06.13.01.02.02.05.03.07.89,1.9,1.31,3.82,1.49,5.39.06.51-.11,1.02-.45,1.41-.35.39-.83.61-1.35.61h-2.17c-1,0-1.81-.81-1.81-1.81V4.36ZM6.7,37.37h2.11l-.46,2.51s-.04.03-.07.03h-1.57v-2.54h0ZM10.62,33.5h-2.31c-.6,0-1.15-.29-1.49-.78l-5.43-7.96c-.33-.49-.22-1.16.26-1.51.18-.13.39-.19.61-.19.07,0,.13,0,.2.02.3.05.58.23.75.48l4.87,7.14c.27.39.71.62,1.19.62h1.35v2.19h0ZM12.93,31.12v2.38h-1.1v-2.64c0-2.21,1.8-4,4-4h2.99c.3,0,.55.25.55.55s-.25.55-.55.55h-2.72c-1.75,0-3.17,1.42-3.17,3.17h0ZM37.65,33.5H14.13v-2.19h23.52c.6,0,1.09.49,1.09,1.09s-.49,1.09-1.09,1.09ZM38.11,39.91h-1.57s-.05-.01-.07-.03l-.46-2.51h2.11v2.54h0Z"/>
  </g>
</svg>