<?xml version="1.0" encoding="UTF-8"?>
<svg id="Layer_2" data-name="Layer 2" xmlns="http://www.w3.org/2000/svg" viewBox="0 0 51.68 40.86">
  <defs>
    <style>
      .cls-1 {
        fill: #0d1b29;
      }
    </style>
  </defs>
  <g id="Layer_1-2" data-name="Layer 1">
    <g>
      <path class="cls-1" d="M51.35,27.6c-.35-.23-.82-.14-1.05.2-.06.09-1.59,2.28-4.39,2.28s-4.33-2.18-4.39-2.27c-.28-.44-.98-.44-1.26,0-.02.02-1.56,2.27-4.38,2.27-2.37,0-3.82-1.56-4.25-2.1v-11.75h19.3c.42,0,.76-.34.76-.76s-.34-.76-.76-.76h-6.1v-5.53C44.82,4.17,40.79.05,35.83,0c-2.44-.02-4.74.91-6.47,2.63-.84.83-1.5,1.8-1.95,2.85C26.01,2.29,22.85.04,19.2,0c-.03,0-.06,0-.09,0C16.7,0,14.44.93,12.72,2.63c-1.74,1.72-2.69,4.01-2.69,6.45v5.63H.82c-.42,0-.76.34-.76.76s.34.76.76.76h9.21v3c0,.42.34.76.76.76s.76-.34.76-.76v-10.15c0-2.03.8-3.94,2.24-5.37,1.45-1.43,3.36-2.21,5.39-2.19,4.13.04,7.49,3.48,7.49,7.67v5.53h-1.92v-5.63c0-3.06-2.49-5.59-5.54-5.64-.03,0-.06,0-.1,0-1.46,0-2.85.57-3.92,1.62-1.1,1.08-1.73,2.58-1.73,4.11v20.36c-1.01-.51-1.66-1.22-1.92-1.55v-5.72c0-.42-.34-.76-.76-.76s-.76.34-.76.76v5.72c-.43.54-1.89,2.1-4.26,2.1-2.8,0-4.33-2.18-4.39-2.27-.23-.35-.71-.44-1.05-.21s-.44.7-.21,1.05c.08.12,2.02,2.94,5.65,2.94,2.48,0,4.17-1.32,5.02-2.19.85.87,2.54,2.19,5.02,2.19s4.17-1.32,5.01-2.19c.85.87,2.54,2.19,5.02,2.19s4.17-1.32,5.02-2.19c.85.87,2.54,2.19,5.02,2.19s4.17-1.32,5.01-2.19c.85.87,2.54,2.19,5.02,2.19,3.63,0,5.57-2.82,5.65-2.94.23-.35.14-.82-.2-1.05h0ZM14.98,21.5h11.69v2.12h-11.69v-2.12ZM26.67,19.98h-11.69v-3.75h11.69v3.75ZM16.26,6.14c.79-.78,1.83-1.2,2.92-1.18,2.24.04,4.05,1.89,4.05,4.12v5.63h-8.25v-5.55c0-1.13.46-2.23,1.28-3.03ZM21.45,27.81c-.28-.44-.98-.44-1.26,0-.06.09-1.58,2.28-4.39,2.28-.29,0-.57-.02-.83-.07v-4.87h11.69v4.87c-.26.04-.54.07-.83.07-2.8,0-4.33-2.18-4.39-2.27h0ZM28.18,29.52V9.08c0-2.03.8-3.94,2.24-5.37,1.45-1.43,3.36-2.21,5.39-2.19,4.13.04,7.49,3.48,7.49,7.67v5.53h-1.92v-1.69c0-.42-.34-.76-.76-.76s-.76.34-.76.76v1.69h-8.25v-5.55c0-1.13.46-2.23,1.28-3.03.79-.78,1.83-1.2,2.92-1.18,2.24.04,4.05,1.89,4.05,4.12v.91c0,.42.34.76.76.76s.76-.34.76-.76v-.91c0-3.06-2.49-5.59-5.54-5.64-.03,0-.06,0-.1,0-1.46,0-2.85.57-3.92,1.62-1.1,1.08-1.73,2.58-1.73,4.11v18.81c-.26.32-.91,1.04-1.92,1.55Z"/>
      <path class="cls-1" d="M20.83,39.35c-2.8,0-4.33-2.18-4.39-2.27-.28-.44-.98-.44-1.26,0-.06.09-1.59,2.28-4.39,2.28s-4.33-2.18-4.39-2.27c-.23-.35-.71-.44-1.05-.21-.35.23-.44.7-.21,1.05.08.12,2.02,2.94,5.65,2.94,2.48,0,4.17-1.32,5.02-2.19.85.87,2.54,2.19,5.02,2.19.42,0,.76-.34.76-.76s-.34-.76-.76-.76h0Z"/>
      <path class="cls-1" d="M46.33,36.87c-.35-.23-.82-.14-1.05.2-.06.09-1.58,2.28-4.39,2.28s-4.33-2.18-4.39-2.27c-.28-.44-.98-.44-1.26,0-.02.02-1.56,2.27-4.39,2.27s-4.33-2.18-4.39-2.27c-.28-.44-.98-.44-1.26,0,0,0-.62.89-1.75,1.55-.36.21-.48.68-.27,1.04.21.36.68.48,1.04.27.7-.41,1.24-.88,1.61-1.27.85.87,2.54,2.19,5.02,2.19s4.17-1.32,5.02-2.19c.85.87,2.54,2.19,5.02,2.19,3.63,0,5.56-2.82,5.64-2.94.23-.35.14-.82-.21-1.05h0Z"/>
    </g>
  </g>
</svg>