<?xml version="1.0" encoding="UTF-8"?>
<svg id="Layer_2" data-name="Layer 2" xmlns="http://www.w3.org/2000/svg" viewBox="0 0 42.38 41.46">
  <defs>
    <style>
      .cls-1 {
        fill: #0d1b29;
      }
    </style>
  </defs>
  <g id="Layer_1-2" data-name="Layer 1">
    <g>
      <path class="cls-1" d="M39.17,18.97h-.76v-5.61c0-.99-.5-1.92-1.33-2.47v-2.61h.53v-1.15h-4.31v1.15h.53v2.61c-.83.54-1.33,1.47-1.33,2.47v5.61h-2.84v-2.02c1.26-.27,2.15-1.38,2.16-2.67v-1.53c0-.32-.26-.57-.57-.57h-4.31c-.32,0-.57.26-.57.57v1.53c0,1.29.9,2.4,2.16,2.67v2.02h-4.85v-2.02c1.26-.27,2.15-1.38,2.16-2.67v-1.53c0-.32-.26-.57-.57-.57h-4.31c-.32,0-.57.26-.57.57v1.53c0,1.29.9,2.4,2.16,2.67v2.02H3.2C1.44,18.97,0,20.4,0,22.17c0,.32.26.57.57.57h1.41v18.49h1.15v-18.49h36.12v18.49h1.15v-18.49h1.41c.32,0,.57-.26.57-.57,0-1.77-1.43-3.2-3.2-3.2ZM33.65,13.36c0-.69.39-1.32,1.01-1.62.2-.1.32-.3.32-.51v-2.94h.96v2.94c0,.22.12.42.32.51.62.3,1.01.93,1.01,1.62v5.56h-3.61v-5.56ZM27.51,14.28v-.95h3.16v.95c0,.87-.71,1.58-1.58,1.58s-1.58-.71-1.58-1.58ZM21.52,14.28v-.95h3.16v.95c0,.87-.71,1.58-1.58,1.58s-1.58-.71-1.58-1.58ZM1.23,21.6c.26-.88,1.06-1.48,1.97-1.48h35.97c.91,0,1.72.6,1.97,1.48H1.23Z"/>
      <path class="cls-1" d="M11.98,25.22h-4.75c-1.48,0-2.68,1.2-2.68,2.68v1.37c0,.32.26.57.57.57h2.85v7.89c-1.53.27-2.65,1.6-2.65,3.16,0,.32.26.57.57.57h7.4c.32,0,.57-.26.57-.57,0-1.55-1.12-2.88-2.65-3.16v-7.89h2.86c.32,0,.57-.26.57-.57v-1.37c0-1.48-1.2-2.68-2.68-2.68ZM12.65,40.32h-6.09c.26-.88,1.06-1.48,1.97-1.48h.02c.32,0,.57-.26.57-.57v-8.42h.96v8.42c0,.32.26.57.57.57h.02c.91,0,1.72.6,1.97,1.48ZM13.51,28.7h-7.81v-.79c0-.84.69-1.53,1.53-1.53h4.75c.84,0,1.53.69,1.53,1.53v.79Z"/>
      <path class="cls-1" d="M23.55,25.22h-4.75c-1.48,0-2.68,1.2-2.68,2.68v1.37c0,.32.26.57.57.57h2.85v7.89c-1.53.27-2.65,1.6-2.65,3.16,0,.32.26.57.57.57h7.4c.32,0,.57-.26.57-.57,0-1.55-1.12-2.88-2.65-3.16v-7.89h2.85c.32,0,.57-.26.57-.57v-1.37c0-1.48-1.2-2.68-2.68-2.68ZM24.21,40.32h-6.09c.26-.88,1.06-1.48,1.97-1.48h.02c.32,0,.57-.26.57-.57v-8.42h.96v8.42c0,.32.26.57.57.57h.02c.91,0,1.72.6,1.97,1.48ZM25.08,28.7h-7.81v-.79c0-.84.69-1.53,1.53-1.53h4.75c.84,0,1.53.69,1.53,1.53v.79Z"/>
      <path class="cls-1" d="M35.11,25.22h-4.75c-1.48,0-2.68,1.2-2.68,2.68v1.37c0,.32.26.57.57.57h2.85v7.89c-1.53.27-2.65,1.6-2.65,3.16,0,.32.26.57.57.57h7.4c.32,0,.57-.26.57-.57,0-1.55-1.12-2.88-2.65-3.16v-7.89h2.85c.32,0,.57-.26.57-.57v-1.37c0-1.48-1.2-2.68-2.68-2.68ZM35.78,40.32h-6.09c.26-.88,1.06-1.48,1.97-1.48h.02c.32,0,.57-.26.57-.57v-8.42h.96v8.42c0,.32.26.57.57.57h.02c.91,0,1.72.6,1.97,1.48ZM36.64,28.7h-7.81v-.79c0-.84.69-1.53,1.53-1.53h4.75c.84,0,1.53.69,1.53,1.53v.79Z"/>
      <path class="cls-1" d="M.57,6.5h1.2c.23,1.25,1.43,2.08,2.68,1.86.94-.17,1.68-.91,1.86-1.86h1.2c.32,0,.57-.26.57-.57,0-.09-.02-.18-.06-.26l-1.58-3.16c-.1-.19-.3-.32-.51-.32h-1.32V0h-1.15v2.2h-1.32c-.22,0-.42.12-.51.32L.06,5.67c-.14.28-.03.63.26.77.08.04.17.06.26.06h0ZM4.05,7.25c-.48,0-.91-.3-1.08-.75h2.17c-.17.45-.6.75-1.08.75h0ZM2.51,3.35h3.08l1,2.01H1.5l1-2.01Z"/>
      <path class="cls-1" d="M11.14,6.5h1.2c.23,1.25,1.43,2.08,2.68,1.86.94-.17,1.68-.91,1.86-1.86h1.2c.32,0,.57-.26.57-.57,0-.09-.02-.18-.06-.26l-1.58-3.16c-.1-.19-.3-.32-.51-.32h-1.32V0h-1.15v2.2h-1.32c-.22,0-.42.12-.51.32l-1.58,3.16c-.14.28-.03.63.26.77.08.04.17.06.26.06ZM14.61,7.25c-.48,0-.91-.3-1.08-.75h2.17c-.17.45-.6.75-1.08.75ZM13.08,3.35h3.08l1,2.01h-5.08l1-2.01Z"/>
      <path class="cls-1" d="M21.71,6.5h1.2c.23,1.25,1.43,2.08,2.68,1.86.94-.17,1.68-.91,1.86-1.86h1.2c.32,0,.57-.26.57-.57,0-.09-.02-.18-.06-.26l-1.58-3.16c-.1-.19-.3-.32-.51-.32h-1.32V0h-1.15v2.2h-1.32c-.22,0-.42.12-.51.32l-1.58,3.16c-.14.28-.03.63.26.77.08.04.17.06.26.06h0ZM25.18,7.25c-.48,0-.91-.3-1.08-.75h2.17c-.17.45-.6.75-1.08.75h0ZM23.65,3.35h3.08l1,2.01h-5.08l1-2.01Z"/>
    </g>
  </g>
</svg>