<?xml version="1.0" encoding="UTF-8"?>
<svg id="Layer_2" data-name="Layer 2" xmlns="http://www.w3.org/2000/svg" viewBox="0 0 56.2 23.26">
  <defs>
    <style>
      .cls-1 {
        fill: #010101;
      }
    </style>
  </defs>
  <g id="Layer_1-2" data-name="Layer 1">
    <g>
      <path class="cls-1" d="M5.12,13.02c-.23,0-.42.14-.43.33s.18.35.41.36h.48s-.04-.04-.05-.08c-.1-.19-.15-.4-.15-.6h-.26Z"/>
      <g>
        <path class="cls-1" d="M5.62,11.69l3.24,2.99.7,6.92c.09.86.82,1.51,1.66,1.51.06,0,.11,0,.17,0,.92-.09,1.59-.92,1.5-1.84l-.77-7.55c-.04-.41-.23-.78-.53-1.06l-3.76-3.47c-.67.22-1.31.48-1.91.8l-.31,1.71Z"/>
        <path class="cls-1" d="M6.82,8.38c-.15,0-.3-.02-.45-.07-.19-.06-.37-.17-.51-.3l-.76-.02c-.21,0-.41-.09-.54-.24-.12-.13-.18-.29-.18-.46.01-.36.33-.64.73-.64.01,0,.02,0,.04,0h.27s.03-.1.04-.16l.84-2.54c-.69.29-1.42.64-2.22,1.08-.58.37-.94.77-1.17,1.18-.13.19-.23.42-.27.66L.03,21.12c-.17.95.46,1.86,1.4,2.03.11.02.21.03.32.03.83,0,1.56-.59,1.71-1.43l2.19-11.98c1.5-.84,3.36-1.3,5.01-1.63l-2.94-.08c-.25.2-.56.32-.9.32h0Z"/>
        <path class="cls-1" d="M17.11,6.61c-1.42,0-2.68-.85-3.21-2.16-.15-.37-.23-.76-.25-1.14-.37-.21-.82-.36-1.32-.42l.86.73c.6.51.68,1.42.17,2.03-.27.32-.67.51-1.1.51-.34,0-.67-.12-.93-.34l-2.05-1.74-.9,2.72,20.1.84c.02-.07.03-.14.03-.22.03-.62-.44-1.14-1.06-1.17l-8.16-.41c-.26.21-.56.39-.89.53-.42.17-.85.25-1.3.25h0Z"/>
        <circle class="cls-1" cx="17.11" cy="3.14" r="3.14"/>
        <path class="cls-1" d="M8,7.75l27.18.78c.23,0,.24-.29.01-.3l-26.92-1.13-.1.29c-.04.13-.1.25-.18.35h0Z"/>
        <path class="cls-1" d="M9.3.74c-.28-.24-.67-.32-1.02-.22-.36.1-.64.37-.76.72l-1.77,5.35c-.19.59.12,1.22.71,1.41.12.04.23.06.35.06.47,0,.9-.3,1.06-.77l1.25-3.78,2.41,2.05c.47.4,1.17.34,1.57-.13.4-.47.34-1.17-.13-1.57l-3.67-3.12Z"/>
        <path class="cls-1" d="M15.93,16.2l-1.35,7.06h2.19l2.09-7.06h-2.93Z"/>
        <path class="cls-1" d="M53.66,23.26l-1.35-7.06h-2.93l2.09,7.06h2.19Z"/>
        <path class="cls-1" d="M12.07,9.69l1.33,5.14c.1.37.49.68.87.68h39.71c.38,0,.78-.3.87-.68l1.33-5.14c.1-.37-.14-.68-.52-.68H12.59c-.38,0-.62.3-.52.68Z"/>
      </g>
    </g>
  </g>
</svg>