<?xml version="1.0" encoding="UTF-8"?>
<svg id="Layer_2" data-name="Layer 2" xmlns="http://www.w3.org/2000/svg" viewBox="0 0 43.23 39.62">
  <defs>
    <style>
      .cls-1 {
        fill: #010101;
      }
    </style>
  </defs>
  <g id="Layer_1-2" data-name="Layer 1">
    <g>
      <path class="cls-1" d="M42.5,32.42h-.8c1.99-1.94,2.03-5.12.1-7.11-.31-.32-.65-.59-1.03-.81,1.52-.91,2.45-2.55,2.46-4.32,0-2.78-2.26-5.04-5.04-5.04h-6.48v-5.04c0-.4-.32-.72-.72-.72-.04,0-.07,0-.11,0l-8.54,1.31v-.67c1.68-.34,2.88-1.82,2.88-3.53,0-3.14-2.97-6.15-3.09-6.27-.28-.28-.74-.28-1.02,0-.13.13-3.09,3.13-3.09,6.27,0,1.71,1.21,3.19,2.88,3.53v.9l-8.75,1.35c-.35.05-.61.36-.61.71v8.03c-.53-.57-1.13-1.05-1.8-1.45-.22-.13-.5-.13-.72,0-2.13,1.24-3.56,3.39-3.89,5.83-.5-.1-1-.16-1.51-.16-.32,0-.64.02-.95.06-.26.03-.48.2-.58.43-1.47,3.44-.32,7.44,2.74,9.59H0v1.44h1.72l1.24,2.48c.12.24.37.4.64.4h27.38c.4,0,.72-.32.72-.72v-2.16h4.6l1.24,2.48c.12.24.37.4.64.4h2.88c.4,0,.72-.32.72-.72v-2.16h.72c.4,0,.72-.32.72-.72v-2.88c0-.4-.32-.72-.72-.72ZM41.78,28.82c0,1.99-1.61,3.6-3.6,3.6h-12.97c-1.99,0-3.6-1.61-3.6-3.6s1.61-3.6,3.6-3.6h9.37c1.19,0,2.16.97,2.16,2.16s-.97,2.16-2.16,2.16h-7.2c-.4,0-.72-.32-.72-.72s.32-.72.72-.72h5.04v-1.44h-5.04c-1.19,0-2.16.97-2.16,2.16s.97,2.16,2.16,2.16h7.2c1.99,0,3.6-1.61,3.6-3.6,0-.78-.26-1.54-.74-2.16h.74c1.99,0,3.6,1.61,3.6,3.6ZM36.02,16.57c1.19,0,2.16.97,2.16,2.16s-.97,2.16-2.16,2.16h-7.2c-.4,0-.72-.32-.72-.72s.32-.72.72-.72h5.04v-1.44h-5.04c-1.19,0-2.16.97-2.16,2.16s.97,2.16,2.16,2.16h7.2c1.99,0,3.6-1.61,3.6-3.6,0-.74-.23-1.47-.67-2.07,1.94.44,3.16,2.37,2.72,4.31-.37,1.63-1.82,2.79-3.49,2.81h-10.09c-1.99,0-3.6-1.61-3.6-3.6s1.61-3.6,3.6-3.6h7.92ZM19.45,6.48c0-1.84,1.39-3.76,2.16-4.68.78.92,2.16,2.84,2.16,4.68,0,.91-.58,1.72-1.44,2.03v-1.31h-1.44v1.31c-.86-.3-1.44-1.12-1.44-2.03ZM9.37,21.02c1.61,1.08,2.65,2.83,2.84,4.76-1.07.43-2.04,1.09-2.84,1.93-.8-.84-1.77-1.49-2.85-1.92.19-1.94,1.23-3.69,2.84-4.77ZM12.98,27.02c.69-.24,1.42-.37,2.15-.37.11,0,.23,0,.35.01,1.19,3.38-.59,7.08-3.97,8.27-.69.24-1.42.37-2.15.37-.11,0-.23,0-.35-.01-1.19-3.38.59-7.08,3.97-8.27ZM2.88,28.82c0-.73.12-1.46.37-2.15.12,0,.24-.01.35-.01,1.87,0,3.64.8,4.86,2.21-1.18,1.82-1.55,4.04-1.03,6.14-2.71-.84-4.56-3.35-4.55-6.19ZM14.68,38.18H4.05l-.72-1.44h12.08l-.72,1.44ZM21.61,38.18h-5.32l.72-1.44h1.72v-1.44h-4.82c3.07-2.14,4.22-6.15,2.75-9.59-.1-.24-.32-.4-.58-.43-.82-.11-1.65-.08-2.46.09-.11-.8-.35-1.58-.7-2.31h.05v-9.47l17.29-2.66v4.2h-2.16c-2.78,0-5.04,2.25-5.04,5.03,0,1.38.56,2.7,1.56,3.65-2.76.33-4.74,2.83-4.41,5.59.14,1.15.66,2.21,1.49,3.02h-.8c-.4,0-.72.32-.72.72v2.88c0,.4.32.72.72.72h.72v1.44ZM24.77,38.18h-1.72v-1.44h2.44l-.72,1.44ZM30.26,38.18h-3.88l.72-1.44h3.16v1.44ZM40.34,38.18h-1.72l-.72-1.44h2.44v1.44ZM41.78,35.3h-20.17v-1.44h20.17v1.44Z"/>
      <rect class="cls-1" x="14.41" y="15.13" width="1.44" height="5.76"/>
      <rect class="cls-1" x="14.41" y="22.33" width="1.44" height="1.44"/>
    </g>
  </g>
</svg>