<?xml version="1.0" encoding="UTF-8"?>
<svg id="Layer_2" data-name="Layer 2" xmlns="http://www.w3.org/2000/svg" viewBox="0 0 40.64 38.59">
  <defs>
    <style>
      .cls-1 {
        fill: #0d1b29;
      }
    </style>
  </defs>
  <g id="Layer_1-2" data-name="Layer 1">
    <path class="cls-1" d="M39.21,0h-1.7C36.72,0,36.08.64,36.08,1.43v4.63h-.64v-.04c0-.88-.72-1.6-1.6-1.6h-2.42c-.88,0-1.6.72-1.6,1.6v.04h-5.15v-.39c0-2.22-1.81-4.03-4.03-4.03h-.63c-2.22,0-4.03,1.81-4.03,4.03v.39h-5.15v-.04c0-.88-.72-1.6-1.6-1.6h-2.42c-.88,0-1.6.72-1.6,1.6v.04h-.64V1.43C4.55.64,3.91,0,3.13,0h-1.7C.64,0,0,.64,0,1.43v2.68c0,.33.27.6.6.6s.6-.27.6-.6V1.43c0-.13.11-.24.24-.24h1.7c.13,0,.24.11.24.24v10.45c0,.13-.11.24-.24.24h-1.7c-.13,0-.24-.11-.24-.24v-4.99c0-.33-.27-.6-.6-.6s-.6.27-.6.6v4.99c0,.79.64,1.43,1.43,1.43h1.7c.79,0,1.43-.64,1.43-1.43v-4.63h.68c.08.39.28.73.55.99v7.62c0,.74.34,1.37.94,1.73.7.42,1.64.42,2.46,0,1.69-.87,3.06-1.75,4.28-2.76.15.35.33.69.55,1,.56.8.87,1.75.92,2.78-.31-.14-.66-.21-1.02-.21-1.3,0-2.4.97-2.57,2.26l-.41,3.16c-.14,1.09-.03,2.22.32,3.26.21.63.31,1.28.31,1.94v4.07l-1.48,2.48c-.18.31-.28.66-.28,1.02,0,1.1.9,2,2,2h3.03c.59,0,1.15-.26,1.53-.71s.54-1.05.44-1.63l-.54-3.05v-4.18c0-.62.09-1.22.27-1.81.69.27,1.43.41,2.17.41h3.22c.74,0,1.48-.14,2.17-.41.18.59.27,1.2.27,1.81v4.18l-.54,3.05c-.1.58.06,1.18.44,1.63s.94.71,1.53.71h3.03c1.1,0,2-.9,2-2,0-.36-.1-.71-.28-1.02l-1.48-2.48v-1.15c0-.33-.27-.6-.6-.6s-.6.27-.6.6v.71h-2.32v-3.64c0-.79-.13-1.57-.38-2.32-.29-.87-.38-1.82-.26-2.73l.41-3.16c.09-.7.69-1.22,1.39-1.22s1.3.52,1.39,1.22l.41,3.16c.12.91.03,1.86-.26,2.73-.25.75-.38,1.53-.38,2.32v.15c0,.33.27.6.6.6s.6-.27.6-.6v-.15c0-.66.11-1.31.31-1.94.35-1.04.46-2.17.32-3.26l-.41-3.16c-.17-1.29-1.27-2.26-2.57-2.26-.36,0-.71.08-1.02.21.05-1.02.36-1.98.92-2.78.22-.31.4-.65.55-1,1.23,1.01,2.6,1.89,4.29,2.76.82.42,1.76.42,2.46,0,.6-.36.94-.99.94-1.73v-7.62c.28-.26.47-.61.55-.99h.68v4.63c0,.79.64,1.43,1.43,1.43h1.7c.79,0,1.43-.64,1.43-1.43V1.43c0-.79-.64-1.43-1.43-1.43h0ZM31.41,5.61h2.42c.23,0,.41.18.41.41v.85c0,.39-.32.7-.7.7h-1.84c-.39,0-.7-.32-.7-.7v-.85c0-.23.18-.41.41-.41h0ZM29.85,7.25c.13.64.58,1.16,1.18,1.39v1.79c-.62-.75-1.38-1.34-2.28-1.78-.67-.33-1.45-.51-2.24-.51h-1.89c.03-.19.05-.39.05-.61v-.28h5.19ZM25.35,15.61c-.56.97-.85,2.09-.85,3.27v.08c-.93.31-1.71.97-2.15,1.86-.09.17-.26.27-.45.27h-3.17c-.19,0-.36-.11-.45-.27-.45-.89-1.22-1.55-2.15-1.86v-.08c0-1.18-.29-2.3-.85-3.27.65-1.82.67-4.07.55-6.29h.58c.17.33.39.64.65.91-.06.36-.1.74-.1,1.12,0,2.63,1.47,4.69,3.35,4.69s3.35-2.06,3.35-4.69c0-.38-.03-.76-.1-1.13.23-.25.46-.54.65-.9h.58c-.12,2.22-.1,4.46.55,6.29h0ZM19.81,11.78h1.01c.6,0,1.18-.2,1.66-.57,0,.05,0,.1,0,.14,0,1.9-.99,3.5-2.16,3.5s-2.16-1.6-2.16-3.5c0-.05,0-.1,0-.14.47.37,1.05.57,1.66.57h0ZM17.16,5.67c0-1.57,1.27-2.84,2.84-2.84h.63c1.57,0,2.84,1.27,2.84,2.84v1.86c0,1.07-.54,1.75-1.35,2.42-.13.11-.24.2-.33.29-.27.23-.61.35-.97.35h-1.01c-.37,0-.72-.13-.99-.37l-.73-.64c-.59-.52-.93-1.27-.93-2.05v-1.86ZM16.02,8.14h-1.89c-.82,0-1.64.2-2.36.57-.85.44-1.57,1.01-2.16,1.72v-1.79c.6-.23,1.05-.75,1.18-1.39h5.19v.28c0,.2.02.41.05.61h0ZM6.39,6.02c0-.23.18-.41.41-.41h2.42c.23,0,.41.18.41.41v.85c0,.39-.32.7-.7.7h-1.84c-.39,0-.7-.32-.7-.7v-.85h0ZM13.8,13.57c-.32-.09-.67,0-.92.21-1.2,1.01-2.55,1.89-4.24,2.76-.45.23-.95.25-1.29.04-.24-.15-.37-.39-.37-.72v-7.1s.08,0,.12,0h1.32v3.02c0,.42.34.77.77.77.27,0,.54-.15.67-.4.6-1.07,1.4-1.85,2.45-2.4.55-.29,1.18-.44,1.81-.44h.51c.07,1.26.14,3.14-.18,4.79-.13-.26-.37-.46-.66-.54h0ZM12.11,23.97l.41-3.16c.09-.7.69-1.22,1.39-1.22s1.3.52,1.39,1.22l.41,3.16c.12.91.03,1.86-.26,2.73-.25.75-.38,1.53-.38,2.32v3.64h-2.32v-3.64c0-.79-.13-1.57-.38-2.32-.29-.87-.38-1.82-.26-2.73h0ZM15.45,37.11c-.15.18-.38.29-.62.29h-3.03c-.44,0-.81-.36-.81-.81,0-.15.04-.29.11-.41l1.39-2.33h2.67l.46,2.61c.04.24-.02.48-.18.66h0ZM18.71,26.42c-.64,0-1.28-.13-1.87-.38.13-.73.15-1.49.05-2.22,0,0-.43-3.3-.45-3.37.32.24.59.55.78.92.29.57.87.93,1.51.93h3.17c.64,0,1.22-.36,1.51-.93.19-.37.45-.68.78-.92-.01.07-.03.14-.04.21l-.41,3.16c-.1.74-.08,1.49.05,2.22-.59.25-1.23.38-1.87.38h-3.22ZM28.14,33.85l1.39,2.33c.07.13.11.27.11.41,0,.44-.36.81-.81.81h-3.03c-.24,0-.46-.1-.62-.29s-.22-.42-.18-.66l.46-2.61h2.67ZM33.66,15.86c0,.33-.12.57-.37.72-.34.21-.85.19-1.29-.04-1.69-.87-3.03-1.75-4.24-2.76-.26-.21-.6-.29-.92-.21-.29.08-.53.27-.66.54-.32-1.64-.26-3.53-.18-4.79h.52c.61,0,1.2.13,1.71.39,1.1.55,1.94,1.35,2.56,2.45.14.25.4.4.67.4.43,0,.77-.35.77-.77v-3.02s1.4,0,1.44,0v7.1h0ZM39.44,11.88c0,.13-.11.24-.24.24h-1.7c-.13,0-.24-.11-.24-.24V1.43c0-.13.11-.24.24-.24h1.7c.13,0,.24.11.24.24v10.45Z"/>
  </g>
</svg>