<?xml version="1.0" encoding="UTF-8"?>
<svg id="Layer_2" data-name="Layer 2" xmlns="http://www.w3.org/2000/svg" viewBox="0 0 39.99 39.25">
  <defs>
    <style>
      .cls-1 {
        fill: #0d1b29;
      }
    </style>
  </defs>
  <g id="Layer_1-2" data-name="Layer 1">
    <g>
      <path class="cls-1" d="M29.15,18.52h9.64c.52,0,.93-.42.93-.93v-8.57c0-.52-.42-.93-.93-.93h-1.5l2.32-4.87c.22-.44.08-.98-.34-1.25-.44-.27-1.01-.13-1.28.31-.02.03-.03.06-.05.08l-4.67,9.8c-.22.47-.02,1.02.44,1.24s1.02.02,1.24-.44l1.44-3.01h1.46v6.71h-8.71c-.52,0-.93.42-.93.93s.42.93.93.93Z"/>
      <path class="cls-1" d="M39.06,37.38h-1.14v-16.53h1.14c.52,0,.93-.42.93-.93s-.42-.93-.93-.93H14.73c-.52,0-.93.42-.93.93s.42.93.93.93h9.36v16.53h-1.14c-.52,0-.93.42-.93.93s.42.93.93.93h16.11c.52,0,.93-.42.93-.93s-.42-.93-.93-.93ZM36.05,37.38h-10.1v-16.53h10.1v16.53Z"/>
      <path class="cls-1" d="M19.43,24.55c-.13-1.45-1.3-2.59-2.75-2.67l-4.62-.25.24-4.57c.66.37,1.39.59,2.14.63l5.07.27c1.21.07,2.28-.78,2.48-1.97.19-1.27-.68-2.45-1.95-2.64-.07-.01-.15-.02-.22-.02l-3.79-.2c-.92-.05-1.81-.36-2.56-.9l-2.1-1.5c-.58-.43-1.27-.69-1.99-.75l-1.67-.09c-1.05-.06-2.07.39-2.74,1.21-.45.57-.71,1.26-.74,1.99l-.5,9.36c-.15,2.84,2.03,5.27,4.87,5.42,0,0,0,0,0,0l6.24.34,1.79,9.92c.1.51.59.83,1.1.73.49-.1.82-.57.74-1.07l-1.92-10.65c-.08-.43-.44-.74-.87-.77l-6.98-.37c-1.81-.1-3.2-1.64-3.1-3.46,0,0,0,0,0,0l.5-9.41c.04-.8.71-1.41,1.51-1.38l1.72.09c.62.03,1.31.65,1.81,1.01l1.25.89c1.04.74,2.27,1.17,3.55,1.24l3.79.2c.25.01.45.23.43.49,0,0,0,0,0,0-.05.26-.28.44-.54.42l-5.07-.27c-1.01-.05-1.76-.68-2.55-1.24-.43-.29-1.02-.18-1.31.25-.1.15-.16.32-.16.5l-.38,7.14c-.03.51.37.95.88.98h0s5.55.3,5.55.3c.27.02.53.14.71.34.17.21.28.47.3.74l2.1,12.65c.09.51.57.85,1.08.76.5-.09.84-.56.76-1.06l-2.1-12.61Z"/>
      <path class="cls-1" d="M8.32,8.91c2.39,0,4.18-2.5,4.18-4.73S10.63,0,8.32,0s-4.18,1.87-4.18,4.18c0,2.23,1.79,4.73,4.18,4.73ZM8.32,1.87c1.28,0,2.31,1.03,2.31,2.31,0,1.29-1.07,2.87-2.31,2.87s-2.31-1.58-2.31-2.87c0-1.27,1.04-2.31,2.31-2.31h0Z"/>
      <path class="cls-1" d="M11.71,37.38h-2.57v-5.6h1.96c.52,0,.93-.42.93-.93s-.42-.93-.93-.93h-3.22c-3.32,0-6.02-2.69-6.02-6.02h0v-6.39c0-.52-.42-.93-.93-.93h0c-.52,0-.93.42-.93.93v6.39c0,4.12,3.17,7.54,7.28,7.85v5.63h-2.57c-.52,0-.93.42-.93.93s.42.93.93.93h7c.52,0,.93-.42.93-.93s-.42-.93-.93-.93h0Z"/>
    </g>
  </g>
</svg>