<?xml version="1.0" encoding="UTF-8"?>
<svg id="Layer_2" data-name="Layer 2" xmlns="http://www.w3.org/2000/svg" viewBox="0 0 47.53 40.3">
  <defs>
    <style>
      .cls-1 {
        fill: #0d1b29;
      }
    </style>
  </defs>
  <g id="Layer_1-2" data-name="Layer 1">
    <g>
      <path class="cls-1" d="M46.94,23.5l-2.15,1.63c-1.18.89-2.81.89-4.07,0-1.63-1.18-3.78-1.18-5.4,0-1.18.89-2.81.89-4.07,0-1.63-1.18-3.78-1.18-5.4,0-1.18.89-2.81.89-4.07,0-1.63-1.18-3.78-1.18-5.4,0-1.18.89-2.81.89-4.07,0-1.63-1.18-3.78-1.18-5.4,0-1.18.89-2.81.89-4.07,0l-1.63-1.18-.74-.59c-.07-.07-.22-.07-.37-.07v1.18c.15,0,.22,0,.37.07l.74.59,1.63,1.18c1.18.89,2.81.89,4.07,0,1.63-1.18,3.78-1.18,5.4,0,1.18.89,2.81.89,4.07,0,1.63-1.18,3.78-1.18,5.4,0,1.18.89,2.81.89,4.07,0,1.63-1.18,3.78-1.18,5.4,0,1.18.89,2.81.89,4.07,0,1.63-1.18,3.78-1.18,5.4,0,1.18.89,2.81.89,4.07,0l2.15-1.63h.59v-1.18h-.59Z"/>
      <path class="cls-1" d="M44.72,29.57c-1.18.89-2.81.89-4.07,0-1.63-1.18-3.78-1.18-5.4,0-1.18.89-2.81.89-4.07,0-1.63-1.18-3.78-1.18-5.4,0-1.18.89-2.81.89-4.07,0-1.63-1.18-3.78-1.18-5.4,0-1.18.89-2.81.89-4.07,0-1.63-1.18-3.78-1.18-5.4,0-1.18.89-2.81.89-4.07,0l-1.63-1.18-.74-.59c-.07-.07-.22-.07-.37-.07v1.18c.15,0,.22,0,.37.07l.74.59,1.63,1.18c1.18.89,2.81.89,4.07,0,1.63-1.18,3.78-1.18,5.4,0,1.18.89,2.81.89,4.07,0,1.63-1.18,3.78-1.18,5.4,0,1.18.89,2.81.89,4.07,0,1.63-1.18,3.78-1.18,5.4,0,1.18.89,2.81.89,4.07,0,1.63-1.18,3.78-1.18,5.4,0,1.18.89,2.81.89,4.07,0l2.15-1.63h.59v-1.18h-.59l-2.15,1.63Z"/>
      <path class="cls-1" d="M44.72,34.01c-1.18.89-2.81.89-4.07,0-1.63-1.18-3.78-1.18-5.4,0-1.18.89-2.81.89-4.07,0-1.63-1.18-3.78-1.18-5.4,0-1.18.89-2.81.89-4.07,0-1.63-1.18-3.78-1.18-5.4,0-1.18.89-2.81.89-4.07,0-1.63-1.18-3.78-1.18-5.4,0-1.18.89-2.81.89-4.07,0l-1.63-1.18-.74-.59c-.07-.07-.22-.07-.37-.07v1.18c.15,0,.22,0,.37.07l.74.59,1.63,1.18c1.18.89,2.81.89,4.07,0,1.63-1.18,3.78-1.18,5.4,0,1.18.89,2.81.89,4.07,0,1.63-1.18,3.78-1.18,5.4,0,1.18.89,2.81.89,4.07,0,1.63-1.18,3.78-1.18,5.4,0,1.18.89,2.81.89,4.07,0,1.63-1.18,3.78-1.18,5.4,0,1.18.89,2.81.89,4.07,0l2.15-1.63h.59v-1.18h-.59l-2.15,1.63Z"/>
      <path class="cls-1" d="M44.72,38.45c-1.18.89-2.81.89-4.07,0-1.63-1.18-3.78-1.18-5.4,0-1.18.89-2.81.89-4.07,0-1.63-1.18-3.78-1.18-5.4,0-1.18.89-2.81.89-4.07,0-1.63-1.18-3.78-1.18-5.4,0-1.18.89-2.81.89-4.07,0-1.63-1.18-3.78-1.18-5.4,0-1.18.89-2.81.89-4.07,0l-1.63-1.18-.74-.59c-.07-.07-.22-.07-.37-.07v1.18c.15,0,.22,0,.37.07l.74.59,1.63,1.18c1.18.89,2.81.89,4.07,0,1.63-1.18,3.78-1.18,5.4,0,1.18.89,2.81.89,4.07,0,1.63-1.18,3.78-1.18,5.4,0,1.18.89,2.81.89,4.07,0,1.63-1.18,3.78-1.18,5.4,0,1.18.89,2.81.89,4.07,0,1.63-1.18,3.78-1.18,5.4,0,1.18.89,2.81.89,4.07,0l2.15-1.63h.59v-1.18h-.59l-2.15,1.63Z"/>
      <path class="cls-1" d="M20.8,9.65c1.55.96,2.89,1.41,3.85,1.55v2.81c-1.26-.15-2.74-.59-4.52-1.55l.67-2.81Z"/>
      <path class="cls-1" d="M37.16,23.57c-.89.15-1.7.44-2.37.96-.44.37-1.04.52-1.55.52-.59,0-1.11-.15-1.55-.52-.96-.67-2-1.04-3.18-1.04-1.11,0-2.22.37-3.18,1.04-.3.22-.67.44-1.11.52l1.04-5.18c4.29-.52,7.48-3.63,7.63-3.78.81-.81.81-2.15,0-2.96s-2.15-.81-2.96,0c-.07.07-2.07,2-4.59,2.52v-3.48c0-.67.44-1.33,1.04-1.63,2.96-1.33,5.92-1.33,8.96,0,.67.3,1.04.96,1.04,1.63v7.4l.81,4Z"/>
      <circle class="cls-1" cx="30.87" cy="4.25" r="4.07"/>
      <path class="cls-1" d="M10.14,13.8c.44-.59,1.33-.74,2-.22,1.11.89,1.7.96,1.85.89.07-.07.22-.22.3-.52.15-.3.22-.67.22-1.04v-.3c-.07-.3-.07-.59,0-.89l.89-3.92c-1.85-1.26-3.26-2.89-4.07-5.26-.15-.59.15-1.18.67-1.33.59-.15,1.18.15,1.33.67.59,1.85,1.85,3.33,3.26,4.22.52-.3,1.11-.37,1.78-.22.44.07.89.3,1.18.67,1.55-.44,3.48-2.3,4.59-3.41.37-.44,1.04-.44,1.48-.07s.44,1.04.07,1.48c-1.41,1.48-3.48,3.33-5.33,4,0,.22-.96,4.44-.96,4.52-.3-.37-.59-.74-.89-1.18-.67-.96-1.92-1.26-2.89-.59s-1.26,1.92-.59,2.96c1.11,1.63,2.59,3.33,4.29,4.37l.22,2.52c.07.74-.52,1.48-1.26,1.48h-.15c-.74,0-1.33-.59-1.41-1.26l-.37-5.11c-1.55,1.92-3.92,1.11-5.85-.37-.74-.59-.81-1.48-.37-2.07h0Z"/>
      <path class="cls-1" d="M19.4,5.43h-.22c-.52.07-1.11-.07-1.55-.3-.74-.37-1.26-1.11-1.41-2-.22-1.48.74-2.89,2.3-3.11,1.48-.22,2.89.81,3.11,2.3.3,1.48-.74,2.89-2.22,3.11Z"/>
      <path class="cls-1" d="M30.43,13.58c.52-.52,1.41-.52,2,0,.52.59.52,1.41,0,2-4.89,4.89-12.14,5.48-16.95-1.85-.44-.67-.22-1.55.37-1.92s1.48-.3,1.92.37c3.55,5.63,8.96,5.18,12.66,1.41Z"/>
    </g>
  </g>
</svg>