<?xml version="1.0" encoding="UTF-8"?>
<svg id="Layer_2" data-name="Layer 2" xmlns="http://www.w3.org/2000/svg" viewBox="0 0 58.82 41.05">
  <defs>
    <style>
      .cls-1 {
        fill: #0d1b29;
      }
    </style>
  </defs>
  <g id="Layer_1-2" data-name="Layer 1">
    <g>
      <path class="cls-1" d="M13.12,28.36c-.07-.59-.28-.99-.55-1.5-.52-.97-1.48-1.63-2.57-1.77-1.09-.15-2.06.41-2.74,1.24-.74.89-1.12,2.35-.92,3.49.09.49.54,1.45,1.1,1.72.96.86,2.45,1.16,3.66.62.91-.41,1.54-1.15,1.82-2.1.16-.55.27-1.12.2-1.69ZM11.96,29.54c-.2.8-.68,1.53-1.52,1.76-.82.23-1.88.06-2.49-.56-.75-.76-.75-1.82-.4-2.77.1-.27.22-.54.38-.78.2-.26.45-.5.73-.68.86-.56,1.91-.34,2.62.38.69.7.9,1.72.67,2.65Z"/>
      <path class="cls-1" d="M10.58,27.44c-.4-.29-.99-.19-1.37.09-.1.08-.22.22-.31.41-.05.07-.1.15-.14.23-.23.52-.34,1.15.05,1.62.32.39.92.54,1.4.36.45-.17.74-.69.82-1.14.08-.48,0-1.26-.44-1.56ZM10.38,28.78c-.06.44-.61,1.03-1.03.6-.11-.36-.07-.65.07-1.03.09-.24.36-.45.64-.43.36.03.35.56.32.85Z"/>
      <path class="cls-1" d="M51.56,26.32c-.69-.83-1.65-1.38-2.74-1.24-1.09.15-2.05.81-2.57,1.77-.27.51-.48.92-.55,1.5-.07.58.03,1.14.2,1.69.28.95.91,1.69,1.82,2.1,1.22.54,2.7.24,3.66-.62.56-.27,1.01-1.23,1.1-1.72.2-1.14-.18-2.6-.92-3.49ZM50.87,30.74c-.61.62-1.66.79-2.49.56-.85-.23-1.32-.97-1.52-1.76-.24-.93-.02-1.95.67-2.65.71-.72,1.76-.95,2.62-.38.28.19.53.42.73.68.16.24.28.51.38.78.35.95.36,2.01-.4,2.77Z"/>
      <path class="cls-1" d="M50.06,28.17c-.04-.08-.08-.16-.14-.23-.1-.18-.21-.33-.31-.41-.38-.27-.97-.37-1.37-.09-.43.31-.52,1.09-.44,1.56.07.45.37.97.82,1.14.47.18,1.07.03,1.4-.36.39-.47.28-1.1.05-1.62ZM49.47,29.39c-.42.42-.97-.16-1.03-.6-.04-.28-.04-.81.32-.85.28-.03.54.18.64.43.14.38.18.66.07,1.03Z"/>
      <path class="cls-1" d="M58.73,20.02c-.1-.88-.17-1.78-.23-2.66-.13-1.75-.47-3.74-1.9-4.91-.53-.43-1.14-.68-1.76-.92-.07-.05-.15-.09-.23-.14-.26-.14-.47-.29-.72-.44-.49-.29-1.06-.51-1.6-.69.18-.79.28-1.58.37-2.4.1-.91.02-1.85-.59-2.59-.3-.37-.58-.66-1.03-.85-.47-.19-1-.31-1.5-.43-1-.23-1.99-.56-2.99-.13-.41.17-.85.3-1.22.55-.43.29-.82.66-1.19,1.02-.69.68-1.37,1.48-1.69,2.41-.02.06-.04.12-.05.17-.3-.12-.63-.14-.96-.21-.65-.13-1.31-.26-1.97-.32-1.43-.13-2.87-.12-4.3-.23-1.65-.13-3.35-.04-5.01-.05-.76,0-1.52.04-2.28.04-.67,0-1.31,0-1.96.1-.11-.13-.23-.24-.37-.34-.49-.33-1.14-.43-1.72-.39-.31.02-.6.1-.87.24-.04.02-.08.04-.12.06,0-.01,0-.02,0-.03-.07-.31-.2-.59-.39-.84-.33-.45-.97-.56-1.5-.6-.63-.05-1.4.17-1.91.55-.23.17-.46.39-.66.6-.1.1-.18.24-.25.36-.03-.03-.06-.07-.09-.1-.17-.16-.37-.3-.59-.39-.37-.14-.74-.09-1.12-.02-.76.14-1.48.78-1.76,1.49-.08.2-.14.41-.16.62,0,.06,0,.11,0,.15-.9-.04-1.77.27-2.65.39-.53.07-1.06.2-1.58.31-.6.13-1.24.19-1.82.39-1.01.35-2.01.69-3.01,1.06-.66.24-1.25.48-1.79.84-.46.19-.9.41-1.29.73-1.44,1.17-1.77,3.16-1.9,4.91-.06.88-.13,1.78-.23,2.66-.12,1.01-.1,1.96-.06,2.97.09,1.89.21,3.78.29,5.67.08,1.78-.02,3.77.61,5.48.66,1.8,2.21,2.68,3.85,3.48.84.4,1.68.61,2.57.84.48.12.93.32,1.41.42.5.11,1.01.18,1.51.28,1.9.37,3.81.63,5.73.83,1.15.12,2.31.18,3.45.32.56.07,1.12.18,1.68.24.53.06,1.07.03,1.6.1,1.84.24,3.7.29,5.56.36,2.59.1,5.21,0,7.78-.36.53-.07,1.07-.05,1.6-.1.56-.06,1.12-.18,1.68-.24,1.14-.14,2.3-.2,3.45-.32,1.92-.2,3.83-.46,5.73-.83.5-.1,1.01-.16,1.51-.28.48-.11.93-.3,1.41-.42.89-.23,1.74-.44,2.57-.84,1.64-.79,3.19-1.68,3.85-3.48.63-1.71.52-3.7.61-5.48.09-1.89.21-3.78.29-5.67.05-1.01.06-1.96-.06-2.97ZM43.57,7.71c.18-.35.49-.67.72-.99.26-.37.66-.72,1.01-1.02.66-.56,1.63-1.12,2.53-.99.85.12,1.74.38,2.56.63,1.08.34,1.36,1.47,1.25,2.48-.05.42-.06.84-.09,1.26-.02.24-.08.47-.1.72,0,.07,0,.14,0,.2-.38-.12-.76-.24-1.15-.34-.35-.09-.7-.14-1.05-.24-.27-.08-.57-.12-.86-.17.05-.09.1-.19.14-.28.23-.48.47-1.03.78-1.46.2-.28.63-.46.91-.14.14.16.19.47.23.68.04.19.32.18.37,0,.19-.65.17-1.13-.49-1.5-.59-.33-1.32-.21-1.74.31-.51.63-.83,1.43-1.26,2.11-.29.45-.46.72-1.02.6-.45-.1-.89-.26-1.34-.4-.38-.12-.78-.17-1.16-.29-.26-.08-.5-.12-.49-.44,0-.23.16-.51.26-.71ZM46.95,12.96c-.03-.13-.06-.26-.09-.38.05,0,.1,0,.15.01.49.06.98.18,1.46.27.72.15,1.43.34,2.12.58.36.12.63.26.97.43.38.19.67.19.17.45-.55.29-1.04.66-1.63.86-.44.15-.83.37-1.26.53-.48.18-.96.27-1.45.41-.13.04-.26.07-.38.1-.27-.33-.5-.67-.81-.95.06-.16.13-.31.26-.46.12-.15.27-.27.37-.44.25-.43.23-.96.13-1.43ZM42.78,10.8c-.02-.25-.2-.54-.1-.79.06-.13.23-.26.37-.36.09.04.18.09.28.12.44.16.91.23,1.35.37.5.16.98.33,1.49.44-.03.03-.05.05-.07.08-.34.36-.59.82-.49,1.33.06.29.26.5.36.76.18.44.23.94-.07,1.33-.19.25-.45.48-.6.74-.27-.05-.52-.03-.78.04-.02-.24-.04-.5-.09-.73-.11-.5-.53-.96-.91-1.29-.39-.35-.83-.45-1.27-.4.13-.18.23-.37.3-.53.14-.34.23-.75.2-1.12ZM27.75,8.58c.76,0,1.51-.07,2.28-.07,1.67-.01,3.38-.15,5.05-.05,1.39.08,2.8.08,4.19.14.64.03,1.31.15,1.94.24.33.04,1.25-.17,1.28.34.01.21-.24.4-.32.58-.11.24-.14.52-.1.78.07.55-.1.93-.43,1.32-.01-.03-.02-.06-.03-.09-.19-.5-.48-.87-.89-1.22-.4-.33-.91-.43-1.42-.44-.38,0-.63.12-.89.27-.54-.72-1.19-1.22-2.2-1.05-1.07.18-1.67,1.02-1.95,2.03,0,0,0,0,0,.02-.01,0-.03-.01-.04-.02-.21-.06-.42-.15-.63-.21-.44-.13-.93-.21-1.38-.08-.88.24-1.16,1.03-1.41,1.8-.05-.06-.1-.12-.14-.17-.26-.24-.56-.43-.9-.52-.37-.1-.72-.03-1.08.06-.07.02-.14.04-.21.06.05-.15.1-.3.11-.45.03-.45-.14-.97-.36-1.36-.23-.4-.56-.69-1-.83-.21-.07-.45-.12-.68-.12.04-.3.04-.59-.03-.89.42,0,.86-.05,1.26-.05ZM13.32,12.83c.43-.21.48-.72.46-1.14-.01-.34-.05-.68.04-1.02.1-.37.31-.44.65-.56.46-.16.81-.43.87-.94.04-.3,0-.57.12-.86.16-.38.59-.74.99-.86.72-.21.81.28,1.32.57.42.24.79.05,1.03-.31.33-.49.78-.92,1.36-1.09.38-.11.68-.11,1.05-.01.36.09.44.15.51.56.07.4.01.84.4,1.1.46.31.84-.07,1.26-.24.43-.18,1.11-.25,1.49.1.48.44.36,1.17.22,1.71-.12.48-.04,1,.52,1.15.54.14,1.06-.51,1.5.04.43.55.09,1.18,0,1.78-.08.5.16,1.01.74.98.56-.02.99-.6,1.57-.5.61.11.78.88,1.28,1.14.25.13.65.08.78-.21.27-.59.32-1.33.74-1.84.4-.48,1.05-.16,1.55,0,.5.16,1.08.29,1.42-.23.32-.5.24-1.07.74-1.49.57-.48,1.21-.22,1.61.37.28.42.56.82,1.11.49.3-.18.37-.31.76-.28.37.02.54.12.79.38.23.24.35.45.43.78.1.39-.02.74,0,1.12.02.38.49.77.86.49.28-.21.57-.47.94-.43.33.04.52.27.71.53.2.27.24.57.25.92,0,.3-.11.58-.02.88.11.37.52.53.86.35.43-.23.78-.45,1.23-.11.14.11.26.24.37.37-1.59.38-3.22.67-4.83.83-1.05.11-2.11.11-3.16.21-1.08.1-2.21.09-3.28.01-1.07-.08-2.2.01-3.27.03-.51,0-1-.06-1.51-.04-.12,0-.25.02-.37.03-.12-.01-.24-.03-.37-.03-.51-.02-1,.05-1.51.04-1.08-.01-2.2-.11-3.27-.03-1.08.08-2.21.09-3.28-.01-1.05-.1-2.11-.1-3.16-.21-2.13-.22-4.31-.65-6.37-1.24-.49-.14-.97-.24-1.45-.41-.43-.16-.83-.38-1.26-.53-.65-.22-2.24-.64-2.02-1.64.07-.32.42-.58.66-.77.61-.49,1.76-.72,2.36-.12.16.16.43.16.59,0,.44-.44,1.07-.83,1.66-.4.4.28.78.85,1.34.58ZM3.16,13.29c.38-.29.78-.55,1.19-.77,1.38-.77,2.88-1.23,4.44-1.67,1.16-.33,2.41-.45,3.59-.67.19-.04.39-.08.6-.13-.08.17-.14.36-.18.55-.02.1-.06.61-.06.96-.14-.12-.27-.24-.4-.3-.32-.16-.66-.25-1.02-.19-.61.11-.96.35-1.33.72-1.12-.75-2.61-.49-3.59.47-.44.43-.8,1.07-.63,1.7.06.21.17.42.32.61.47.68,1.19,1.09,1.97,1.44.92.41,1.8.87,2.78,1.11,2.12.51,4.31,1.22,6.49,1.39,1.11.09,2.21.13,3.32.21.47.03.91.07,1.38.07,2.23,0,4.46-.02,6.69-.03,2.1-.02,4.22-.12,6.31.08.6.06,1.2-.05,1.8-.05.47,0,.92-.04,1.38-.07,1.1-.07,2.21-.12,3.32-.21,2.18-.17,4.37-.88,6.49-1.39.98-.24,1.86-.7,2.78-1.11.7-.31,2.69-1.22,2.25-2.26-.19-.46-.63-.59-1.02-.82-.78-.46-1.58-.67-2.45-.92-.52-.15-1.05-.24-1.58-.33-.49-.08-.96-.22-1.45-.17,0,0-.01,0-.02,0,.04,0,.38-.54.45-.62.12-.14.5-.54.65-.6.22-.08.88.12,1.12.18.37.09.73.16,1.1.24.65.14,1.24.4,1.87.56.96.26,1.83.73,2.69,1.23.79.46,1.57.73,2.08,1.56-.25,2.15-2.78,2.79-4.52,3.54-.89.38-1.91.6-2.85.83-1.08.26-2.14.56-3.23.76-2.03.37-4.08.71-6.14.87-.97.08-1.95.11-2.91.21-.49.05-.99.08-1.48.08-.41,0-.8.09-1.21.08-1.07-.02-2.15-.07-3.22-.06-.48,0-.98,0-1.48.03-.5-.02-1-.03-1.48-.03-1.07,0-2.15.04-3.22.06-.41,0-.8-.07-1.21-.08-.49,0-1-.03-1.48-.08-.96-.1-1.95-.14-2.91-.21-2.06-.16-4.12-.49-6.14-.87-1.1-.2-2.15-.5-3.23-.76-.94-.23-1.96-.44-2.85-.83-1.36-.58-3.05-1-3.99-2.23-.22-.29-.4-.63-.47-.99-.11-.56.33-.78.74-1.09ZM57.44,22.66c-.05.83-.13,1.65-.14,2.48-.02,1.76-.25,3.51-.25,5.27,0,1.5-.16,3.56-1.35,4.63-1.27,1.15-3,1.68-4.62,2.1-.93.24-1.8.51-2.75.67-.86.14-1.71.32-2.57.46-.41.07-.83.05-1.24.12-.49.08-.99.14-1.49.2-.93.1-1.85.18-2.78.28-3.61.39-7.23.7-10.85.95-3.62-.25-7.24-.56-10.85-.95-.93-.1-1.85-.17-2.78-.28-.5-.06-1-.12-1.49-.2-.41-.07-.83-.05-1.24-.12-.86-.15-1.71-.32-2.57-.46-.95-.16-1.82-.43-2.75-.67-1.62-.42-3.34-.94-4.62-2.1-1.19-1.07-1.36-3.13-1.35-4.63,0-1.76-.22-3.51-.25-5.27-.01-.83-.08-1.65-.14-2.48-.03-.47-.1-.93-.08-1.41.02-.46.1-.91.13-1.36.07-.92.1-1.84.17-2.76.04-.57.11-1.18.25-1.76.09.21.2.42.34.59.63.82,1.53,1.39,2.47,1.79.88.37,1.7.81,2.61,1.08,1.04.31,2.09.6,3.11.93,1.17.38,2.42.45,3.6.75,1.11.28,2.25.32,3.38.5,2.05.33,4.16.46,6.24.53,1.19.04,2.38.14,3.58.05.75-.05,1.49-.06,2.23-.12.74.06,1.48.07,2.23.12,1.2.09,2.39-.02,3.58-.05,2.07-.06,4.18-.2,6.24-.53,1.13-.18,2.27-.22,3.38-.5,1.18-.3,2.44-.37,3.6-.75,1.03-.34,2.08-.62,3.11-.93.92-.28,1.74-.71,2.61-1.08.94-.4,1.85-.97,2.47-1.79.13-.17.25-.38.34-.59.14.58.2,1.19.25,1.76.07.92.1,1.84.17,2.76.03.45.11.9.13,1.36.02.47-.05.93-.08,1.41Z"/>
      <path class="cls-1" d="M33.46,28.86c-.19-1.06-1.06-1.99-1.93-2.57-.92-.61-1.95-.63-2.98-.35-.57.15-.97.46-1.47.76-.48.29-.77.61-1.02,1.11-.28.56-.62,1.29-.65,1.98-.02.2-.02.4-.01.6.13,2.16,2.84,3.51,4.78,3.16,1.02-.19,2.19-.79,2.76-1.68.53-.83.7-2.05.53-3.01ZM32,31.33c-.57.86-1.85,1.27-2.84,1.2-.89-.06-1.94-.63-2.45-1.38-.64-.94-.27-2.22.4-3.02.32-.38.7-.68,1.1-.95.05-.02.1-.05.15-.07.44-.21.95-.31,1.44-.29.99.05,1.76.72,2.29,1.52.54.82.45,2.17-.09,2.99Z"/>
      <path class="cls-1" d="M29.97,28.18c-.53-.09-1.22-.04-1.57.4-.13.16-.23.34-.3.54-.29.41-.37.93-.09,1.46.58,1.08,2.07,1.08,2.74.12.59-.85.37-2.33-.77-2.53ZM30.15,30.22c-.36.52-1.14.56-1.51,0-.24-.38-.01-.85.33-1.17.18-.14.38-.17.67-.16.36.02.61.12.66.5.04.27,0,.6-.16.83Z"/>
      <path class="cls-1" d="M27.4,14.71c-.38-.14-.77-.17-1.17-.1-.22.04-.45.1-.65.21,0,0-.02.01-.02.02-.04-.23-.09-.46-.24-.67-.21-.3-.56-.49-.9-.6-.47-.15-.88-.06-1.25.13.03-.2.05-.41.04-.62-.03-.42-.19-.92-.48-1.25-.23-.26-.71-.45-1.06-.39-.43.07-.63.38-.88.65-.09-.17-.17-.36-.29-.51-.18-.23-.36-.43-.61-.6-.53-.36-1.17-.33-1.73,0-.52.31-.9.87-1.07,1.44-.13.42-.15.82-.14,1.23-.13-.09-.28-.17-.43-.21-.55-.16-1.15-.03-1.64.24-.42.23-1.06.8-1.14,1.3-.07.46.2.62.46.6.3-.02.59-.27.34-.51.14-.21.38-.44.6-.58.26-.17.57-.28.88-.27.57.02.7.49,1.1.76.14.09.41.07.52-.07.28-.35.14-.7.12-1.12-.02-.53-.02-1.16.25-1.64.31-.56,1.03-.99,1.59-.51.41.35.47.87.77,1.27.12.16.35.28.55.14.4-.27.91-1.19,1.28-.44.35.71-.04,1.34-.04,2.06,0,.38.49.59.76.31.22-.22.34-.42.65-.54.42-.17.88-.05,1.06.37.18.42-.06,1.22.63,1.28.51.04.71-.6,1.2-.68.75-.13.94.44,1.39.85.1.09.26.1.36,0,.57-.58-.26-1.35-.81-1.55Z"/>
      <path class="cls-1" d="M29.36,1.32c-.59-.45-1.56-.74-2.3-.8-.88-.07-1.8.64-2.22,1.36-.26.45-.42,1.35,0,1.7.11.13.25.24.4.32.14.07.28.1.43.12.06,0,.14.02.21.02,0,0,0,0,0,0-.11.75.14,1.49.86,1.86,1.49.76,3.22-.76,3.45-2.21.13-.87-.1-1.83-.82-2.38ZM28.35,4.99c-.63.42-1.78.3-1.67-.68.04-.41.22-.85-.27-1.06-.23-.1-.48.01-.71-.07-.5-.18-.19-.65,0-.94.04-.06.09-.14.15-.24.53-.85,1.62-.51,2.4-.28,1.63.48,1.25,2.49.1,3.26Z"/>
      <path class="cls-1" d="M22.87,1.42c-.37-1.54-2.39-1.7-3.55-1.09-.57.3-1.05.99-1.21,1.6-.04.14-.05.31-.03.48-.02.3.04.6.26.83.18.2.43.33.7.35.14.01.28,0,.42-.04.11-.02.44-.06.39-.16.13.15.2.52.32.67.16.19.42.31.67.3.57-.04,1.23-.65,1.57-1.06.41-.49.62-1.25.47-1.89ZM21.63,2.89c-.16.18-.35.37-.55.51-.27.19-.34.19-.48-.1-.12-.25-.22-.5-.5-.59-.14-.04-.3-.03-.44,0-.3.04-.54.09-.67-.03-.05-.15-.1-.3-.09-.46,0-.03.01-.07.02-.11,0-.02,0-.04.02-.06.19-.56.62-.96,1.16-1.14.61-.21,1.31-.08,1.74.42.4.46.16,1.17-.21,1.57Z"/>
    </g>
  </g>
</svg>