<?xml version="1.0" encoding="UTF-8"?>
<svg id="Layer_2" data-name="Layer 2" xmlns="http://www.w3.org/2000/svg" viewBox="0 0 41.13 40.69">
  <defs>
    <style>
      .cls-1 {
        fill: #010101;
      }
    </style>
  </defs>
  <g id="Layer_1-2" data-name="Layer 1">
    <g id="Movie_Theatre" data-name="Movie Theatre">
      <g>
        <path class="cls-1" d="M40.82.2c-.2-.16-.46-.23-.71-.19C27.18,2.36,13.94,2.36,1.02.01.55-.07.1.24.01.71c0,.05-.01.1-.01.15v24.22c0,.48.39.87.87.87.05,0,.1,0,.15-.01,12.92-2.34,26.17-2.34,39.09,0,.47.08.92-.23,1.01-.7,0-.05.01-.1.01-.15V.87c0-.26-.11-.5-.31-.66ZM39.4,24.05c-12.46-2.14-25.2-2.14-37.67,0V1.9c12.46,2.14,25.2,2.14,37.67,0v22.16Z"/>
        <path class="cls-1" d="M36.25,31.47h-3.05c-.04-2.08-1.73-3.74-3.81-3.75h-3.93c-2.08,0-3.77,1.67-3.81,3.75h-2.17c-.04-2.08-1.73-3.74-3.81-3.75h-3.93c-2.08,0-3.77,1.67-3.81,3.75h-3.05c-2.11,0-3.81,1.71-3.81,3.81v4.54c0,.48.39.87.87.87h9.82c.48,0,.87-.39.87-.87v-2.88h2.17v2.88c0,.48.39.87.87.87h9.82c.48,0,.87-.39.87-.87v-2.88h2.17v2.88c0,.48.39.87.87.87h9.82c.48,0,.87-.39.87-.87v-4.54c0-2.11-1.71-3.81-3.81-3.81h0ZM10.89,38.96H2.79v-3.68c0-1.15.93-2.08,2.08-2.08h3.93c1.15,0,2.08.93,2.08,2.08v3.68ZM14.79,35.22h-2.17c-.03-1.75-1.25-3.25-2.96-3.65v-.03c0-1.15.93-2.08,2.08-2.08h3.93c1.15,0,2.08.93,2.08,2.08v.03c-1.71.39-2.93,1.9-2.96,3.65h0ZM24.61,38.96h-8.09v-3.68c0-1.15.93-2.08,2.08-2.08h3.93c1.15,0,2.08.93,2.08,2.08v3.68ZM28.51,35.22h-2.17c-.03-1.75-1.25-3.25-2.96-3.65v-.03c0-1.15.93-2.08,2.08-2.08h3.93c1.15,0,2.08.93,2.08,2.08v.03c-1.71.39-2.93,1.9-2.96,3.65h0ZM38.33,38.96h-8.09v-3.68c0-1.15.93-2.08,2.08-2.08h3.93c1.15,0,2.08.93,2.08,2.08v3.68Z"/>
      </g>
      <g>
        <path class="cls-1" d="M40.82.2c-.2-.16-.46-.23-.71-.19C27.18,2.36,13.94,2.36,1.02.01.55-.07.1.24.01.71c0,.05-.01.1-.01.15v24.22c0,.48.39.87.87.87.05,0,.1,0,.15-.01,12.92-2.34,26.17-2.34,39.09,0,.47.08.92-.23,1.01-.7,0-.05.01-.1.01-.15V.87c0-.26-.11-.5-.31-.66ZM39.4,24.05c-12.46-2.14-25.2-2.14-37.67,0V1.9c12.46,2.14,25.2,2.14,37.67,0v22.16Z"/>
        <path class="cls-1" d="M36.25,31.47h-3.05c-.04-2.08-1.73-3.74-3.81-3.75h-3.93c-2.08,0-3.77,1.67-3.81,3.75h-2.17c-.04-2.08-1.73-3.74-3.81-3.75h-3.93c-2.08,0-3.77,1.67-3.81,3.75h-3.05c-2.11,0-3.81,1.71-3.81,3.81v4.54c0,.48.39.87.87.87h9.82c.48,0,.87-.39.87-.87v-2.88h2.17v2.88c0,.48.39.87.87.87h9.82c.48,0,.87-.39.87-.87v-2.88h2.17v2.88c0,.48.39.87.87.87h9.82c.48,0,.87-.39.87-.87v-4.54c0-2.11-1.71-3.81-3.81-3.81h0ZM10.89,38.96H2.79v-3.68c0-1.15.93-2.08,2.08-2.08h3.93c1.15,0,2.08.93,2.08,2.08v3.68ZM14.79,35.22h-2.17c-.03-1.75-1.25-3.25-2.96-3.65v-.03c0-1.15.93-2.08,2.08-2.08h3.93c1.15,0,2.08.93,2.08,2.08v.03c-1.71.39-2.93,1.9-2.96,3.65h0ZM24.61,38.96h-8.09v-3.68c0-1.15.93-2.08,2.08-2.08h3.93c1.15,0,2.08.93,2.08,2.08v3.68ZM28.51,35.22h-2.17c-.03-1.75-1.25-3.25-2.96-3.65v-.03c0-1.15.93-2.08,2.08-2.08h3.93c1.15,0,2.08.93,2.08,2.08v.03c-1.71.39-2.93,1.9-2.96,3.65h0ZM38.33,38.96h-8.09v-3.68c0-1.15.93-2.08,2.08-2.08h3.93c1.15,0,2.08.93,2.08,2.08v3.68Z"/>
      </g>
    </g>
  </g>
</svg>