<svg width="24" height="24" viewBox="0 0 24 24" fill="none" xmlns="http://www.w3.org/2000/svg">
<path d="M22.92 9C22.15 9.35 21.32 9.58 20.46 9.69C21.34 9.16 22.02 8.32 22.34 7.31C21.51 7.81 20.59 8.16 19.62 8.36C18.83 7.5 17.72 7 16.46 7C14.11 7 12.19 8.92 12.19 11.29C12.19 11.63 12.23 11.96 12.3 12.27C8.74 12.09 5.57 10.38 3.46 7.79C3.09 8.42 2.88 9.16 2.88 9.94C2.88 11.43 3.63 12.75 4.79 13.5C4.08 13.5 3.42 13.3 2.84 13V13.03C2.84 15.11 4.32 16.85 6.28 17.24C5.65073 17.4122 4.9901 17.4362 4.35 17.31C4.62161 18.1625 5.15354 18.9084 5.87102 19.4429C6.5885 19.9775 7.45545 20.2737 8.35 20.29C6.83363 21.4904 4.954 22.1393 3.02 22.13C2.68 22.13 2.34 22.11 2 22.07C3.9 23.29 6.16 24 8.58 24C16.46 24 20.79 17.46 20.79 11.79C20.79 11.6 20.79 11.42 20.78 11.23C21.62 10.63 22.34 9.87 22.92 9Z" fill="white"/>
</svg>
